<svg width="2048" height="2048" viewBox="0 0 2048 2048" fill="none" xmlns="http://www.w3.org/2000/svg">
<g clip-path="url(#clip0)">
<path d="M441.061 1276.04L456.368 1386.15L456.368 1386.3L440.933 1276C440.976 1276.01 441.019 1276.02 441.061 1276.04Z" fill="#D75E85"/>
<path d="M387.393 889.976L348.277 608.599C344.518 580.642 329.165 563.732 307.776 566.951L308.092 566.951C305.977 567.26 303.71 567.753 301.369 568.47C299.638 569.025 297.876 569.704 296.083 570.512C289.565 572.892 282.713 575.363 275.538 577.951L275.537 577.951L275.532 577.953C269.085 580.279 262.376 582.698 255.414 585.23C209.647 602.212 148.326 626.113 102.188 648.105C101.892 648.195 101.594 648.297 101.293 648.413L100.415 648.827C99.359 649.324 98.3092 649.921 97.271 650.609C91.7263 654.453 86.0879 661.507 83.005 668.198C78.9926 676.905 72.254 692.684 77.4781 717.587C84.0215 767.066 93.932 843.881 105.129 930.663L105.129 930.666C136.214 1171.6 177.21 1489.35 183.584 1512.27C188.043 1528.31 197.176 1542.15 210.62 1543.99L210.387 1544.01C215.634 1544.71 221.165 1543.63 226.705 1540.78L426.071 1463.32C439.657 1455.25 451.92 1432.4 455.392 1402.95C451.394 1429.47 437.506 1444.33 423.863 1452.27L224.324 1528.46C203.115 1539.13 186.124 1511.08 180.705 1470.36L88.1817 764.378C80.1262 707.785 81.7679 666.558 110.068 654.997C174.935 625.014 225.007 607.609 267.264 592.92L267.266 592.919C277.618 589.321 287.501 585.886 297.017 582.468C324.43 570.351 344.757 587.433 349.055 619.413L386.953 890.241C387.1 890.153 387.247 890.065 387.393 889.976Z" fill="#D75E85"/>
<path d="M456.531 1387.46L349.055 619.414C344.757 587.433 324.43 570.352 297.017 582.469C248.653 599.836 190.827 617.669 110.069 654.997C81.768 666.559 80.1263 707.786 88.1818 764.379L180.705 1470.36C186.125 1511.08 203.116 1539.13 224.324 1528.46L423.863 1452.27C439.963 1442.9 456.402 1423.9 456.531 1387.46Z" fill="#F2EAE8"/>
<path d="M18.6524 712.697L121.81 1493.9C129.004 1530.41 137.389 1549 167.745 1546.44L210.62 1543.99C197.176 1542.15 188.043 1528.31 183.584 1512.27C174.914 1481.09 102.188 904.436 77.4781 717.587C72.2541 692.684 78.9927 676.906 83.005 668.198C87.0174 659.49 95.3585 650.167 102.188 648.106C164.317 618.492 253.976 585.416 296.116 570.434C300.292 568.577 304.422 567.487 308.092 566.951C274.174 566.951 254.141 567.03 252.835 567.269C251.529 567.508 130.048 614.418 48.6232 645.617C24.5656 654.835 15.9342 690.494 18.6524 712.697Z" fill="#D75E85"/>
<path fill-rule="evenodd" clip-rule="evenodd" d="M81.3159 964.736C84.8269 964.244 88.0719 966.691 88.5639 970.202L97.6332 1034.92C98.1252 1038.44 95.6778 1041.68 92.1669 1042.17C88.6559 1042.66 85.4108 1040.22 84.9189 1036.71L75.8495 971.984C75.3575 968.473 77.8049 965.228 81.3159 964.736Z" fill="#BF3393"/>
<path fill-rule="evenodd" clip-rule="evenodd" d="M1647.45 1534.09C1647.47 1535.49 1647.53 1536.89 1647.63 1538.27C1648.21 1548.36 1651.1 1557.96 1658.62 1566.61C1690.97 1603.82 1736.14 1653.41 1753.16 1666.63C1766.18 1676.73 1776.88 1644.89 1785.47 1601.32L1893.38 876.464C1895.82 863.677 1896.48 852.74 1895.8 843.304C1894.46 821.191 1885.85 807.191 1875.51 796.959L1802.36 720.058C1802.25 719.973 1802.13 719.889 1802.01 719.808C1793.66 712.929 1776.56 718.644 1767.48 738.062L1767.47 738.075C1776.27 716.133 1791.56 698.81 1801.53 704.278C1800.91 704.278 1800.31 704.279 1799.73 704.279C1799.47 704.28 1799.21 704.28 1798.95 704.28C1805.21 705.474 1818.61 720.168 1835.1 738.25C1838.87 742.388 1842.81 746.703 1846.86 751.075C1865.99 771.735 1884.63 792.242 1890.34 798.618C1903.06 815.118 1902.64 833.731 1896.65 864.805C1896.42 865.801 1896.19 866.8 1896.02 867.797L1895.9 868.608C1895.83 868.951 1895.76 869.296 1895.69 869.642L1783.07 1628.53C1782.94 1629.46 1782.81 1630.4 1782.68 1631.35C1779.38 1655.49 1775.32 1685.24 1764.08 1686C1760.98 1685.63 1757.77 1683.31 1754.66 1680.39L1667.7 1588.53C1656.42 1577.02 1647.24 1560.85 1647.45 1534.09ZM1797.49 704.281C1797.95 704.281 1798.44 704.281 1798.95 704.28C1798.41 704.177 1797.92 704.175 1797.49 704.281Z" fill="#6257DB"/>
<path d="M1893.38 876.466L1785.47 1601.32C1776.88 1644.89 1766.18 1676.73 1753.16 1666.63C1736.14 1653.41 1690.97 1603.82 1658.62 1566.61C1641.04 1546.39 1648.77 1520.88 1652.13 1496.39C1652.13 1496.39 1757.01 785.175 1762.75 753.293C1768.49 721.412 1792.45 711.084 1802.44 720.183L1875.59 798.061C1890.21 812.543 1901.38 834.57 1893.38 876.466Z" fill="#F2EAE8"/>
<path d="M1846.87 1620.3L1957.55 873.271C1965.67 830.079 1954.97 807.492 1940.86 792.699L1870.31 713.105C1860.93 704.081 1816.51 704.264 1798.95 704.281C1798.41 704.178 1797.92 704.176 1797.49 704.282C1797.95 704.282 1798.44 704.282 1798.95 704.281C1806.64 705.748 1825.12 727.601 1846.86 751.076C1865.99 771.736 1884.63 792.243 1890.34 798.619C1903.7 815.958 1902.56 835.63 1895.69 869.643L1783.07 1628.53C1779.6 1653.77 1775.55 1686.95 1763.12 1686C1800.98 1688.93 1807.97 1691.67 1819.2 1687.79C1830.42 1683.9 1838.17 1665.23 1846.87 1620.3Z" fill="#6257DB"/>
<path fill-rule="evenodd" clip-rule="evenodd" d="M1894.81 1101.36C1888.46 1100.68 1882.67 1104.7 1881.88 1110.35L1867.3 1214.38C1866.51 1220.02 1871.01 1225.15 1877.36 1225.83C1883.72 1226.51 1889.51 1222.48 1890.3 1216.84L1904.88 1112.81C1905.67 1107.16 1901.16 1102.04 1894.81 1101.36Z" fill="#3A21C2"/>
<path fill-rule="evenodd" clip-rule="evenodd" d="M1471.68 974.052C1471.68 956.541 1414.27 926.3 1414.27 926.3C1350.37 902.335 1308.77 919.798 1290.49 871.818C1278.13 829.173 1314.44 799.421 1404.13 801.934C1439.64 802.93 1509.14 836.597 1551.1 884.488C1575.66 919.142 1600.37 960.346 1622.06 978.248C1660.63 1010.09 1682.93 1027.25 1725.95 1053L1768.94 1058.23C1815.21 1065.76 1781.45 1299.3 1749.77 1331.72C1713.86 1343.1 1704.62 1367.5 1669.72 1389.81C1608.31 1429.07 1298.15 1427.27 1246.4 1413.99C1202.31 1402.68 1193.66 1387.18 1188.62 1359.42C1186.24 1326.93 1192.19 1312.57 1217.85 1297.5C1186.25 1288.88 1171.68 1280.37 1159.98 1248.56C1157.5 1221.38 1160.17 1208.3 1171.89 1188.72C1136.42 1181.34 1112.58 1180.01 1084.62 1156.4C1056.66 1132.8 1052.81 1089.65 1093.4 1074.39C1041.51 1060.48 1018.25 1048.01 1017.57 1011.92C1026.58 982.142 1038.9 969.652 1096.82 968.16C1248.65 983.21 1471.68 991.564 1471.68 974.052ZM1297.88 1092.62C1249.26 1092.15 1225.77 1089.45 1185.6 1083.54L1186.13 1083.56C1225.37 1085.22 1247.54 1086.16 1289.67 1085.88C1295.96 1089.01 1297.17 1090.39 1297.88 1092.62ZM1301.4 1203.74C1277.38 1201.52 1259.91 1200.56 1258.89 1196.7H1293.48C1300.23 1200.38 1301.06 1201.69 1301.4 1203.74ZM1286.76 1313.85L1282.92 1307.38C1289.13 1307.85 1293.78 1308.17 1297.35 1308.45C1301.58 1309.55 1304.48 1311.38 1307.08 1314.76C1299.07 1314.51 1294.72 1314.36 1286.76 1313.85Z" fill="#6257DB"/>
<path fill-rule="evenodd" clip-rule="evenodd" d="M287.696 921.657C327.768 918.684 350.824 916.973 386.131 890.733C430.238 864.424 449.125 839.703 475.445 805.255C481.394 797.468 487.724 789.184 494.81 780.273C533.873 733.86 606.422 703.821 655.156 716.134C734.467 736.172 756.258 752.996 761.706 791.197C757.97 822.683 744.052 829.747 712.244 836.093C696.839 837.136 684.128 835.836 671.333 834.527C656.865 833.047 642.29 831.556 623.594 833.43C608.017 838.297 599.941 842.454 587.317 853.719C597.281 858.891 606.392 861.014 623.594 864.596L761.706 870.988C880.147 880.932 930.679 889.969 993.544 910.135C1029.82 926.145 1037.22 939.017 1035.5 966.448C1025.34 1000.95 1008.75 1008.53 963.432 1005.04C940.149 1001.41 923.176 998.053 907.265 994.903C886.747 990.841 867.995 987.128 839.756 983.651C808.638 979.819 791.182 977.695 759.321 975.746C760.487 979.816 762.521 981.394 767.226 983.651C848.561 992.927 891.776 1000.25 954.598 1025.96C990.45 1047.9 998.35 1075.7 993.544 1093.38C982.556 1120.06 966.882 1128.68 932.28 1125.92C912.178 1122.91 902.69 1118.79 892.851 1114.52C885.814 1111.46 878.597 1108.33 867.188 1105.47C825.361 1094.97 801.756 1090.86 759.321 1086.87C758.914 1089.77 760.876 1091.64 765.505 1095.11C788.289 1097.95 802.964 1101.26 830.232 1108.16C873.718 1121.83 891.125 1132.86 900.451 1162.97C901.589 1207.51 895.106 1226.25 864.379 1242.96C883.162 1267.32 879.75 1299.4 864.379 1319.22C845.283 1343.85 804.217 1351.18 746.055 1349.11C721.245 1344.75 711.943 1335.46 703.58 1306.64L521.62 1291.96C437.206 1279.05 390.617 1269.24 321.733 1202.18C313.743 1196.58 306.207 1195.49 298.465 1194.38C291.757 1193.41 284.895 1192.42 277.452 1188.46C246.616 1152.99 237.242 1130.49 231.127 1086.87C224.901 1042 223.812 1017.51 231.127 975.746C241.293 943.757 250.534 930.551 276.511 922.504C280.39 922.2 284.111 921.924 287.696 921.657ZM762.36 1205.58C758.484 1203.76 756.76 1202.6 756.047 1199.78C771.469 1200.06 792.028 1206.07 797.712 1208.12C803.396 1210.17 802.145 1213.2 797.712 1212.06C793.279 1210.93 776.05 1207.12 762.36 1205.58Z" fill="#D75E85"/>
<circle cx="1576.13" cy="693.546" r="26.1236" fill="#DF7A7F"/>
<circle cx="1075.32" cy="587.358" r="24.603" fill="#E5B2BB"/>
<circle cx="703.935" cy="1598.26" r="30.1481" fill="#3A21C2"/>
<circle cx="362.856" cy="462.683" r="35.3996" fill="#3A21C2"/>
<circle cx="1348.59" cy="371.468" r="20.4681" fill="#3A21C2"/>
<path fill-rule="evenodd" clip-rule="evenodd" d="M1995.92 671.168C1999.59 673.663 2000.53 678.654 1998.04 682.317C1998.04 682.317 1961.5 730.263 1959.01 733.926C1956.51 737.589 1952.1 742.559 1948.82 740.325C1945.54 738.092 1948.49 732.839 1950.99 729.176C1953.48 725.513 1984.78 673.283 1984.78 673.283C1987.27 669.62 1992.26 668.674 1995.92 671.168Z" fill="#735DEC"/>
<path fill-rule="evenodd" clip-rule="evenodd" d="M2025.54 738.042C2026.75 741.055 2025.3 744.485 2022.28 745.701L1977.33 761.709C1974.32 762.926 1970.4 763.126 1969.45 760.763C1968.49 758.401 1970.58 756.352 1973.59 755.135L2017.88 734.788C2020.89 733.572 2024.32 735.028 2025.54 738.042Z" fill="#735DEC"/>
<path fill-rule="evenodd" clip-rule="evenodd" d="M1977.58 793.99C1978.35 791.17 1982.27 790.857 1986.26 791.948L2042.46 803.809C2046.45 804.9 2048.8 809.018 2047.71 813.008C2046.62 816.998 2042.5 819.348 2038.51 818.257L1983.38 799.977C1979.39 798.886 1976.81 796.809 1977.58 793.99Z" fill="#735DEC"/>
<path d="M441.061 1276.04L456.368 1386.15L456.368 1386.3L440.933 1276C440.976 1276.01 441.019 1276.02 441.061 1276.04Z" fill="white" fill-opacity="0.2"/>
<path d="M387.393 889.976L348.277 608.599C344.518 580.642 329.165 563.732 307.776 566.951L308.092 566.951C305.977 567.26 303.71 567.753 301.369 568.47C299.638 569.025 297.876 569.704 296.083 570.512C289.565 572.892 282.713 575.363 275.538 577.951L275.537 577.951L275.532 577.953C269.085 580.279 262.376 582.698 255.414 585.23C209.647 602.212 148.326 626.113 102.188 648.105C101.892 648.195 101.594 648.297 101.293 648.413L100.415 648.827C99.359 649.324 98.3092 649.921 97.271 650.609C91.7263 654.453 86.0879 661.507 83.005 668.198C78.9926 676.905 72.254 692.684 77.4781 717.587C84.0215 767.066 93.932 843.881 105.129 930.663L105.129 930.666C136.214 1171.6 177.21 1489.35 183.584 1512.27C188.043 1528.31 197.176 1542.15 210.62 1543.99L210.387 1544.01C215.634 1544.71 221.165 1543.63 226.705 1540.78L426.071 1463.32C439.657 1455.25 451.92 1432.4 455.392 1402.95C451.394 1429.47 437.506 1444.33 423.863 1452.27L224.324 1528.46C203.115 1539.13 186.124 1511.08 180.705 1470.36L88.1817 764.378C80.1262 707.785 81.7679 666.558 110.068 654.997C174.935 625.014 225.007 607.609 267.264 592.92L267.266 592.919C277.618 589.321 287.501 585.886 297.017 582.468C324.43 570.351 344.757 587.433 349.055 619.413L386.953 890.241C387.1 890.153 387.247 890.065 387.393 889.976Z" fill="white" fill-opacity="0.2"/>
<path d="M48.6232 645.697C24.5656 654.915 15.9342 690.574 18.6524 712.776L77.4781 717.667C72.2541 692.764 78.9927 676.985 83.005 668.278C87.0174 659.57 95.3585 650.247 102.188 648.185C164.317 618.572 253.976 585.496 296.116 570.514C300.292 568.657 304.422 567.567 308.092 567.031C274.174 567.031 254.141 567.11 252.835 567.349C251.529 567.588 130.048 614.498 48.6232 645.697Z" fill="url(#paint0_radial)"/>
<path d="M121.81 1493.98C129.003 1530.49 137.389 1549.08 167.745 1546.52L210.619 1544.07C197.176 1542.23 188.043 1528.39 183.584 1512.35L121.81 1493.98Z" fill="url(#paint1_linear)"/>
<path fill-rule="evenodd" clip-rule="evenodd" d="M81.3159 964.816C84.8269 964.324 88.0719 966.771 88.5639 970.282L97.6332 1035C98.1252 1038.52 95.6778 1041.76 92.1669 1042.25C88.6559 1042.74 85.4108 1040.3 84.9189 1036.79L75.8495 972.064C75.3575 968.553 77.8049 965.308 81.3159 964.816Z" fill="url(#paint2_linear)"/>
<path fill-rule="evenodd" clip-rule="evenodd" d="M1647.45 1534.09C1647.47 1535.49 1647.53 1536.89 1647.63 1538.27C1648.21 1548.36 1651.1 1557.96 1658.62 1566.61C1690.97 1603.82 1736.14 1653.41 1753.16 1666.63C1766.18 1676.73 1776.88 1644.89 1785.47 1601.32L1893.38 876.464C1895.82 863.676 1896.48 852.74 1895.8 843.303C1894.46 821.19 1885.85 807.191 1875.51 796.959L1802.36 720.058C1802.25 719.972 1802.13 719.889 1802.01 719.808C1793.66 712.929 1776.56 718.644 1767.48 738.062L1767.47 738.075C1776.27 716.133 1791.56 698.809 1801.53 704.277C1800.91 704.278 1800.31 704.278 1799.73 704.279C1799.47 704.279 1799.21 704.28 1798.95 704.28C1805.21 705.474 1818.61 720.168 1835.1 738.25C1838.87 742.388 1842.81 746.703 1846.86 751.075C1865.99 771.735 1884.63 792.242 1890.34 798.618C1903.06 815.118 1902.64 833.731 1896.65 864.805C1896.42 865.801 1896.19 866.8 1896.02 867.796L1895.9 868.608C1895.83 868.951 1895.76 869.296 1895.69 869.642L1783.07 1628.53C1782.94 1629.46 1782.81 1630.4 1782.68 1631.35C1779.38 1655.49 1775.32 1685.24 1764.08 1686C1760.98 1685.63 1757.77 1683.31 1754.66 1680.39L1667.7 1588.53C1656.42 1577.02 1647.24 1560.85 1647.45 1534.09ZM1797.49 704.281C1797.95 704.281 1798.44 704.28 1798.95 704.28C1798.41 704.176 1797.92 704.174 1797.49 704.281Z" fill="white" fill-opacity="0.2"/>
<path d="M1846.87 1620.38C1838.17 1665.31 1830.42 1683.98 1819.2 1687.86C1807.97 1691.75 1800.98 1689 1763.12 1686.08C1775.55 1687.03 1779.6 1653.85 1783.07 1628.61L1846.87 1620.38Z" fill="url(#paint3_linear)"/>
<path d="M1870.31 713.184C1860.93 704.159 1816.51 704.342 1798.95 704.359C1798.41 704.256 1797.92 704.254 1797.49 704.36C1797.95 704.36 1798.44 704.36 1798.95 704.359C1806.64 705.826 1825.12 727.679 1846.86 751.154C1865.99 771.814 1884.63 792.321 1890.34 798.697C1903.7 816.036 1902.56 835.708 1895.69 869.721L1957.55 873.349C1965.67 830.158 1954.97 807.57 1940.86 792.777L1870.31 713.184Z" fill="url(#paint4_radial)"/>
<path fill-rule="evenodd" clip-rule="evenodd" d="M1894.81 1101.44C1888.46 1100.76 1882.67 1104.78 1881.88 1110.43L1867.3 1214.46C1866.51 1220.1 1871.01 1225.23 1877.36 1225.91C1883.72 1226.59 1889.51 1222.56 1890.3 1216.92L1904.88 1112.89C1905.67 1107.24 1901.16 1102.12 1894.81 1101.44Z" fill="url(#paint5_linear)"/>
<path d="M252.23 1154.67C258.61 1165.29 265.015 1174.14 277.445 1188.53C290.28 1195.85 310.795 1193.39 321.729 1202.26C333.527 1213.87 344.795 1223.9 356.033 1232.62L326.064 1177.84C293.967 1165.89 278.058 1161.05 252.23 1154.67Z" fill="url(#paint6_radial)"/>
<path d="M487.734 1286.47L326.06 1177.82L327.86 1208.16C370.054 1248.78 411.961 1274.48 487.734 1286.47Z" fill="url(#paint7_radial)"/>
<path d="M433.281 904.277C401.996 925.389 373.803 959.747 357.138 969.129L344.768 913.168C352.259 910.834 367.289 905.049 385.986 890.789C398.265 883.524 410.85 875.44 424.619 863.18C447.816 840.788 460.202 826.27 481.404 797.56L498.87 838.1L433.281 904.277Z" fill="url(#paint8_radial)"/>
<path d="M226.578 1011.59L357.163 969.179L344.777 913.185C334.401 918.064 303.795 921.197 276.479 922.577C248.063 931.434 240.471 946.83 231.118 975.827L231.059 976.186C228.932 988.987 227.656 996.668 226.578 1011.59Z" fill="url(#paint9_radial)"/>
<path d="M747.841 1021.1C745.8 1030.09 744.55 1038.05 742.41 1037.57C740.269 1037.08 738.048 1028.33 740.088 1019.34C742.129 1010.36 747.659 1004.54 749.799 1005.02C751.94 1005.51 749.882 1012.12 747.841 1021.1Z" fill="white" fill-opacity="0.2"/>
<path d="M740.797 1126.52C738.757 1135.51 737.507 1143.47 735.366 1142.99C733.225 1142.5 731.004 1133.75 733.044 1124.76C735.085 1115.78 740.615 1109.95 742.755 1110.44C744.896 1110.93 742.838 1117.54 740.797 1126.52Z" fill="white" fill-opacity="0.2"/>
<path d="M738.29 1240.69C736.249 1249.68 734.999 1257.64 732.859 1257.16C730.718 1256.67 728.497 1247.92 730.537 1238.93C732.578 1229.95 738.108 1224.12 740.248 1224.61C742.389 1225.1 740.331 1231.71 738.29 1240.69Z" fill="white" fill-opacity="0.2"/>
<path d="M747.892 774.433C666.479 751.72 573.259 743.962 546.213 822.627C551.537 842.255 556.323 855.987 546.213 879.723C604.392 774.433 667.83 851.925 743.205 824.999C752.891 821.539 775.549 782.149 747.892 774.433Z" fill="url(#paint10_radial)" fill-opacity="0.2"/>
<path d="M826.021 1239.77C790.347 1243.75 739.703 1247.57 712.489 1278.22C695.363 1268.54 688.262 1217.81 707.852 1203.83C743.383 1185.48 714.944 1222.32 807.745 1217C809.073 1220.1 811.54 1229.52 826.021 1239.77Z" fill="url(#paint11_radial)" fill-opacity="0.2" style="mix-blend-mode:overlay"/>
<path d="M711.832 1278.08C704.878 1287.77 704.008 1294.41 703.588 1306.7C577.465 1296.27 521.879 1294.87 459.733 1281.07L448.08 1242.72L711.832 1278.08Z" fill="url(#paint12_linear)"/>
<path d="M856.051 1327.86C834.303 1344.46 804.518 1350.18 746.096 1349.21C728.538 1345.89 711.774 1339.64 703.597 1306.68C703.13 1296.85 706.098 1287.86 712.673 1278.45L852.254 1248.89C872.649 1269.58 868.837 1318.1 856.051 1327.86Z" fill="url(#paint13_linear)"/>
<path d="M723.994 1318.2C749.509 1324.84 764.529 1326.03 792.31 1324.69C812.387 1324.17 824.741 1323.32 832.304 1322.52C839.89 1321.72 861.159 1313.2 862.12 1305.71C866.648 1277.9 858.515 1262.84 847.149 1247.5C839.836 1247.5 830.156 1242.79 825.99 1239.79C812.832 1240.97 786.766 1244.53 786.766 1244.53C786.766 1244.53 752.318 1249.92 734.323 1258.01C704.792 1276.19 691.238 1311.65 723.994 1318.2Z" fill="url(#paint14_radial)"/>
<path d="M753.213 1252.17C753.213 1252.17 700.701 1246.84 691.865 1302.89C691.715 1303.84 691.579 1304.78 691.458 1305.71L703.532 1306.67C704.468 1264.38 753.213 1252.17 753.213 1252.17Z" fill="url(#paint15_radial)"/>
<path d="M864.406 1243.06C858.267 1245.93 854.053 1247.46 847.125 1247.46C867.656 1274.98 864.406 1287.92 859.754 1324.5C877.204 1307.98 885.797 1271.81 864.406 1243.06Z" fill="url(#paint16_radial)"/>
<path d="M756.044 1199.82C749.442 1199.31 750.336 1199.55 743.935 1203.07C764.806 1228.95 769.101 1207.35 803.927 1219.87L801.297 1211.86C798.103 1213.78 797.012 1210.38 762.339 1205.65C757.863 1203.66 756.565 1202.08 756.044 1199.82Z" fill="url(#paint17_radial)"/>
<path d="M815.933 1155.59L761.407 1140.11C767.334 1159.56 767.351 1168.25 757.978 1192.28C776.806 1194.14 787.112 1197.83 805.017 1205.91C802.693 1190.12 808.698 1164.41 815.933 1155.59Z" fill="url(#paint18_radial)" fill-opacity="0.2"/>
<path d="M758.01 1192.25C736.936 1190.51 724.633 1194.61 702.206 1206.93C706.583 1182.94 707.136 1170.95 702.206 1154.04C732.256 1136.27 744.596 1136.77 761.5 1140.14C768.485 1162.63 765.698 1171.7 758.01 1192.25Z" fill="url(#paint19_radial)"/>
<path d="M866.402 1199.66C814.575 1187.46 807.15 1166.23 748.591 1163.77C755.566 1145.48 756.813 1127.96 755.09 1102.95C813.906 1109.65 831.42 1113.06 872.725 1136.21C875.432 1136.01 903.708 1178.69 866.402 1199.66Z" fill="url(#paint20_radial)" fill-opacity="0.2" style="mix-blend-mode:overlay"/>
<path d="M750.488 1199.65L736.774 1206.76C729.605 1206.41 728.863 1204.05 729.338 1198.63C729.924 1191.94 760.419 1187.78 788.183 1199.17C791.319 1199.65 794.79 1201.42 798.619 1208.39C779.474 1202.95 771.196 1199.94 750.488 1199.65Z" fill="black" fill-opacity="0.2"/>
<path d="M839.757 1246.34C820.144 1240.46 808.493 1223.93 806.436 1212.47C833.255 1228.53 848.231 1232.34 881.933 1230.91C868.978 1241.93 854.516 1250.77 839.757 1246.34Z" fill="url(#paint21_radial)"/>
<path d="M805.932 1184.13C796.631 1233.53 837.45 1245.63 837.45 1245.63C837.45 1245.63 784.506 1242.25 794.266 1180.34C803.102 1124.3 854.017 1127.8 854.017 1127.8C854.017 1127.8 809.485 1140.41 805.932 1184.13Z" fill="url(#paint22_radial)"/>
<path d="M759.288 1098.81C754.125 1096.53 752.404 1093.03 749.735 1089.17C753.229 1086.46 754.217 1085.19 759.288 1086.96C758.999 1089.87 760.654 1091.55 765.504 1095.19L778.971 1097.03C819.264 1104.36 871.885 1115.31 890.318 1141.69L885.932 1157.34C882.823 1143.18 873.593 1136.56 861.718 1128.68C824.799 1110.4 805.533 1106.78 759.288 1098.81Z" fill="url(#paint23_radial)" fill-opacity="0.2"/>
<path d="M900.563 1163.14C902.178 1196.31 900.563 1223.09 864.388 1243.06C881.367 1222.73 889.649 1189.84 883.787 1163.14L872.615 1125.71C888.593 1136.22 894.85 1146 900.563 1163.14Z" fill="url(#paint24_radial)" fill-opacity="0.2"/>
<path d="M820.29 1202.78C822.01 1217.81 829.935 1230.34 826.114 1230.78C822.293 1231.22 811.381 1219.39 809.661 1204.36C807.941 1189.34 814.994 1173.59 818.816 1173.15C822.637 1172.72 818.57 1187.75 820.29 1202.78Z" fill="white" fill-opacity="0.2"/>
<path d="M934.15 1071.64C932.555 1070.85 930.914 1070.22 929.346 1069.38C883.006 1044.62 808.239 1025.45 755.097 1025.45C761.024 1044.91 761.041 1056.8 751.668 1080.84C801.362 1080.84 855.732 1090.88 918.189 1120.59C920.345 1121.61 922.681 1122.4 925.048 1122.71C972.574 1129.01 953.063 1080.94 934.15 1071.64Z" fill="url(#paint25_radial)" fill-opacity="0.2"/>
<path d="M751.581 1080.82C731.75 1087.64 751.581 1101.41 711.641 1106.98L711.641 1054.1C719.749 1039.43 750.096 1025.1 755.071 1025.5C762.057 1047.99 759.269 1060.27 751.581 1080.82Z" fill="url(#paint26_radial)"/>
<path d="M949.496 1089.58C867.367 1073.37 854.138 1051.37 762.191 1044.49C771.748 1026.54 772.387 1008.94 767.81 983.551C860.478 994.737 888.179 999.494 954.641 1025.97C958.868 1025.97 1006.38 1071.2 949.496 1089.58Z" fill="url(#paint27_radial)" fill-opacity="0.2" style="mix-blend-mode:overlay"/>
<path d="M753.169 1086.87L738.535 1096.52C741.126 1088.63 743.369 1084.64 750.678 1079.39C899.258 1086.87 892.95 1119.79 962.485 1124.38C949.55 1127 947.516 1126.03 932.198 1126.03C919.031 1123.68 907.282 1121.86 895.339 1115.68C866.514 1100.74 782.543 1088.38 759.302 1086.96C756.107 1086.91 755.507 1085.32 753.169 1086.87Z" fill="black" fill-opacity="0.2"/>
<path d="M757.587 975.507L742.953 985.159C745.543 977.267 747.787 973.285 755.096 968.035C760.836 963.911 907.271 985.363 1000.36 1004.3C986.525 1006.58 974.857 1006.16 960.439 1004.67C886.812 991.25 841.787 980.812 757.587 975.507Z" fill="black" fill-opacity="0.2"/>
<path d="M975.382 942.446C893.307 922.256 863.581 922.489 775.849 912.901C781.776 932.356 781.792 944.253 772.419 968.29C855.691 977.23 875.601 979.232 965.144 993.947C990.643 998.137 1014.8 952.142 975.382 942.446Z" fill="url(#paint28_radial)" fill-opacity="0.2"/>
<path d="M1005.36 981.538C923.229 965.325 874.694 941.19 782.747 934.312C792.304 916.359 792.943 898.76 788.366 873.369C885.018 880.135 947.18 893.21 1010.68 918.002C1032.12 926.372 1048.27 975.582 1005.36 981.538Z" fill="url(#paint29_radial)" fill-opacity="0.2" style="mix-blend-mode:overlay"/>
<path d="M768.135 904.114C689.84 904.114 607.084 899.189 546.523 879.953H526.052C526.052 884.282 546.802 914.197 593.506 930.984C640.21 947.772 768.135 949.952 768.135 949.952V904.114Z" fill="url(#paint30_radial)"/>
<path d="M586.955 853.503C579.311 860.377 573.772 866.83 566.008 879.483C593.159 882.801 606.839 879.929 630.61 872.878C771.539 874.143 850.943 883.141 993.094 910.033C888.97 874.587 748.051 870.072 623.555 864.634C605.767 861.052 594.62 857.943 586.955 853.503Z" fill="url(#paint31_linear)" fill-opacity="0.2"/>
<path d="M772.301 968.762C744.238 961.918 759.212 975.157 716.498 1001.12L716.498 948.23C733.89 917.714 747.675 912.453 775.791 913.442C782.776 935.927 779.989 948.21 772.301 968.762Z" fill="url(#paint32_radial)"/>
<path d="M565.986 879.364H546.373C559.553 850.864 571.645 840.163 599.739 828.412C621.686 821.548 633.976 821.219 655.89 825.055C692.163 833.989 713.554 834.385 744.222 825.645C719.016 838.977 701.567 837.945 668.609 834.165C645.177 832.011 632.224 832.488 623.617 833.515C615.016 836.073 611.344 837.84 607.343 839.71C587.478 850.91 578.442 859.614 565.986 879.364Z" fill="black" fill-opacity="0.2"/>
<path d="M671.742 754.495L730.894 777.171C735.845 779.069 738.32 784.622 736.422 789.573V789.573C734.524 794.524 728.972 796.999 724.021 795.101L664.868 772.425L671.742 754.495Z" fill="url(#paint33_radial)"/>
<path d="M518.719 840.345C525.341 848.78 534.812 851.945 532.703 853.601C530.594 855.256 517.705 854.775 511.082 846.34C504.46 837.906 506.611 824.711 508.72 823.055C510.829 821.4 512.096 831.91 518.719 840.345Z" fill="white" fill-opacity="0.2"/>
<path d="M708.121 798.065C641.879 757.359 597.319 758.856 516.332 835.691C525.889 817.738 515.446 787.512 496.504 778.112C554.954 725.287 610.636 688.973 713.441 734.529C751.962 751.599 717.922 804.088 708.121 798.065Z" fill="url(#paint34_radial)" fill-opacity="0.2" style="mix-blend-mode:overlay"/>
<path d="M1594.68 1405.41C1594.68 1405.41 1606.32 1404.47 1612.78 1407.7L1592.56 1410.98C1554.05 1422.62 1285.71 1427.91 1240.51 1412.46C1239.77 1413.72 1211.89 1402.97 1204.56 1394.6C1238.66 1420.34 1582.61 1413.11 1594.68 1405.41Z" fill="black" fill-opacity="0.2"/>
<path d="M1299.35 1302.1C1304.45 1302.1 1310.48 1312.35 1310.48 1319.98C1306.46 1313.27 1303.82 1310.26 1297.33 1308.51C1267.01 1306.31 1249.78 1305.47 1217.86 1297.57C1198.66 1292.25 1188.79 1287.88 1180.55 1281.07C1208.31 1294.76 1251.6 1299.12 1299.35 1302.1Z" fill="black" fill-opacity="0.2"/>
<path d="M1308.87 1321.51C1309.15 1319.23 1308.86 1317.81 1307.08 1314.85C1294.09 1314.53 1276.11 1313.56 1272.45 1312.05C1267.4 1309.95 1264.74 1308.28 1262.85 1305.71C1255.08 1304.85 1250.75 1304.26 1243.05 1302.96C1243.05 1302.96 1251.83 1310.26 1258.39 1313.23C1269.66 1318.33 1304.92 1318.33 1304.92 1318.33C1306.82 1319.01 1307.57 1319.88 1308.87 1321.51Z" fill="white" fill-opacity="0.2"/>
<path d="M1226.01 1299.54L1217.86 1297.57C1200.89 1307.79 1194.11 1316 1190.56 1327.89C1198.22 1313.23 1213.13 1302.77 1226.01 1299.54Z" fill="white" fill-opacity="0.2"/>
<path d="M1249.35 1314.47C1260.37 1322.15 1286.19 1322.3 1308.87 1321.51C1307.69 1320.07 1306.96 1319.04 1304.91 1318.33C1294.97 1318.21 1289.21 1317.97 1279.06 1317.17C1266.73 1315.76 1260.71 1315.2 1254.21 1310.97C1250.31 1308.83 1244.13 1303.79 1243.05 1302.95C1241.15 1303.72 1245.8 1312 1249.35 1314.47Z" fill="black" fill-opacity="0.2"/>
<path d="M1170.27 1198.95C1184.48 1184.74 1200.21 1195.27 1232.47 1199.03C1237.32 1199.6 1245.97 1200.66 1253.17 1200.66C1274.9 1202.29 1301.17 1206.6 1301.42 1203.85C1302.07 1207.55 1301.49 1207.22 1298.72 1209.47C1271.09 1208.49 1258.31 1206.36 1232.47 1203.79C1201.02 1200.66 1189.62 1188.59 1170.27 1198.95Z" fill="black" fill-opacity="0.2"/>
<path d="M1257.61 1196.6L1259.13 1196.66C1258.4 1196.63 1259.13 1199.35 1269.71 1200.67C1280.52 1202.02 1283.96 1202.27 1301.41 1203.82C1301.41 1206.46 1280.43 1202.84 1253.3 1200.67C1229.16 1200.1 1211.91 1195.15 1198.76 1192.84C1196.23 1192.53 1193.63 1192.19 1190.92 1191.8C1177.54 1190.8 1168.86 1195.36 1160.5 1216.46C1163.84 1200.72 1168.78 1195.14 1171.9 1188.78C1179.03 1190 1185.22 1190.99 1190.92 1191.8C1193.37 1191.98 1195.97 1192.35 1198.76 1192.84C1216.2 1194.99 1230.63 1195.55 1257.61 1196.6Z" fill="white" fill-opacity="0.2"/>
<path d="M1171.94 1188.78C1126.13 1180.32 1105.81 1176.16 1082.14 1154.18C1138.47 1185.19 1202.39 1188.78 1290.07 1191.24C1294.95 1191.61 1299.6 1196.1 1301.64 1203.85C1300.6 1199.92 1296.21 1198.39 1293.49 1196.78C1221.23 1197.82 1182.38 1190.7 1171.94 1188.78Z" fill="black" fill-opacity="0.2"/>
<path d="M1093.23 1074.5C1126.04 1080.97 1146.85 1082.37 1185.49 1083.47C1203.44 1086.25 1214.15 1087.8 1236.15 1089.97C1260.08 1091.95 1273.64 1092.35 1297.88 1092.7C1297.88 1095.3 1257.33 1093.86 1230.19 1091.7C1209.61 1092.81 1097.01 1080.96 1093.23 1074.5Z" fill="white" fill-opacity="0.2"/>
<path d="M1093.23 1074.5C1097.01 1080.96 1209.61 1092.81 1230.19 1091.7C1257.33 1093.86 1297.93 1095.19 1297.93 1092.59C1298.59 1096.28 1298.01 1098.1 1295.24 1100.35C1213.09 1100.58 1095.39 1084.48 1093.23 1074.5Z" fill="black" fill-opacity="0.2"/>
<path d="M1185.65 1083.6C1136.87 1082 1088.74 1079.69 1042.62 1055.95C1112.7 1076.01 1185.65 1076.01 1185.65 1076.01C1185.65 1076.01 1266.38 1079.2 1284.47 1080.52C1292.14 1081.08 1298.95 1090.28 1297.88 1092.71C1297.14 1089.85 1294.17 1088.25 1289.68 1085.95C1253.99 1086.35 1220.3 1085.04 1185.65 1083.6Z" fill="black" fill-opacity="0.2"/>
<path d="M1791.21 1115.3C1764.85 1113.48 1747.89 1112.2 1723.56 1105.83C1717.69 1104.29 1707.95 1141.18 1717.69 1150.95C1735.1 1168.42 1770.45 1172.21 1789.32 1177.26C1791.28 1154.62 1791.74 1141.1 1791.21 1115.3Z" fill="url(#paint35_radial)"/>
<path d="M1075.92 1087.43C1094.31 1097.4 1124.81 1101.03 1124.81 1101.03C1116.14 1122.64 1112.82 1135.52 1119.64 1154.37C1119.64 1154.37 1076.36 1145.83 1072.04 1139.37C1056.96 1116.8 1058.32 1104.58 1075.92 1087.43Z" fill="url(#paint36_radial)" fill-opacity="0.2"/>
<path d="M1169.68 1205.23L1204.56 1213.79C1195.89 1235.4 1193.19 1246.75 1200.01 1265.61L1169.68 1258.76C1154.56 1249.14 1151.43 1213.79 1169.68 1205.23Z" fill="url(#paint37_radial)" fill-opacity="0.2"/>
<path d="M1235.29 1337.3C1235.29 1347.03 1222.37 1372.94 1213.01 1372.94C1200.87 1372.12 1195.06 1369.13 1188.31 1347.76C1188.31 1337.18 1192.85 1314.21 1202.44 1314.21C1219.22 1314.21 1235.29 1327.58 1235.29 1337.3Z" fill="url(#paint38_radial)" fill-opacity="0.2"/>
<path d="M1038.33 1021.85C1038.33 1037.33 1048.91 1049.87 1044.9 1049.87C1040.89 1049.87 1023.81 1037.33 1023.81 1021.85C1023.81 1006.37 1032.99 993.822 1037 993.822C1041.01 993.822 1038.33 1006.37 1038.33 1021.85Z" fill="white" fill-opacity="0.2"/>
<path d="M1299.65 864.143C1299.65 876.885 1305.38 887.215 1303.21 887.215C1301.04 887.215 1291.79 876.885 1291.79 864.143C1291.79 851.4 1296.76 841.07 1298.93 841.07C1301.1 841.07 1299.65 851.4 1299.65 864.143Z" fill="white" fill-opacity="0.2"/>
<path d="M1310 1333.9C1307.51 1338.33 1301.38 1338.47 1300.4 1337.92C1299.42 1337.37 1303.97 1336.34 1306.46 1331.91C1308.96 1327.48 1309.52 1321.13 1310.5 1321.68C1311.48 1322.23 1312.49 1329.47 1310 1333.9Z" fill="white" fill-opacity="0.2"/>
<path d="M1305.55 1222.99C1303.06 1227.42 1296.93 1227.56 1295.95 1227.01C1294.98 1226.46 1299.52 1225.43 1302.02 1221C1304.51 1216.57 1305.07 1210.22 1306.05 1210.77C1307.03 1211.32 1308.04 1218.56 1305.55 1222.99Z" fill="white" fill-opacity="0.2"/>
<path d="M1303.75 1108.82C1301.26 1113.25 1295.13 1113.39 1294.15 1112.84C1293.17 1112.29 1297.72 1111.26 1300.21 1106.83C1302.7 1102.4 1303.27 1096.05 1304.25 1096.6C1305.22 1097.15 1306.24 1104.39 1303.75 1108.82Z" fill="white" fill-opacity="0.2"/>
<path d="M1657.84 1379.93L1612.83 1407.74C1640.77 1401.72 1659.73 1398.34 1678.01 1384.21C1698.63 1370.64 1717.73 1341.13 1749.76 1331.8C1753.98 1326.93 1756.46 1322.8 1759.6 1315.7C1745.6 1310.4 1716.33 1313.42 1711.68 1321.31C1695.62 1348.57 1683.78 1361.36 1657.84 1379.93Z" fill="url(#paint39_linear)" fill-opacity="0.2"/>
<path d="M1516.44 929.142C1499.35 943.573 1473.77 911.004 1434.59 890.453C1395.42 869.902 1351.83 864.711 1350.73 849.21C1349.64 833.709 1401.75 824.041 1459.43 854.292C1498.6 874.843 1533.53 914.711 1516.44 929.142Z" fill="url(#paint40_radial)"/>
<path d="M1087.11 1012.87C1088.29 997.946 1101.84 987.133 1116.66 989.242C1178.74 998.078 1206.62 1001.27 1287.79 1003.05C1279.19 1021.48 1277.51 1033.26 1283.41 1058.37C1205.37 1059.73 1178.9 1056.94 1108.15 1044.71C1094.97 1042.43 1085.72 1030.47 1086.78 1017.14L1087.11 1012.87Z" fill="url(#paint41_radial)" fill-opacity="0.2"/>
<path d="M1044.95 1028.04C1046.13 1013.12 1059.67 1002.3 1074.48 1004.5C1141.86 1014.52 1189.71 1022.46 1271.3 1024.25C1262.7 1042.68 1261.02 1054.46 1266.92 1079.57C1187.6 1076.84 1126.26 1075.99 1063.32 1061.16C1051.29 1058.33 1043.45 1046.95 1044.43 1034.64L1044.95 1028.04Z" fill="url(#paint42_radial)" fill-opacity="0.2"/>
<path d="M1381.42 1070.75C1357.15 1058.38 1302.91 1058.38 1283.49 1058.38C1278.24 1037.07 1277.39 1024.77 1287.86 1003.05C1287.86 1003.05 1361.84 1002.72 1385.79 1015.43L1381.42 1070.75Z" fill="url(#paint43_radial)" fill-opacity="0.2"/>
<path d="M1328.16 899.384C1319.53 898.3 1311.35 893.516 1300.79 889.673C1317.96 914.407 1366.22 907.605 1414.22 926.447C1439.21 940.178 1467.82 957.96 1471.57 972.453C1473.28 979.085 1457.03 980.687 1442.4 982.13L1441.48 982.221C1402.17 984.771 1380.68 984.203 1341.53 983.408C1270.53 980.522 1233.88 980.291 1161.39 973.916L1096.48 968.164C1064.13 969.379 1035.92 973.068 1023.77 995.856C1036.94 981.21 1062.02 974.553 1071.48 974.553C1118.47 974.553 1126.01 978.586 1161.4 981.21C1196.79 983.833 1341.5 991.089 1341.5 991.089C1378.86 992.639 1441.55 990.673 1441.55 990.673C1456.85 991.089 1478.6 986.143 1478.6 974.731C1478.6 948.233 1443.04 925.458 1399.55 911.697C1380.69 905.73 1341.53 901.064 1328.16 899.384Z" fill="black" fill-opacity="0.2"/>
<path d="M1083.5 1133.09C1084.87 1115.78 1102.52 1104.76 1118.95 1110.35C1176.7 1130 1216.25 1134.19 1294.56 1135.91C1285.96 1154.34 1284.28 1166.12 1290.19 1191.23C1208.6 1188.99 1148.25 1185.54 1096.54 1161.28C1087.41 1157 1082.38 1147.28 1083.17 1137.24L1083.5 1133.09Z" fill="url(#paint44_radial)" fill-opacity="0.2"/>
<path d="M1361.8 1166.99C1352.44 1159.43 1273.83 1149.58 1263.87 1157.36C1259.74 1136.06 1258.65 1123.76 1268.25 1102.04C1268.25 1102.04 1353.41 1102.04 1366.18 1111.66C1360.29 1129.35 1359.82 1141.92 1361.8 1166.99Z" fill="url(#paint45_radial)" fill-opacity="0.2"/>
<path d="M1087.08 1113.55C1088.26 1098.57 1101.92 1087.74 1116.78 1089.95C1171.16 1098.03 1195.3 1100.82 1268.28 1102.02C1260.3 1120.5 1258.68 1132.29 1263.9 1157.35C1193.29 1159.22 1170.7 1156.82 1107.9 1145.4C1094.84 1143.02 1085.69 1131.11 1086.74 1117.87L1087.08 1113.55Z" fill="url(#paint46_radial)" fill-opacity="0.2"/>
<path d="M1707.73 1074.65C1717.06 1062.67 1714.08 1045.26 1701.43 1036.88C1614.02 979.004 1605.56 966.498 1556.22 891.872C1549.63 910.894 1542.88 920.681 1522.1 935.645C1576.89 1000.85 1573.63 1013.45 1670.87 1082.17C1682.09 1090.1 1697.55 1087.71 1705.99 1076.88L1707.73 1074.65Z" fill="url(#paint47_radial)" fill-opacity="0.2"/>
<path d="M1556.06 891.865C1542.01 871.059 1496.15 828.322 1434.37 807.998C1413.77 800.812 1393.36 800.804 1364.71 803.24C1346.01 806.162 1339.75 816.351 1330.63 846.791C1413.09 831.128 1470.63 870.717 1521.95 935.638C1539.68 923.352 1548.5 914.031 1556.06 891.865Z" fill="url(#paint48_radial)" fill-opacity="0.2"/>
<path d="M1656.95 1037.28C1660.88 1023.75 1676.88 1020.27 1688.61 1028.06C1704.61 1038.68 1720.07 1049.34 1725.96 1053.09C1735.94 1054.15 1741.39 1055.32 1768.22 1058.19C1786.27 1060.11 1790.85 1098.75 1791.14 1115.3C1701.04 1108.18 1696.31 1100.66 1667.36 1079.41C1652.32 1068.36 1652.91 1051.21 1656.95 1037.28Z" fill="url(#paint49_radial)" fill-opacity="0.2"/>
<path d="M1305.09 834.317C1387.96 846.179 1482.77 916.209 1482.77 916.209C1474.17 934.64 1472.49 946.417 1478.4 971.531C1471.71 936.334 1416.84 915.923 1395.04 910.384C1371.5 904.404 1338.08 901.168 1323.78 898.565C1318.51 897.604 1306.57 891.644 1300.71 889.639C1283.38 865.99 1284.84 845.834 1305.09 834.317Z" fill="url(#paint50_radial)" fill-opacity="0.2"/>
<path d="M1182.33 1263.94C1183.75 1246.01 1203.26 1235.26 1220.69 1239.68C1243.81 1245.54 1269.69 1246.85 1304.95 1246.85C1296.36 1265.28 1293.91 1277.01 1299.82 1302.12C1255.63 1299.25 1223.16 1295.88 1197.3 1287.66C1187.27 1284.47 1181.5 1274.42 1182.33 1263.94V1263.94Z" fill="url(#paint51_radial)" fill-opacity="0.2"/>
<path d="M1368.86 1255.87C1343.25 1271.31 1290.36 1264.89 1270.94 1264.89C1269.02 1245.08 1268.4 1233.09 1275.31 1209.57C1275.31 1209.57 1348.54 1217.06 1373.24 1200.55L1368.86 1255.87Z" fill="url(#paint52_radial)" fill-opacity="0.2"/>
<path d="M1170.99 1214.35C1171.71 1205.18 1177.43 1196.28 1186.6 1197.01C1202.55 1198.27 1223.93 1209.47 1275.27 1209.47C1269.79 1228.15 1268.44 1239.95 1270.89 1264.8C1235.45 1264.8 1217.17 1259.85 1203.19 1256.36C1186.04 1252.08 1169.22 1236.71 1170.61 1219.09L1170.99 1214.35Z" fill="url(#paint53_radial)" fill-opacity="0.2"/>
<path d="M1206.31 1368.88C1207.54 1353.32 1222.15 1342.42 1237.59 1344.7C1342.17 1360.18 1433.87 1341.07 1601.13 1350.39C1575.5 1367.48 1569.45 1378.92 1594.19 1405.53C1578.95 1413.03 1295.1 1418.74 1218.95 1400.2C1209.5 1397.9 1204.73 1388.79 1205.5 1379.09L1206.31 1368.88Z" fill="url(#paint54_radial)" fill-opacity="0.2"/>
<path d="M1380.07 1356.44C1354.99 1377.19 1303.14 1377.11 1284.1 1377.08C1282.2 1357.27 1281.57 1345.28 1288.31 1321.77C1331.06 1321.84 1360.09 1321.89 1384.28 1301.14L1380.07 1356.44Z" fill="url(#paint55_radial)" fill-opacity="0.2"/>
<path d="M1221.93 1300.92C1237.3 1316.25 1259.89 1321.79 1288.31 1321.79C1282.83 1340.46 1281.48 1352.27 1283.93 1377.11C1250.76 1377.11 1236.16 1366.11 1217.56 1356.24L1221.93 1300.92Z" fill="url(#paint56_radial)" fill-opacity="0.2"/>
<path d="M1718.47 1047.97C1631.53 992.98 1608.28 971.627 1570.09 912.412C1551.45 936.959 1437.75 1022.58 1417.24 1016.51C1399.32 1060.46 1440.39 1177.91 1452.44 1284.23C1456.32 1318.52 1667.95 1318.03 1667.95 1284.23C1728 1208.94 1740.94 1090.62 1718.47 1047.97Z" fill="url(#paint57_radial)"/>
<path fill-rule="evenodd" clip-rule="evenodd" d="M1576.13 719.749C1590.56 719.749 1602.26 708.053 1602.26 693.625C1602.26 679.198 1590.56 667.502 1576.13 667.502C1561.7 667.502 1550.01 679.198 1550.01 693.625C1550.01 708.053 1561.7 719.749 1576.13 719.749ZM1555.2 693.625C1555.25 681.707 1564.23 672.046 1576.13 671.417C1588.68 670.754 1599.34 681.064 1599.4 693.625C1599.46 706.241 1588.73 716.7 1576.13 716.035C1564.17 715.403 1555.14 705.601 1555.2 693.625Z" fill="black" fill-opacity="0.1"/>
<path d="M1555.2 693.625C1555.25 681.707 1564.23 672.046 1576.13 671.417C1593.5 678.643 1594.46 709.471 1576.13 716.035C1564.17 715.403 1555.14 705.601 1555.2 693.625Z" fill="url(#paint58_radial)" fill-opacity="0.25"/>
<path d="M1599.4 693.625C1599.46 706.241 1588.73 716.7 1576.13 716.035C1594.46 709.471 1593.5 678.643 1576.13 671.417C1588.68 670.754 1599.34 681.064 1599.4 693.625Z" fill="url(#paint59_linear)" fill-opacity="0.1"/>
<path fill-rule="evenodd" clip-rule="evenodd" d="M1075.32 612.041C1088.9 612.041 1099.92 601.026 1099.92 587.438C1099.92 573.85 1088.9 562.835 1075.32 562.835C1061.73 562.835 1050.71 573.85 1050.71 587.438C1050.71 601.026 1061.73 612.041 1075.32 612.041ZM1055.6 587.438C1055.65 576.213 1064.11 567.114 1075.32 566.522C1087.13 565.897 1097.18 575.608 1097.23 587.438C1097.28 599.319 1087.18 609.17 1075.32 608.543C1064.05 607.947 1055.55 598.716 1055.6 587.438Z" fill="black" fill-opacity="0.1"/>
<path d="M1055.6 587.438C1055.65 576.213 1064.11 567.114 1075.32 566.522C1091.68 573.328 1092.58 602.361 1075.32 608.543C1064.05 607.947 1055.55 598.716 1055.6 587.438Z" fill="url(#paint60_radial)" fill-opacity="0.25"/>
<path d="M1097.23 587.438C1097.28 599.319 1087.18 609.17 1075.32 608.543C1092.58 602.361 1091.68 573.328 1075.32 566.522C1087.13 565.897 1097.18 575.608 1097.23 587.438Z" fill="url(#paint61_linear)" fill-opacity="0.1"/>
<path fill-rule="evenodd" clip-rule="evenodd" d="M1348.59 392.016C1359.9 392.016 1369.06 382.852 1369.06 371.548C1369.06 360.244 1359.9 351.08 1348.59 351.08C1337.29 351.08 1328.12 360.244 1328.12 371.548C1328.12 382.852 1337.29 392.016 1348.59 392.016ZM1332.19 371.548C1332.23 362.21 1339.27 354.64 1348.59 354.147C1358.42 353.628 1366.78 361.706 1366.82 371.548C1366.87 381.432 1358.46 389.627 1348.59 389.106C1339.22 388.611 1332.15 380.931 1332.19 371.548Z" fill="black" fill-opacity="0.1"/>
<path d="M1332.19 371.548C1332.23 362.21 1339.27 354.64 1348.59 354.147C1362.2 359.809 1362.95 383.963 1348.59 389.106C1339.22 388.61 1332.15 380.931 1332.19 371.548Z" fill="url(#paint62_radial)" fill-opacity="0.25"/>
<path d="M1366.82 371.548C1366.87 381.432 1358.46 389.627 1348.59 389.106C1362.95 383.963 1362.2 359.809 1348.59 354.147C1358.42 353.628 1366.78 361.706 1366.82 371.548Z" fill="url(#paint63_linear)" fill-opacity="0.1"/>
<path fill-rule="evenodd" clip-rule="evenodd" d="M362.856 498.162C382.407 498.162 398.256 482.313 398.256 462.763C398.256 443.212 382.407 427.363 362.856 427.363C343.305 427.363 327.457 443.212 327.457 462.763C327.457 482.313 343.305 498.162 362.856 498.162ZM334.489 462.763C334.562 446.612 346.728 433.521 362.856 432.669C379.854 431.77 394.308 445.742 394.385 462.763C394.461 479.857 379.927 494.031 362.856 493.129C346.651 492.273 334.416 478.991 334.489 462.763Z" fill="black" fill-opacity="0.1"/>
<path d="M334.489 462.763C334.562 446.612 346.728 433.521 362.856 432.669C386.397 442.461 387.694 484.235 362.856 493.129C346.651 492.273 334.416 478.991 334.489 462.763Z" fill="url(#paint64_radial)" fill-opacity="0.25"/>
<path d="M394.385 462.763C394.462 479.858 379.927 494.032 362.856 493.129C387.694 484.235 386.397 442.461 362.856 432.669C379.854 431.77 394.308 445.742 394.385 462.763Z" fill="url(#paint65_linear)" fill-opacity="0.1"/>
<path fill-rule="evenodd" clip-rule="evenodd" d="M703.935 1628.49C720.585 1628.49 734.083 1614.99 734.083 1598.34C734.083 1581.69 720.585 1568.2 703.935 1568.2C687.285 1568.2 673.787 1581.69 673.787 1598.34C673.787 1614.99 687.285 1628.49 703.935 1628.49ZM679.776 1598.34C679.838 1584.59 690.199 1573.44 703.935 1572.71C718.411 1571.95 730.721 1583.85 730.786 1598.34C730.852 1612.9 718.473 1624.97 703.935 1624.21C690.133 1623.48 679.714 1612.16 679.776 1598.34Z" fill="black" fill-opacity="0.1"/>
<path d="M679.776 1598.34C679.838 1584.59 690.199 1573.44 703.935 1572.71C723.983 1581.05 725.088 1616.63 703.935 1624.21C690.134 1623.48 679.714 1612.16 679.776 1598.34Z" fill="url(#paint66_radial)" fill-opacity="0.25"/>
<path d="M730.787 1598.34C730.852 1612.9 718.474 1624.97 703.935 1624.21C725.088 1616.63 723.983 1581.05 703.935 1572.71C718.411 1571.95 730.721 1583.85 730.787 1598.34Z" fill="url(#paint67_linear)" fill-opacity="0.1"/>
<path d="M1991.7 669.86C1998.82 670.319 2001.15 677.947 1998.04 682.395C1982.16 703.364 1973.14 715.056 1957.44 736.116C1954.12 740.182 1951.12 741.969 1948.78 740.382C1951.76 739.101 1953.22 738.012 1954.61 736.019L1995.52 681.167C1998.86 675.659 1994.19 670.724 1991.7 669.86Z" fill="black" fill-opacity="0.2"/>
<path d="M1948.78 740.383C1946.07 738.343 1947.63 734.814 1949.78 731.151L1984.82 673.291C1989.49 669.375 1992.44 673.291 1990.8 678.003C1989.86 680.707 1948.78 740.383 1948.78 740.383Z" fill="white" fill-opacity="0.1"/>
<path d="M2018.8 734.578C2020.61 734.147 2023.52 734.793 2024.85 736.882C2027.13 740.479 2025.83 744.441 2021.82 745.985L1977.78 761.625C1973.71 763.264 1969.46 763.144 1969.22 759.907C1972.42 760.442 1974.15 760.27 1976.4 759.349L2020.07 743.747C2023.14 742.06 2023.85 740.427 2023.52 737.982C2023.2 735.538 2020.49 734.578 2018.8 734.578Z" fill="black" fill-opacity="0.2"/>
<path d="M1969.21 759.905C1968.96 757.346 1972.15 755.67 1975.99 754.15L2017.94 734.823C2021.28 733.533 2022.22 739.212 2019.25 740.448C2016.28 741.684 1969.21 759.905 1969.21 759.905Z" fill="white" fill-opacity="0.1"/>
<path d="M2047.59 808.825C2049.75 815.763 2042.85 819.671 2038.5 818.337L1983.37 800.057C1979.39 798.966 1976.8 796.89 1977.57 794.07C1979.76 796.467 1981.03 797.23 1983.37 797.895L2038.5 815.492C2044.8 816.84 2047.59 811.457 2047.59 808.825Z" fill="black" fill-opacity="0.2"/>
<path d="M1977.58 794.07C1978.35 791.25 1982.27 790.937 1986.26 792.028L2042.96 804.012C2046.48 805.673 2044.4 810.828 2039.87 810.828C2037.01 810.828 1977.58 794.07 1977.58 794.07Z" fill="white" fill-opacity="0.1"/>
<path d="M441.073 1276.12L456.369 1386.15C456.369 1423.53 442.146 1453.77 426.071 1463.32L226.705 1540.78C205.525 1551.66 185.588 1536.76 180.021 1494.97L76.8633 713.767C71.1658 686.085 84.5671 656.295 100.415 648.827C181.08 610.817 247.757 588.159 296.083 570.512C323.466 558.178 343.864 575.774 348.278 608.6L387.392 889.97" stroke="black" stroke-linecap="round" stroke-linejoin="round"/>
<path d="M386.954 890.246L349.055 619.414C344.757 587.433 324.43 570.352 297.017 582.469C248.653 599.836 190.827 617.669 110.069 654.997C81.768 666.559 80.1263 707.786 88.1818 764.379L180.705 1470.36C186.125 1511.08 203.116 1539.13 224.324 1528.46L423.863 1452.27C439.963 1442.9 456.402 1423.9 456.531 1387.46L440.945 1276.08" stroke="black" stroke-linecap="round" stroke-linejoin="round"/>
<path d="M18.6524 712.697L121.81 1493.9C129.004 1530.41 137.389 1549 167.745 1546.44L210.62 1543.99C197.176 1542.15 188.043 1528.31 183.584 1512.27C174.914 1481.09 102.188 904.436 77.4781 717.587C72.2541 692.684 78.9927 676.906 83.005 668.198C87.0174 659.49 95.3585 650.167 102.188 648.106C164.317 618.492 253.976 585.416 296.116 570.434C300.292 568.577 304.422 567.487 308.092 566.951C274.174 566.951 254.141 567.03 252.835 567.269C251.529 567.508 130.048 614.418 48.6232 645.617C24.5656 654.835 15.9342 690.494 18.6524 712.697Z" stroke="black" stroke-linecap="round" stroke-linejoin="round"/>
<path fill-rule="evenodd" clip-rule="evenodd" d="M81.3159 964.736C84.8269 964.244 88.0719 966.691 88.5639 970.202L97.6332 1034.92C98.1252 1038.44 95.6778 1041.68 92.1669 1042.17C88.6559 1042.66 85.4108 1040.22 84.9189 1036.71L75.8495 971.984C75.3575 968.473 77.8049 965.228 81.3159 964.736Z" stroke="black" stroke-linecap="round" stroke-linejoin="round"/>
<path d="M1667.8 1391.02L1650.3 1508.84C1642.11 1552.08 1653.2 1574.75 1667.77 1589.63L1754.73 1681.49C1764.69 1690.83 1774.77 1688.76 1780.41 1646.97L1895.74 868.897C1900.49 841.085 1906.75 815.916 1888.15 796.09C1854 759.688 1819.89 719.811 1802.91 706.256C1789.93 695.888 1765.82 728.013 1761.37 760.833L1718.68 1048.37" stroke="black" stroke-linecap="round" stroke-linejoin="round"/>
<path d="M1667.67 1391.1C1658.28 1454.72 1652.13 1496.39 1652.13 1496.39C1648.77 1520.88 1641.04 1546.39 1658.62 1566.61C1690.97 1603.82 1736.14 1653.41 1753.16 1666.63C1766.18 1676.73 1776.88 1644.89 1785.47 1601.32L1893.38 876.464C1901.38 834.569 1890.21 812.541 1875.59 798.059L1802.44 720.181C1792.45 711.083 1768.49 721.411 1762.75 753.292C1760.35 766.627 1740.6 898.813 1718.44 1048.09" stroke="black" stroke-linecap="round" stroke-linejoin="round"/>
<path d="M1783.07 1628.53C1779.6 1653.77 1775.55 1686.95 1763.12 1686C1800.98 1688.92 1807.97 1691.67 1819.2 1687.78C1830.42 1683.9 1838.17 1665.23 1846.87 1620.3L1957.55 873.269C1965.67 830.078 1954.97 807.49 1940.86 792.698L1870.31 713.104C1860.66 703.817 1813.88 704.281 1797.49 704.281C1804.05 702.667 1823.58 725.941 1846.86 751.074C1865.99 771.734 1884.63 792.241 1890.34 798.618C1903.7 815.957 1902.56 835.628 1895.69 869.641L1783.07 1628.53Z" stroke="black" stroke-linecap="round" stroke-linejoin="round"/>
<path fill-rule="evenodd" clip-rule="evenodd" d="M1894.81 1101.36C1888.46 1100.68 1882.67 1104.7 1881.88 1110.35L1867.3 1214.38C1866.5 1220.02 1871.01 1225.15 1877.36 1225.83C1883.71 1226.51 1889.5 1222.48 1890.3 1216.84L1904.88 1112.81C1905.67 1107.16 1901.16 1102.04 1894.81 1101.36Z" stroke="black" stroke-linecap="round" stroke-linejoin="round"/>
<path d="M864.379 1242.96C895.106 1226.26 901.589 1207.51 900.451 1162.97C891.125 1132.86 873.718 1121.83 830.232 1108.16C802.964 1101.26 788.289 1097.95 765.505 1095.11C760.876 1091.64 758.914 1089.77 759.321 1086.87C801.756 1090.86 825.361 1094.97 867.188 1105.47C894.549 1112.33 897.801 1120.75 932.28 1125.92C966.882 1128.68 982.556 1120.06 993.544 1093.38C998.35 1075.7 990.45 1047.9 954.598 1025.96C891.776 1000.25 848.561 992.927 767.226 983.651C762.521 981.395 760.487 979.816 759.321 975.747C791.182 977.695 808.638 979.819 839.756 983.651C889.894 989.825 910.125 996.741 963.432 1005.04C1008.75 1008.53 1025.34 1000.95 1035.5 966.448C1037.22 939.017 1029.82 926.145 993.544 910.135C930.679 889.97 880.147 880.932 761.706 870.988L623.594 864.596C606.392 861.015 597.281 858.891 587.317 853.72C599.941 842.454 608.017 838.297 623.594 833.43C658.824 829.899 679.419 838.315 712.244 836.093C744.052 829.747 757.97 822.683 761.706 791.197C756.258 752.996 734.467 736.173 655.156 716.134C606.422 703.822 533.873 733.86 494.81 780.273C456.375 828.609 440.208 858.477 386.131 890.733C347.666 919.321 323.74 918.794 276.511 922.505C250.534 930.551 241.293 943.757 231.127 975.747C223.812 1017.51 224.901 1042 231.127 1086.87C237.242 1130.49 246.616 1152.99 277.452 1188.46C293.486 1197.01 306.821 1191.72 321.733 1202.18C390.617 1269.24 437.206 1279.05 521.62 1291.96L703.58 1306.64M864.379 1242.96C883.162 1267.32 879.75 1299.4 864.379 1319.22C845.283 1343.85 804.217 1351.18 746.055 1349.11C721.245 1344.75 711.943 1335.46 703.58 1306.64M864.379 1242.96C844.877 1253.56 825.249 1243.64 812.525 1226.48C798.352 1207.36 803.075 1157.66 830.232 1140.61M703.58 1306.64C702.798 1286.03 711.542 1272.3 732.872 1260.57C754.129 1251.14 769.78 1246.47 788.263 1243.59M756.047 1199.78C756.76 1202.6 758.484 1203.76 762.36 1205.58C776.05 1207.12 793.279 1210.93 797.712 1212.06C802.145 1213.2 803.396 1210.17 797.712 1208.12C792.028 1206.07 771.469 1200.06 756.047 1199.78Z" stroke="black"/>
<path d="M1185.6 1083.54C1225.77 1089.45 1249.26 1092.15 1297.88 1092.62C1297.17 1090.39 1295.96 1089.01 1289.67 1085.88C1247.54 1086.16 1225.37 1085.22 1186.13 1083.56M1185.6 1083.54L1186.13 1083.56M1185.6 1083.54C1185.78 1083.54 1185.95 1083.55 1186.13 1083.56M1258.89 1196.7C1259.91 1200.56 1277.38 1201.52 1301.4 1203.74C1301.06 1201.69 1300.23 1200.38 1293.48 1196.7M1258.89 1196.7C1272.4 1196.7 1279.97 1196.7 1293.48 1196.7M1258.89 1196.7H1293.48M1471.68 974.052C1471.68 956.541 1414.27 926.3 1414.27 926.3C1350.37 902.335 1308.77 919.798 1290.49 871.818C1278.13 829.173 1314.44 799.421 1404.13 801.934C1439.64 802.93 1509.14 836.597 1551.1 884.488C1575.66 919.142 1600.37 960.346 1622.06 978.248C1660.63 1010.09 1682.93 1027.25 1725.95 1053L1768.94 1058.23C1815.21 1065.76 1781.45 1299.3 1749.77 1331.72C1713.86 1343.1 1704.62 1367.5 1669.72 1389.81C1608.31 1429.07 1298.15 1427.27 1246.4 1413.99C1202.31 1402.68 1193.66 1387.18 1188.62 1359.42C1186.24 1326.93 1192.19 1312.57 1217.85 1297.5C1186.25 1288.88 1171.68 1280.37 1159.98 1248.56C1157.5 1221.38 1160.17 1208.3 1171.89 1188.72C1136.42 1181.34 1112.58 1180.01 1084.62 1156.4C1056.66 1132.8 1052.81 1089.65 1093.4 1074.39C1041.51 1060.48 1018.25 1048.01 1017.57 1011.92C1026.58 982.142 1038.9 969.652 1096.82 968.16C1248.65 983.21 1471.68 991.564 1471.68 974.052ZM1282.92 1307.38L1286.76 1313.85C1294.72 1314.36 1299.07 1314.51 1307.08 1314.76C1304.48 1311.38 1301.58 1309.55 1297.35 1308.45C1293.78 1308.17 1289.13 1307.85 1282.92 1307.38Z" stroke="black"/>
<circle cx="703.935" cy="1598.26" r="29.6481" stroke="black"/>
<circle cx="1576.13" cy="693.546" r="25.6236" stroke="black"/>
<circle cx="362.856" cy="462.683" r="34.8996" stroke="black"/>
<circle cx="1075.32" cy="587.358" r="24.103" stroke="black"/>
<circle cx="1348.59" cy="371.468" r="19.9681" stroke="black"/>
<path fill-rule="evenodd" clip-rule="evenodd" d="M1995.92 671.168C1999.59 673.663 2000.53 678.654 1998.04 682.317C1998.04 682.317 1961.5 730.263 1959.01 733.926C1956.51 737.589 1952.1 742.559 1948.82 740.325C1945.54 738.092 1948.49 732.839 1950.99 729.176C1953.48 725.513 1984.78 673.283 1984.78 673.283C1987.27 669.62 1992.26 668.674 1995.92 671.168Z" stroke="black" stroke-linecap="round" stroke-linejoin="round"/>
<path fill-rule="evenodd" clip-rule="evenodd" d="M2025.54 738.042C2026.75 741.055 2025.3 744.485 2022.28 745.701L1977.33 761.709C1974.32 762.926 1970.4 763.126 1969.45 760.763C1968.49 758.401 1970.58 756.352 1973.59 755.135L2017.88 734.788C2020.89 733.572 2024.32 735.028 2025.54 738.042Z" stroke="black" stroke-linecap="round" stroke-linejoin="round"/>
<path fill-rule="evenodd" clip-rule="evenodd" d="M1977.58 793.99C1978.35 791.17 1982.27 790.857 1986.26 791.948L2042.46 803.809C2046.45 804.9 2048.8 809.018 2047.71 813.008C2046.62 816.998 2042.5 819.348 2038.51 818.257L1983.38 799.977C1979.39 798.886 1976.81 796.809 1977.58 793.99Z" stroke="black" stroke-linecap="round" stroke-linejoin="round"/>
</g>
<defs>
<radialGradient id="paint0_radial" cx="0" cy="0" r="1" gradientUnits="userSpaceOnUse" gradientTransform="translate(279.992 575.126) rotate(157.913) scale(271.571 73.2244)">
<stop stop-opacity="0.2"/>
<stop offset="0.630208" stop-opacity="0.15"/>
<stop offset="1" stop-opacity="0"/>
</radialGradient>
<linearGradient id="paint1_linear" x1="168.088" y1="1507.52" x2="157.94" y2="1547.46" gradientUnits="userSpaceOnUse">
<stop stop-opacity="0"/>
<stop offset="1" stop-opacity="0.2"/>
</linearGradient>
<linearGradient id="paint2_linear" x1="79.994" y1="1001.73" x2="92.7307" y2="999.809" gradientUnits="userSpaceOnUse">
<stop stop-opacity="0.2"/>
<stop offset="0.453125" stop-color="#CFCFCF" stop-opacity="0"/>
<stop offset="0.59375" stop-color="#D1D1D1" stop-opacity="0"/>
<stop offset="1" stop-color="white" stop-opacity="0.2"/>
</linearGradient>
<linearGradient id="paint3_linear" x1="1799.82" y1="1691.09" x2="1810.31" y2="1628.62" gradientUnits="userSpaceOnUse">
<stop stop-opacity="0.2"/>
<stop offset="1" stop-color="#C4C4C4" stop-opacity="0"/>
</linearGradient>
<radialGradient id="paint4_radial" cx="0" cy="0" r="1" gradientUnits="userSpaceOnUse" gradientTransform="translate(1869.42 713.433) rotate(73.3579) scale(161.316 149.824)">
<stop stop-opacity="0.2"/>
<stop offset="0.661458" stop-opacity="0.15"/>
<stop offset="1" stop-opacity="0"/>
</radialGradient>
<linearGradient id="paint5_linear" x1="1874.96" y1="1159.51" x2="1898.4" y2="1162.59" gradientUnits="userSpaceOnUse">
<stop stop-color="white" stop-opacity="0.2"/>
<stop offset="0.40625" stop-color="#CFCFCF" stop-opacity="0"/>
<stop offset="0.541667" stop-color="#CFCFCF" stop-opacity="0"/>
<stop offset="1" stop-opacity="0.2"/>
</linearGradient>
<radialGradient id="paint6_radial" cx="0" cy="0" r="1" gradientUnits="userSpaceOnUse" gradientTransform="translate(293.822 1201.09) rotate(114.656) scale(28.8017 47.2424)">
<stop stop-color="white" stop-opacity="0.6"/>
<stop offset="1" stop-color="white" stop-opacity="0"/>
</radialGradient>
<radialGradient id="paint7_radial" cx="0" cy="0" r="1" gradientUnits="userSpaceOnUse" gradientTransform="translate(413.6 1232.14) rotate(122.606) scale(26.0301 831.117)">
<stop offset="0.492465" stop-color="white" stop-opacity="0"/>
<stop offset="0.952564" stop-color="white" stop-opacity="0.2"/>
</radialGradient>
<radialGradient id="paint8_radial" cx="0" cy="0" r="1" gradientUnits="userSpaceOnUse" gradientTransform="translate(344.768 916.336) rotate(-37.9694) scale(169.018 42.2287)">
<stop stop-color="white" stop-opacity="0.6"/>
<stop offset="1" stop-color="white" stop-opacity="0"/>
</radialGradient>
<radialGradient id="paint9_radial" cx="0" cy="0" r="1" gradientUnits="userSpaceOnUse" gradientTransform="translate(344.231 913.185) rotate(153.378) scale(195.8 47.9735)">
<stop stop-color="white" stop-opacity="0.6"/>
<stop offset="1" stop-color="white" stop-opacity="0"/>
</radialGradient>
<radialGradient id="paint10_radial" cx="0" cy="0" r="1" gradientUnits="userSpaceOnUse" gradientTransform="translate(630.68 859.229) rotate(-94.7636) scale(61.9185 103.741)">
<stop stop-color="white"/>
<stop offset="1" stop-color="white" stop-opacity="0"/>
</radialGradient>
<radialGradient id="paint11_radial" cx="0" cy="0" r="1" gradientUnits="userSpaceOnUse" gradientTransform="translate(770.055 1235.15) rotate(-161.259) scale(74.2838 38.7138)">
<stop/>
<stop offset="1" stop-opacity="0"/>
</radialGradient>
<linearGradient id="paint12_linear" x1="565.56" y1="1277.31" x2="564.034" y2="1300.81" gradientUnits="userSpaceOnUse">
<stop stop-opacity="0"/>
<stop offset="1" stop-opacity="0.2"/>
</linearGradient>
<linearGradient id="paint13_linear" x1="747.55" y1="1283.32" x2="742.574" y2="1349.31" gradientUnits="userSpaceOnUse">
<stop stop-opacity="0"/>
<stop offset="1" stop-opacity="0.2"/>
</linearGradient>
<radialGradient id="paint14_radial" cx="0" cy="0" r="1" gradientUnits="userSpaceOnUse" gradientTransform="translate(787.248 1273.13) rotate(165.733) scale(84.8984 34.5957)">
<stop stop-color="white" stop-opacity="0.2"/>
<stop offset="0.95111" stop-color="white" stop-opacity="0"/>
</radialGradient>
<radialGradient id="paint15_radial" cx="0" cy="0" r="1" gradientUnits="userSpaceOnUse" gradientTransform="translate(721.614 1286.79) rotate(134.71) scale(36.2069 20.903)">
<stop stop-opacity="0.2"/>
<stop offset="1" stop-opacity="0"/>
</radialGradient>
<radialGradient id="paint16_radial" cx="0" cy="0" r="1" gradientUnits="userSpaceOnUse" gradientTransform="translate(847.125 1277.38) rotate(73.814) scale(65.2834 25.1887)">
<stop offset="0.613629" stop-color="white" stop-opacity="0"/>
<stop offset="0.963261" stop-color="white" stop-opacity="0.2"/>
</radialGradient>
<radialGradient id="paint17_radial" cx="0" cy="0" r="1" gradientUnits="userSpaceOnUse" gradientTransform="translate(770.273 1207.25) rotate(4.61874) scale(30.9947 8.7747)">
<stop offset="0.135417" stop-color="white" stop-opacity="0.2"/>
<stop offset="1" stop-color="white" stop-opacity="0"/>
</radialGradient>
<radialGradient id="paint18_radial" cx="0" cy="0" r="1" gradientUnits="userSpaceOnUse" gradientTransform="translate(765.645 1182.51) rotate(13.253) scale(167.968 47.3477)">
<stop stop-color="white"/>
<stop offset="1" stop-color="white" stop-opacity="0"/>
</radialGradient>
<radialGradient id="paint19_radial" cx="0" cy="0" r="1" gradientUnits="userSpaceOnUse" gradientTransform="translate(757.28 1185.92) rotate(-145.377) scale(41.8435 92.4375)">
<stop stop-color="white" stop-opacity="0.2"/>
<stop offset="1" stop-color="#C4C4C4" stop-opacity="0"/>
</radialGradient>
<radialGradient id="paint20_radial" cx="0" cy="0" r="1" gradientUnits="userSpaceOnUse" gradientTransform="translate(825.861 1140.57) rotate(-161.259) scale(74.2837 38.7138)">
<stop/>
<stop offset="1" stop-opacity="0"/>
</radialGradient>
<radialGradient id="paint21_radial" cx="0" cy="0" r="1" gradientUnits="userSpaceOnUse" gradientTransform="translate(845.196 1220.59) rotate(99.511) scale(27.2968 69.6162)">
<stop offset="0.500018" stop-opacity="0"/>
<stop offset="1" stop-opacity="0.2"/>
</radialGradient>
<radialGradient id="paint22_radial" cx="0" cy="0" r="1" gradientUnits="userSpaceOnUse" gradientTransform="translate(838.186 1187.9) rotate(96.2743) scale(56.3335 52.7316)">
<stop stop-opacity="0.2"/>
<stop offset="1" stop-opacity="0"/>
</radialGradient>
<radialGradient id="paint23_radial" cx="0" cy="0" r="1" gradientUnits="userSpaceOnUse" gradientTransform="translate(797.614 1128.88) rotate(13.815) scale(100.822 25.5622)">
<stop offset="0.879059" stop-color="white" stop-opacity="0"/>
<stop offset="1" stop-color="white"/>
</radialGradient>
<radialGradient id="paint24_radial" cx="0" cy="0" r="1" gradientUnits="userSpaceOnUse" gradientTransform="translate(855.958 1177.41) rotate(86.6011) scale(71.7931 42.0764)">
<stop offset="0.810362" stop-color="white" stop-opacity="0"/>
<stop offset="1" stop-color="white"/>
</radialGradient>
<radialGradient id="paint25_radial" cx="0" cy="0" r="1" gradientUnits="userSpaceOnUse" gradientTransform="translate(759.336 1071.07) rotate(13.253) scale(167.968 47.3477)">
<stop stop-color="white"/>
<stop offset="1" stop-color="white" stop-opacity="0"/>
</radialGradient>
<radialGradient id="paint26_radial" cx="0" cy="0" r="1" gradientUnits="userSpaceOnUse" gradientTransform="translate(750.852 1074.49) rotate(-164.331) scale(35.7186 67.8822)">
<stop stop-color="white" stop-opacity="0.2"/>
<stop offset="1" stop-color="#C4C4C4" stop-opacity="0"/>
</radialGradient>
<radialGradient id="paint27_radial" cx="0" cy="0" r="1" gradientUnits="userSpaceOnUse" gradientTransform="translate(927.076 1011.89) rotate(-174.806) scale(182.546 27.9323)">
<stop/>
<stop offset="1" stop-opacity="0"/>
</radialGradient>
<radialGradient id="paint28_radial" cx="0" cy="0" r="1" gradientUnits="userSpaceOnUse" gradientTransform="translate(782.276 954.378) rotate(2.94797) scale(193.751 29.6469)">
<stop stop-color="white"/>
<stop offset="1" stop-color="white" stop-opacity="0"/>
</radialGradient>
<radialGradient id="paint29_radial" cx="0" cy="0" r="1" gradientUnits="userSpaceOnUse" gradientTransform="translate(947.632 901.708) rotate(-174.806) scale(182.546 27.9323)">
<stop/>
<stop offset="1" stop-opacity="0"/>
</radialGradient>
<radialGradient id="paint30_radial" cx="0" cy="0" r="1" gradientUnits="userSpaceOnUse" gradientTransform="translate(631.463 889.935) rotate(-166.399) scale(143.963 42.8243)">
<stop stop-color="white" stop-opacity="0.2"/>
<stop offset="1" stop-color="white" stop-opacity="0"/>
</radialGradient>
<linearGradient id="paint31_linear" x1="586.072" y1="853.503" x2="585.543" y2="878.475" gradientUnits="userSpaceOnUse">
<stop stop-color="white"/>
<stop offset="1" stop-color="white" stop-opacity="0"/>
</linearGradient>
<radialGradient id="paint32_radial" cx="0" cy="0" r="1" gradientUnits="userSpaceOnUse" gradientTransform="translate(772.609 951.796) rotate(-172.774) scale(53.4616 33.0937)">
<stop stop-color="white" stop-opacity="0.2"/>
<stop offset="1" stop-color="#C4C4C4" stop-opacity="0"/>
</radialGradient>
<radialGradient id="paint33_radial" cx="0" cy="0" r="1" gradientUnits="userSpaceOnUse" gradientTransform="translate(716.798 782.15) rotate(-158.491) scale(52.7052 11.1288)">
<stop stop-color="white" stop-opacity="0.2"/>
<stop offset="1" stop-color="white" stop-opacity="0"/>
</radialGradient>
<radialGradient id="paint34_radial" cx="0" cy="0" r="1" gradientUnits="userSpaceOnUse" gradientTransform="translate(590.243 721.856) rotate(76.0948) scale(55.3457 352.205)">
<stop/>
<stop offset="1" stop-opacity="0"/>
</radialGradient>
<radialGradient id="paint35_radial" cx="0" cy="0" r="1" gradientUnits="userSpaceOnUse" gradientTransform="translate(1791.42 1147.76) rotate(-162.094) scale(89.0008 22.8769)">
<stop stop-color="white" stop-opacity="0.2"/>
<stop offset="1" stop-color="white" stop-opacity="0"/>
</radialGradient>
<radialGradient id="paint36_radial" cx="0" cy="0" r="1" gradientUnits="userSpaceOnUse" gradientTransform="translate(1068.35 1109.07) rotate(18.3085) scale(45.963 26.0338)">
<stop stop-color="white"/>
<stop offset="1" stop-color="white" stop-opacity="0"/>
</radialGradient>
<radialGradient id="paint37_radial" cx="0" cy="0" r="1" gradientUnits="userSpaceOnUse" gradientTransform="translate(1157.14 1231.87) rotate(8.16078) scale(42.9388 25.2064)">
<stop stop-color="white"/>
<stop offset="1" stop-color="white" stop-opacity="0"/>
</radialGradient>
<radialGradient id="paint38_radial" cx="0" cy="0" r="1" gradientUnits="userSpaceOnUse" gradientTransform="translate(1189.83 1336.41) rotate(19.4101) scale(48.1966 35.0192)">
<stop stop-color="white"/>
<stop offset="0.921916" stop-color="white" stop-opacity="0"/>
</radialGradient>
<linearGradient id="paint39_linear" x1="1722.55" y1="1360.39" x2="1651.45" y2="1306.36" gradientUnits="userSpaceOnUse">
<stop stop-color="white"/>
<stop offset="1" stop-color="white" stop-opacity="0"/>
</linearGradient>
<radialGradient id="paint40_radial" cx="0" cy="0" r="1" gradientUnits="userSpaceOnUse" gradientTransform="translate(1504.2 919.036) rotate(-151.264) scale(159.431 562.086)">
<stop stop-color="white" stop-opacity="0.2"/>
<stop offset="1" stop-color="white" stop-opacity="0"/>
</radialGradient>
<radialGradient id="paint41_radial" cx="0" cy="0" r="1" gradientUnits="userSpaceOnUse" gradientTransform="translate(1305.18 1016.24) rotate(-178.394) scale(220.853 33.794)">
<stop stop-color="white"/>
<stop offset="1" stop-color="white" stop-opacity="0"/>
</radialGradient>
<radialGradient id="paint42_radial" cx="0" cy="0" r="1" gradientUnits="userSpaceOnUse" gradientTransform="translate(1083.42 1061.22) rotate(3.2991) scale(185.056 28.3163)">
<stop/>
<stop offset="1" stop-opacity="0"/>
</radialGradient>
<radialGradient id="paint43_radial" cx="0" cy="0" r="1" gradientUnits="userSpaceOnUse" gradientTransform="translate(1295.44 1016.87) rotate(-1.42167) scale(77.3069 36.128)">
<stop stop-color="white"/>
<stop offset="1" stop-color="white" stop-opacity="0"/>
</radialGradient>
<radialGradient id="paint44_radial" cx="0" cy="0" r="1" gradientUnits="userSpaceOnUse" gradientTransform="translate(1123.58 1159.2) rotate(6.23902) scale(204.43 31.2808)">
<stop/>
<stop offset="1" stop-opacity="0"/>
</radialGradient>
<radialGradient id="paint45_radial" cx="0" cy="0" r="1" gradientUnits="userSpaceOnUse" gradientTransform="translate(1275.83 1115.85) rotate(-1.42167) scale(77.3069 36.128)">
<stop stop-color="white"/>
<stop offset="1" stop-color="white" stop-opacity="0"/>
</radialGradient>
<radialGradient id="paint46_radial" cx="0" cy="0" r="1" gradientUnits="userSpaceOnUse" gradientTransform="translate(1286.3 1115.26) rotate(-178.671) scale(201.703 33.7852)">
<stop stop-color="white"/>
<stop offset="1" stop-color="white" stop-opacity="0"/>
</radialGradient>
<radialGradient id="paint47_radial" cx="0" cy="0" r="1" gradientUnits="userSpaceOnUse" gradientTransform="translate(1566.81 933.037) rotate(42.9425) scale(227.406 38.0904)">
<stop stop-color="white"/>
<stop offset="1" stop-color="white" stop-opacity="0"/>
</radialGradient>
<radialGradient id="paint48_radial" cx="0" cy="0" r="1" gradientUnits="userSpaceOnUse" gradientTransform="translate(1544.67 907.508) rotate(-134.953) scale(142.572 36.8966)">
<stop stop-color="white"/>
<stop offset="1" stop-color="white" stop-opacity="0"/>
</radialGradient>
<radialGradient id="paint49_radial" cx="0" cy="0" r="1" gradientUnits="userSpaceOnUse" gradientTransform="translate(1770.18 1066.92) rotate(-175.727) scale(92.2489 48.4624)">
<stop stop-color="white"/>
<stop offset="1" stop-color="white" stop-opacity="0"/>
</radialGradient>
<radialGradient id="paint50_radial" cx="0" cy="0" r="1" gradientUnits="userSpaceOnUse" gradientTransform="translate(1342.56 891.848) rotate(17.3348) scale(166.149 31.7706)">
<stop/>
<stop offset="1" stop-opacity="0"/>
</radialGradient>
<radialGradient id="paint51_radial" cx="0" cy="0" r="1" gradientUnits="userSpaceOnUse" gradientTransform="translate(1216.97 1285.53) rotate(5.58724) scale(78.4309 24.5808)">
<stop/>
<stop offset="1" stop-opacity="0"/>
</radialGradient>
<radialGradient id="paint52_radial" cx="0" cy="0" r="1" gradientUnits="userSpaceOnUse" gradientTransform="translate(1282.89 1223.39) rotate(-1.42167) scale(77.3069 36.128)">
<stop stop-color="white"/>
<stop offset="1" stop-color="white" stop-opacity="0"/>
</radialGradient>
<radialGradient id="paint53_radial" cx="0" cy="0" r="1" gradientUnits="userSpaceOnUse" gradientTransform="translate(1292.62 1222.92) rotate(179.328) scale(124.068 33.6988)">
<stop stop-color="white"/>
<stop offset="1" stop-color="white" stop-opacity="0"/>
</radialGradient>
<radialGradient id="paint54_radial" cx="0" cy="0" r="1" gradientUnits="userSpaceOnUse" gradientTransform="translate(1286.66 1402.9) rotate(-1.66834) scale(333.631 30.7684)">
<stop/>
<stop offset="1" stop-opacity="0"/>
</radialGradient>
<radialGradient id="paint55_radial" cx="0" cy="0" r="1" gradientUnits="userSpaceOnUse" gradientTransform="translate(1295.76 1335.6) rotate(-1.35919) scale(75.7807 36.1259)">
<stop stop-color="white"/>
<stop offset="1" stop-color="white" stop-opacity="0"/>
</radialGradient>
<radialGradient id="paint56_radial" cx="0" cy="0" r="1" gradientUnits="userSpaceOnUse" gradientTransform="translate(1285.23 1329.81) rotate(-170.747) scale(69.8418 42.6147)">
<stop stop-color="white"/>
<stop offset="1" stop-color="white" stop-opacity="0"/>
</radialGradient>
<radialGradient id="paint57_radial" cx="0" cy="0" r="1" gradientUnits="userSpaceOnUse" gradientTransform="translate(1606.21 1102.58) rotate(68.5426) scale(189.409 163.718)">
<stop stop-color="white" stop-opacity="0.2"/>
<stop offset="1" stop-color="white" stop-opacity="0"/>
</radialGradient>
<radialGradient id="paint58_radial" cx="0" cy="0" r="1" gradientUnits="userSpaceOnUse" gradientTransform="translate(1573.46 693.726) rotate(-180) scale(12.3152 21.2742)">
<stop stop-color="white"/>
<stop offset="1" stop-color="white" stop-opacity="0"/>
</radialGradient>
<linearGradient id="paint59_linear" x1="1599.4" y1="692.014" x2="1589.97" y2="692.171" gradientUnits="userSpaceOnUse">
<stop/>
<stop offset="1" stop-opacity="0"/>
</linearGradient>
<radialGradient id="paint60_radial" cx="0" cy="0" r="1" gradientUnits="userSpaceOnUse" gradientTransform="translate(1072.8 587.532) rotate(-180) scale(11.5984 20.036)">
<stop stop-color="white"/>
<stop offset="1" stop-color="white" stop-opacity="0"/>
</radialGradient>
<linearGradient id="paint61_linear" x1="1097.23" y1="585.92" x2="1088.35" y2="586.068" gradientUnits="userSpaceOnUse">
<stop/>
<stop offset="1" stop-opacity="0"/>
</linearGradient>
<radialGradient id="paint62_radial" cx="0" cy="0" r="1" gradientUnits="userSpaceOnUse" gradientTransform="translate(1346.5 371.626) rotate(-180) scale(9.64912 16.6686)">
<stop stop-color="white"/>
<stop offset="1" stop-color="white" stop-opacity="0"/>
</radialGradient>
<linearGradient id="paint63_linear" x1="1366.82" y1="370.285" x2="1359.43" y2="370.409" gradientUnits="userSpaceOnUse">
<stop/>
<stop offset="1" stop-opacity="0"/>
</linearGradient>
<radialGradient id="paint64_radial" cx="0" cy="0" r="1" gradientUnits="userSpaceOnUse" gradientTransform="translate(359.241 462.899) rotate(-180) scale(16.6881 28.8283)">
<stop stop-color="white"/>
<stop offset="1" stop-color="white" stop-opacity="0"/>
</radialGradient>
<linearGradient id="paint65_linear" x1="394.385" y1="460.58" x2="381.607" y2="460.793" gradientUnits="userSpaceOnUse">
<stop/>
<stop offset="1" stop-opacity="0"/>
</linearGradient>
<radialGradient id="paint66_radial" cx="0" cy="0" r="1" gradientUnits="userSpaceOnUse" gradientTransform="translate(700.856 1598.46) rotate(-180) scale(14.2125 24.5516)">
<stop stop-color="white"/>
<stop offset="1" stop-color="white" stop-opacity="0"/>
</radialGradient>
<linearGradient id="paint67_linear" x1="730.787" y1="1596.48" x2="719.905" y2="1596.67" gradientUnits="userSpaceOnUse">
<stop/>
<stop offset="1" stop-opacity="0"/>
</linearGradient>
<clipPath id="clip0">
<rect width="2048" height="2048" fill="white"/>
</clipPath>
</defs>
</svg>
