<svg viewBox="0 0 300 231" fill="currentColor" xmlns="http://www.w3.org/2000/svg">
<path d="M197.359 226.686C197.359 229.356 196.372 230.691 194.399 230.691C192.483 230.691 191.525 229.588 191.525 227.382C191.525 225.235 191.642 223.348 191.874 221.723C192.164 220.098 192.628 218.008 193.267 215.454C193.905 212.959 194.282 211.391 194.399 210.753C194.573 211.508 194.892 212.755 195.356 214.497C195.821 216.296 196.169 217.689 196.401 218.676C197.04 221.404 197.359 224.074 197.359 226.686Z"/>
<path fill-rule="evenodd" clip-rule="evenodd" d="M44.3157 141.28V173.97H0V57H44.3157V98.9318L86.4025 57.0697L147.324 57L232.5 57C267.21 57 288.159 68.6799 296.517 91.2586C298.839 97.6433 300 104.463 300 111.719C300 118.916 299.536 125.127 298.607 130.35C297.736 135.516 296.605 140.073 295.211 144.019C293.818 147.908 291.845 151.362 289.291 154.38C286.795 157.398 284.27 159.952 281.717 162.042C279.221 164.073 276.028 165.815 272.139 167.266C268.251 168.717 264.652 169.849 261.344 170.661C258.035 171.416 253.885 172.996 248.893 173.402C241.058 174.041 231.858 174.36 221.294 174.36H202.67C197.794 174.36 195.356 177.843 195.356 184.808L196.749 195.952C196.749 198.158 195.995 199.26 194.486 199.26C192.686 199.26 191.787 198.129 191.787 195.865L193.615 183.502C193.615 174.97 193.502 169.703 175.277 169.703C172.143 169.703 169.966 170.429 168.747 171.88C167.528 173.331 166.919 175.798 166.919 179.28C166.919 182.763 167.441 187.581 168.486 193.733C169.531 199.944 170.053 204.674 170.053 207.925C170.053 211.233 168.747 212.887 166.135 212.887C163.523 212.887 162.217 211.146 162.217 207.663C162.217 204.239 162.624 199.044 163.436 192.079C164.249 185.114 164.655 180.383 164.655 177.887C164.655 171.967 163.581 169.007 161.434 169.007C160.041 169.007 159.344 170.661 159.344 173.97L161.434 188.422C161.434 191.847 160.186 193.559 157.69 193.559C155.252 193.559 154.033 191.818 154.033 188.335L155.896 173.97C88.2881 174.713 77.0469 154.287 63.3711 124.192L44.3157 141.28ZM104.39 93.3481L139.738 62.6144C146.236 58.2792 153 59.8906 152.949 64.4428C152.897 68.995 152.949 128.192 152.949 128.192L197.794 128.272L197.787 93.6093C197.787 89.9526 196.206 90.1476 194 88V86.8183C194 86.8183 203.823 86.7022 212.065 86.8183C215.432 86.8763 219.059 86.9634 222.948 87.0795C226.837 87.1375 230.552 87.5729 234.092 88.3855C237.633 89.14 240.854 90.3299 243.757 91.9551C246.659 93.5803 248.98 96.1342 250.722 99.6167C252.463 103.099 253.334 107.453 253.334 112.676C253.334 117.842 252.84 122.282 251.854 125.997C250.867 129.654 249.474 132.643 247.674 134.965C245.933 137.228 242.973 139.231 238.794 140.972C234.673 142.714 227.65 143.584 217.724 143.584H197.961L153.053 143.642L152.839 143.655L152.749 143.655C128.338 143.584 108.344 137.186 99.7756 97.4459L104.39 93.3481Z"/>
</svg>
