<svg width="293" height="296" viewBox="0 0 293 296" fill="none" xmlns="http://www.w3.org/2000/svg">
<path d="M207.945 237.104L113.694 233.205L37.8651 170.565C74.6725 172.087 95.309 172.941 132.116 174.464L207.945 237.104Z" fill="#DA6F44"/>
<path d="M132.115 174.463L37.8651 170.565L84.5136 58.528L178.763 62.4272L132.115 174.463Z" fill="#DA6F44"/>
<path d="M207.939 237.103L132.077 174.416L178.754 62.4361L254.616 125.123L207.939 237.103Z" fill="#DA6F44"/>
<path d="M132.115 174.463L37.8651 170.564L84.5136 58.5279L178.763 62.4271L132.115 174.463Z" fill="black" fill-opacity="0.1"/>
<path d="M207.945 237.104L113.694 233.205L37.8651 170.565C74.6725 172.087 95.309 172.941 132.116 174.464L207.945 237.104Z" fill="black" fill-opacity="0.2"/>
<path d="M37.8651 170.565L113.694 233.205L207.945 237.104L132.116 174.464C95.309 172.941 74.6725 172.087 37.8651 170.565ZM37.8651 170.565L132.115 174.463L178.763 62.4272L84.5136 58.528L37.8651 170.565ZM207.939 237.103L132.077 174.416L178.754 62.4361L254.616 125.123L207.939 237.103Z" stroke="black" stroke-linecap="round" stroke-linejoin="round"/>
</svg>
