<svg width="151" height="140" viewBox="0 0 151 140" fill="none" xmlns="http://www.w3.org/2000/svg">
<path d="M1 66.3001L42.4927 16.3439L108.442 1C92.238 20.5091 83.1531 31.4472 66.9492 50.9563L1 66.3001Z" fill="black"/>
<path d="M66.9504 50.956L108.442 1L150.281 73.3167L108.789 123.272L66.9504 50.956Z" fill="black"/>
<path d="M1.00313 66.2972L66.9917 50.9545L108.788 123.263L42.7991 138.606L1.00313 66.2972Z" fill="black"/>
<path d="M1 66.3001L42.4927 16.3439L108.442 1C92.238 20.5091 83.1531 31.4472 66.9492 50.9563L1 66.3001Z" fill="white" fill-opacity="0.1"/>
<path d="M66.9504 50.956L108.442 1L150.281 73.3167L108.789 123.272L66.9504 50.956Z" fill="white" fill-opacity="0.2"/>
<path d="M108.442 1L42.4927 16.3439L1 66.3001L66.9492 50.9563C83.1531 31.4472 92.238 20.5091 108.442 1ZM108.442 1L66.9504 50.956L108.789 123.272L150.281 73.3167L108.442 1ZM1.00313 66.2972L66.9917 50.9545L108.788 123.263L42.7991 138.606L1.00313 66.2972Z" stroke="black" stroke-linecap="round" stroke-linejoin="round"/>
</svg>
