<svg width="138" height="133" viewBox="0 0 138 133" fill="none" xmlns="http://www.w3.org/2000/svg">
<circle cx="72.1536" cy="66.4197" r="65.3376" fill="#9B9A9A"/>
<path d="M59.0497 55.048C58.6884 51.1989 61.5158 47.7857 65.3649 47.4245L99.6758 44.2041C103.525 43.8428 106.938 46.6702 107.299 50.5193L108.852 67.0673C108.966 68.2719 108.78 69.4957 108.215 70.5659C99.0475 87.9454 75.2831 89.7041 62.099 75.0107C61.2016 74.0106 60.7086 72.7224 60.583 71.3845L59.0497 55.048Z" fill="black"/>
<path d="M1.65414 62.5172C1.29287 58.6681 4.12029 55.255 7.96937 54.8937L42.2802 51.6733C46.1293 51.312 49.5425 54.1394 49.9038 57.9885L51.457 74.5365C51.57 75.7412 51.3844 76.9649 50.8199 78.0351C41.652 95.4147 17.8876 97.1733 4.7035 82.48C3.80608 81.4798 3.31306 80.1916 3.18749 78.8538L1.65414 62.5172Z" fill="black"/>
<path d="M88.023 97.3608C88.023 99.3253 78.8634 114.918 62.6302 114.918C46.3969 114.918 37.2373 105.325 37.2373 103.361C37.2373 101.396 46.3969 107.804 62.6302 107.804C78.8634 107.804 88.023 95.3963 88.023 97.3608Z" fill="black"/>
<circle cx="72.1536" cy="65.3376" r="65.3376" fill="url(#paint0_radial)"/>
<path d="M89.274 99.2365C89.274 101.201 80.1144 116.794 63.8811 116.794C47.6479 116.794 38.4883 107.201 38.4883 105.237C38.4883 103.272 47.6479 109.679 63.8811 109.679C80.1144 109.679 89.274 97.272 89.274 99.2365Z" fill="black" fill-opacity="0.2"/>
<path d="M84.6786 87.7617C97.4865 89.2094 108.405 85.6431 109.066 79.7962C109.298 77.7463 108.238 75.6882 106.212 73.8172C96.0509 87.8838 75.1485 88.6061 62.6814 75.6459C63.2617 81.1199 72.6684 86.4042 84.6786 87.7617Z" fill="url(#paint1_linear)"/>
<path d="M11.2929 90.1992C15.0697 97.6165 26.7609 99.2353 37.406 93.815C44.7464 90.0774 49.6726 83.9688 50.7855 78.1042C41.9249 93.815 22.8102 95.9762 10.3236 87.3829C10.5143 88.3562 10.8349 89.2997 11.2929 90.1992Z" fill="url(#paint2_linear)"/>
<path d="M61.2549 74.0278C59.2529 80.6347 63.4316 90.0884 70.0385 92.0904C75.4069 93.7171 84.2878 93.7668 90.6405 84.1434C78.5264 86.9584 67.1547 81.4945 61.2549 74.0278Z" fill="url(#paint3_radial)"/>
<path d="M51.6338 76.3716C54.9027 82.4521 52.6944 91.8721 46.6139 95.1411C41.6732 97.7972 32.2322 98.7365 24.7979 92.3208C37.2424 93.5212 47.5606 85.6262 51.6338 76.3716Z" fill="url(#paint4_radial)"/>
<path d="M19.9729 89.4834C17.0461 84.6643 16.8476 78.6765 18.346 63.7769C22.8178 61.9567 25.48 61.0679 34.1278 62.8007C34.9176 72.1148 34.8521 76.8545 33.3143 83.9517C28.8755 87.7259 25.7134 88.4331 19.9729 89.4834Z" fill="white" fill-opacity="0.1"/>
<path d="M59.0501 55.048C58.6889 51.1989 61.5163 47.7857 65.3654 47.4245L99.6762 44.2041C103.525 43.8428 106.938 46.6702 107.3 50.5193L108.853 67.0673C108.966 68.2719 108.78 69.4957 108.216 70.5659C99.048 87.9454 75.2835 89.7041 62.0995 75.0107C61.2021 74.0106 60.7091 72.7224 60.5835 71.3845L59.0501 55.048Z" fill="url(#paint5_linear)"/>
<path d="M1.65414 62.5172C1.29287 58.6681 4.12029 55.255 7.96937 54.8937L42.2802 51.6733C46.1293 51.312 49.5425 54.1394 49.9038 57.9885L51.457 74.5365C51.57 75.7412 51.3844 76.9649 50.8199 78.0351C41.652 95.4147 17.8876 97.1733 4.7035 82.48C3.80608 81.4798 3.31306 80.1916 3.18749 78.8538L1.65414 62.5172Z" fill="url(#paint6_linear)"/>
<path d="M65.008 110.899C64.8159 111.742 57.0621 111.816 50.8415 110.4C44.6209 108.984 39.7338 105.152 39.9258 104.308C40.1179 103.465 44.9029 106.407 50.8417 108.309C56.1833 109.835 65.2 110.055 65.008 110.899Z" fill="white" fill-opacity="0.2"/>
<ellipse cx="80.1351" cy="104.059" rx="4.56493" ry="0.867688" transform="rotate(-35.5641 80.1351 104.059)" fill="white" fill-opacity="0.2"/>
<path d="M72.1536 131.757C108.239 131.757 137.491 102.505 137.491 66.4197C137.491 30.3347 108.239 1.08203 72.1536 1.08203C39.9962 1.08203 13.2648 24.3133 7.82666 54.9086C7.87407 54.9031 7.92163 54.8982 7.96936 54.8937L42.2802 51.6733C46.1293 51.312 49.5425 54.1394 49.9037 57.9885L51.4569 74.5365C51.57 75.7412 51.3844 76.9649 50.8199 78.0351C42.8242 93.1924 23.7262 96.4682 10.2272 87.3111C18.9412 113.151 43.3745 131.757 72.1536 131.757Z" stroke="black" stroke-linecap="round"/>
<path d="M59.0497 55.048C58.6884 51.1989 61.5158 47.7857 65.3649 47.4245L99.6758 44.2041C103.525 43.8428 106.938 46.6702 107.299 50.5193L108.852 67.0673C108.966 68.2719 108.78 69.4957 108.215 70.5659C99.0475 87.9454 75.2831 89.7041 62.099 75.0107C61.2016 74.0106 60.7086 72.7224 60.583 71.3845L59.0497 55.048Z" stroke="black" stroke-linecap="round" stroke-linejoin="round"/>
<path d="M1.65414 62.5172C1.29287 58.6681 4.12029 55.255 7.96937 54.8937L42.2802 51.6733C46.1293 51.312 49.5425 54.1394 49.9038 57.9885L51.457 74.5365C51.57 75.7412 51.3844 76.9649 50.8199 78.0351C41.652 95.4147 17.8876 97.1733 4.7035 82.48C3.80608 81.4798 3.31306 80.1916 3.18749 78.8538L1.65414 62.5172Z" stroke="black" stroke-linecap="round" stroke-linejoin="round"/>
<path d="M88.023 97.3608C88.023 99.3253 78.8634 114.918 62.6302 114.918C46.3969 114.918 37.2373 105.325 37.2373 103.361C37.2373 101.396 46.3969 107.804 62.6302 107.804C78.8634 107.804 88.023 95.3963 88.023 97.3608Z" stroke="black" stroke-linecap="round"/>
<defs>
<radialGradient id="paint0_radial" cx="0" cy="0" r="1" gradientUnits="userSpaceOnUse" gradientTransform="translate(102.926 8.1975) rotate(116.189) scale(129.657 112.462)">
<stop stop-opacity="0"/>
<stop offset="0.59375" stop-opacity="0.145833"/>
<stop offset="0.848958" stop-opacity="0.223024"/>
<stop offset="1" stop-opacity="0.5"/>
</radialGradient>
<linearGradient id="paint1_linear" x1="127.325" y1="61.3821" x2="77.8214" y2="85.755" gradientUnits="userSpaceOnUse">
<stop stop-color="white" stop-opacity="0"/>
<stop offset="1" stop-opacity="0.5"/>
</linearGradient>
<linearGradient id="paint2_linear" x1="46.5795" y1="82.1006" x2="-14.8018" y2="93.8836" gradientUnits="userSpaceOnUse">
<stop stop-opacity="0.5"/>
<stop offset="1" stop-color="white" stop-opacity="0"/>
</linearGradient>
<radialGradient id="paint3_radial" cx="0" cy="0" r="1" gradientUnits="userSpaceOnUse" gradientTransform="translate(71.7416 82.7711) rotate(121.071) scale(6.93862 14.9029)">
<stop/>
<stop offset="1" stop-color="#827A7A" stop-opacity="0"/>
</radialGradient>
<radialGradient id="paint4_radial" cx="0" cy="0" r="1" gradientUnits="userSpaceOnUse" gradientTransform="translate(43.0884 87.0242) rotate(47.5244) scale(6.93862 14.9029)">
<stop/>
<stop offset="1" stop-color="#827A7A" stop-opacity="0"/>
</radialGradient>
<linearGradient id="paint5_linear" x1="82.5208" y1="45.8143" x2="83.2315" y2="53.6746" gradientUnits="userSpaceOnUse">
<stop stop-color="white" stop-opacity="0.2"/>
<stop offset="1" stop-color="white" stop-opacity="0"/>
</linearGradient>
<linearGradient id="paint6_linear" x1="25.1248" y1="53.2835" x2="25.8355" y2="61.1439" gradientUnits="userSpaceOnUse">
<stop stop-color="white" stop-opacity="0.2"/>
<stop offset="1" stop-color="white" stop-opacity="0"/>
</linearGradient>
</defs>
</svg>
