<svg viewBox="0 0 2048 2049" fill="none" xmlns="http://www.w3.org/2000/svg">
    <g id="workingInLaptop">
        <g id="Group 22">
            <path id="shadow" opacity="0.24" d="M838.164 1529.33C745.524 1552.85 650.042 1578.72 568.523 1693.78C557.612 1709.22 546.533 1727.42 540.513 1755.2C528.432 1811.08 542.144 1884.74 563.422 1918.38C584.701 1952.02 610.954 1955.85 635.996 1958.62C1077 2007.15 1707.62 1958.62 1843.92 1755.2C1980.21 1551.79 1638.16 1429.93 1638.16 1429.93C1638.16 1429.93 1419.83 1343.02 1239.41 1370.3C1159.9 1382.32 1108.27 1428.1 1039.04 1452.58C939.082 1488.13 938.664 1503.78 838.164 1529.33Z" fill="#505F98" />
            <g id="fill">
                <g id="cutouts">
                    <path id="Vector 49" d="M1562.52 1602.36C1548.66 1611.52 1380.86 1685.18 1342.83 1703.83C1346.3 1725.39 1345.65 1738.68 1342.48 1763.31L1461.07 1761.52C1493.25 1695.04 1523.15 1649.86 1562.52 1602.36Z" fill="#ACABAB" />
                    <path id="Vector 50" d="M576.031 1723.46C537.003 1707.85 484.731 1666.49 477.145 1648.4L677.438 1730.65C668.657 1750.16 615.06 1739.07 576.031 1723.46Z" fill="#ACABAB" />
                    <path id="Polygon 4" d="M985.913 1596.1L785.398 1469.17H1186.43L985.913 1596.1Z" fill="#ACABAB" />
                </g>
                <g id="leg-left">
                    <path id="Rectangle 29" d="M1324.77 1684.33L558.069 1374.77C406.195 1310.9 292.679 1575.54 478.623 1649.09L1209.9 1948.95L1324.77 1684.33Z" fill="#ACABAB" />
                    <g id="Rectangle 30">
                        <path d="M1201.08 1960.8C1307.98 1960.8 1386.74 1710.4 1320.76 1661.61L1254.41 1634.78C1306.88 1717.67 1270.46 1884.05 1133.49 1933.47L1201.08 1960.8Z" fill="#ACABAB" />
                        <path d="M1123.96 1929.62L1133.49 1933.47C1270.46 1884.05 1306.88 1717.67 1254.41 1634.78L1243.64 1630.42C1232.51 1625.37 1220.18 1628.31 1207.58 1637.02L1258.29 1657.5C1290.62 1739.34 1250.73 1867.95 1142.69 1921.39L1104.27 1905.63C1107.84 1917.41 1114.22 1925.86 1123.96 1929.62Z" fill="#ACABAB" />
                    </g>
                    <g id="shoe-left">
                        <path id="Rectangle 31" d="M1631.09 1668.45C1631.09 1668.45 1648.35 1674.31 1658.83 1679.38C1731.22 1815.76 1461.72 1976.56 1420.67 1987.73C1410.73 1990.44 1380.82 1979.28 1379.91 1976.56C1408.82 1984.49 1708.7 1794.68 1631.09 1668.45Z" fill="#BFB8B8" />
                        <path id="Subtract" d="M1264.19 1931.31C1313.87 1883.75 1347.34 1788.81 1344.8 1723.23L1344.82 1723.17C1389.71 1714.19 1424.3 1699.61 1455.61 1686.41C1511.31 1662.92 1556.63 1643.81 1631.06 1668.43C1704.84 1789.82 1428.29 1977.08 1377.79 1977.08L1264.19 1931.31Z" fill="#302626" />
                    </g>
                </g>
                <g id="leg-right">
                    <g id="shoe-right">
                        <path id="Rectangle 25" d="M380.419 1713.15L416.938 1695.66C472.862 1806.41 504.302 1885.51 550.975 2022.47L513.621 2040.32C472.742 2022.47 362.47 1727.8 380.419 1713.15Z" fill="#BFB8B8" />
                        <path id="Rectangle 24" d="M424.575 1830.21L384.563 1747.59C378.978 1761.97 463.223 1985.9 491.604 2013L424.575 1830.21Z" fill="#302626" />
                        <path id="Rectangle 26" d="M416.786 1695.7C513.954 1644.3 551.485 1794.85 638.116 1758.62C673.045 1832.76 691.412 1874.7 720.434 1947.55L550.938 2022.58C507.196 1893.15 478.565 1821.42 416.786 1695.7Z" fill="#302626" />
                    </g>
                    <g id="Rectangle 27">
                        <path d="M606.466 1703.6C607.807 1700.47 676.623 1666.52 684.035 1667.7C691.446 1668.88 821.832 1949.36 813.217 1958.56C804.601 1967.76 737.22 1994.49 735.761 1992.92C735.761 1988.7 729.806 1971.55 720.432 1947.55C700.363 1896.16 664.623 1813.32 638.115 1758.63C623.085 1727.62 611.023 1705.66 606.466 1703.6Z" fill="#ACABAB" />
                        <path d="M606.466 1703.6C608.401 1716.1 615.053 1737.36 624.485 1762.93C629.96 1761.64 632.95 1760.71 638.115 1758.63C623.085 1727.62 611.023 1705.66 606.466 1703.6Z" fill="#ACABAB" />
                        <path d="M709.598 1952.35C719.972 1971.26 729.11 1985.74 735.761 1992.92C735.761 1988.7 729.806 1971.55 720.432 1947.55L709.598 1952.35Z" fill="#ACABAB" />
                    </g>
                    <path id="Rectangle 28" d="M692.172 1680.77L1445.46 1339.29C1593.16 1266.27 1723.87 1528.28 1542.76 1613.03L811.593 1945.1L692.172 1680.77Z" fill="#ACABAB" />
                </g>
                <g id="body">
                    <path id="Subtract_2" d="M1478.28 662.755C1490.1 741.261 1467.34 810.157 1449.62 913.676C1404.77 1028.17 1425.46 1140.45 1456.1 1306.71L1456.22 1307.36C1457.8 1315.93 1459.4 1324.64 1461.02 1333.5C1135.82 1511.79 952.033 1524.85 622.087 1400.73C674.48 1210.25 702.588 1099.32 601.201 885.287L601.226 885.28L599.133 880.9C611.405 878.336 622.987 873.596 633.547 867.055C644.956 868.655 655.15 869.655 662.179 870.345L662.181 870.345C667.841 870.9 671.448 871.254 671.983 871.558C674.783 873.149 699.005 892.669 699.005 892.669L805.275 893.839L863.215 894.477L905.336 894.94C892.858 844.742 881.908 823.033 857.904 791.573C890.076 801.979 909.971 815.483 945.159 839.367L945.696 839.732C976.754 857.789 1017.2 810.839 981.088 784.115C944.973 757.391 911.026 737.167 881.692 733.358C819.19 706.872 765.156 697.733 688.795 700.962L688.524 701.054C686.453 701.551 684.439 702.025 682.479 702.476C665.626 661.006 629.497 631.335 586.828 627.652L586.828 622.278L586.619 622.302C591.149 620.816 595.652 619.337 600.13 617.867L600.227 617.835C723.818 577.253 828.151 542.994 941.593 535.855L1166.03 535.973C1243.9 538.087 1368.24 595.706 1478.28 662.691V662.755Z" fill="currentColor" />
                    <path id="Rectangle 37" d="M971.832 511.768H1137.88C1146.34 511.768 1165.62 522.701 1165.62 535.885H941.305C941.305 527.674 949.95 518.074 960.849 513.893C964.349 512.551 968.08 511.768 971.832 511.768Z" fill="currentColor" />
                </g>
                <g id="arm-right">
                    <path id="Rectangle 35" d="M1449.42 915.475L1478.29 662.691L1494.89 675.54C1543.74 702.836 1573.59 723.329 1631.15 781.005L1816.83 924.716L1882.95 980.166C1905.12 986.856 1915.25 992.942 1929.63 1007.82C1954.17 1017.46 1963.87 1029.82 1981.58 1054.3L1855.39 1217.78C1675.5 1093.46 1510.05 988.12 1471.49 932.479C1463.03 920.274 1458.18 916.792 1449.42 915.475Z" fill="currentColor" />
                    <path id="Rectangle 36" d="M1723.48 1009.17H1933.78C2017.33 1048.26 2044.91 1214.05 1900.12 1233.41L1723.48 1241.13L1723.48 1009.17Z" fill="currentColor" />
                    <ellipse id="Ellipse 16" cx="1648.87" cy="1139.04" rx="130.673" ry="125.03" fill="currentColor" />
                    <ellipse id="Ellipse 17" cx="1649.98" cy="1141.2" rx="107.718" ry="106.681" fill="#302626" />
                    <path id="Subtract_3" d="M1722.9 1242.09C1772.2 1224.2 1807.24 1178.59 1807.24 1125.15C1807.24 1056.09 1748.74 1000.12 1676.57 1000.12C1649.08 1000.12 1623.58 1008.23 1602.54 1022.1C1616.94 1016.88 1632.56 1014.01 1648.87 1014.01C1721.04 1014.01 1779.54 1069.99 1779.54 1139.05C1779.54 1181.8 1757.11 1219.54 1722.9 1242.09Z" fill="currentColor" />
                </g>
                <g id="arm-left">
                    <path id="Rectangle 39" d="M253.438 681.484C382.024 654.911 452.03 637.409 586.827 622.278L586.827 855.15L601.226 885.28C601.226 885.28 520.198 906.234 478.711 884.698C399.251 895.446 303.781 907.6 254.431 918.046C15.562 1010.79 -4.05773 648.133 253.438 681.484Z" fill="currentColor" />
                    <path id="Rectangle 38" d="M155.692 695.479L463.021 655.109C380.705 705.289 389.143 863.304 492.969 883.098L185.64 923.468C69.2777 908.562 37.0607 758.217 155.692 695.479Z" fill="currentColor" />
                    <path id="Vector 51" d="M568.064 627.709C342.319 615.04 357.852 931.881 568.13 882.904C418.917 856.623 439 640.488 568.064 627.709Z" fill="currentColor" />
                    <ellipse id="Ellipse 18" rx="114.813" ry="127.916" transform="matrix(-1 0 0 1 577.834 755.181)" fill="currentColor" />
                    <ellipse id="Ellipse 19" rx="98.3597" ry="110.866" transform="matrix(-1 0 0 1 577.034 756.406)" fill="#302626" />
                </g>
                <g id="hand-left">
                    <path id="Vector 52" d="M688.822 700.982C611.668 719.536 613.764 705.911 504.989 680.829C468.667 723.22 466.2 799.214 518.092 845.178L557.309 841.03C506.599 779.725 546.215 749.765 688.822 700.982Z" fill="#E8BD8B" />
                    <path id="Vector 53" d="M881.692 733.359C819.19 706.873 765.155 697.733 688.794 700.962C540.428 751.362 508.924 782.279 557.279 841.006C582.349 867.018 669.183 869.967 671.983 871.558C674.782 873.149 699.005 892.669 699.005 892.669L805.275 893.839L863.214 894.477L905.336 894.94C892.857 844.742 881.908 823.033 857.903 791.573C890.076 801.979 909.971 815.483 945.158 839.367L945.695 839.732C976.753 857.789 1017.2 810.839 981.087 784.115C944.973 757.391 911.026 737.167 881.692 733.359Z" fill="#E8BD8B" />
                </g>
                <path id="hand-right" d="M1757.11 1152.69C1759.86 1121.29 1751.19 1091.51 1727.67 1067.37C1595.23 1051.7 1526.09 1052.45 1440.05 1112.82V1162.96V1228.7C1453.7 1230.51 1463.29 1225.42 1482.04 1211.15C1461.46 1245.32 1463.93 1257.53 1485.41 1270.82C1507.89 1282.24 1526.38 1259.92 1566.97 1202.52C1578.95 1203.49 1587.04 1202.58 1597.87 1197.76C1644.04 1163.68 1678.05 1156.31 1736.82 1158.25C1742.85 1161.11 1751.1 1158.25 1757.11 1152.69Z" fill="#E8BD8B" />
                <path id="laptop" d="M647.649 891.809L1441.67 901.129L1438.54 1482.72L639.597 1474.42L647.649 891.809Z" fill="#888686" />
                <g id="headphone">
                    <path id="Rectangle 42" d="M1235.68 207.908H1269.16C1278.61 207.908 1276.13 338.608 1269.17 338.608H1221.5L1211.92 252.971C1222.9 235.96 1227.59 227.671 1235.68 207.908Z" fill="#DA6F44" />
                    <path id="Rectangle 43" d="M1275.07 246.323H1286.8C1288.44 268.253 1287.96 278.64 1286.8 300.467H1274.44C1275.1 286.315 1275.77 266.875 1275.07 246.323Z" fill="black" />
                    <path id="Rectangle 44" d="M860.488 206.11H848.069C838.618 206.11 841.104 336.81 848.058 336.81H887.849C893.141 301.998 895.261 282.283 897.116 246.22C885.824 235.181 872.929 221.283 860.488 206.11Z" fill="#DA6F44" />
                    <path id="Rectangle 45" d="M841.863 244.525H824.52C822.107 266.455 822.806 276.842 824.52 298.669H842.795C841.808 284.517 840.821 265.077 841.863 244.525Z" fill="black" />
                    <path id="Subtract_4" d="M1251.35 207.908C1251.35 207.382 1251.36 206.855 1251.36 206.327C1251.36 95.4503 1163.06 5.56665 1054.14 5.56665C945.225 5.56665 856.929 95.4503 856.929 206.327C856.929 206.341 856.929 206.355 856.929 206.369L882.356 206.469C882.355 206.174 882.354 205.879 882.354 205.584C882.354 106.389 959.593 25.9754 1054.87 25.9754C1150.15 25.9754 1227.39 106.389 1227.39 205.584C1227.39 206.329 1227.39 207.072 1227.38 207.815L1251.35 207.908Z" fill="black" />
                    <path id="Rectangle 46" d="M973.332 17.7147C972.672 15.2203 974.004 12.6295 976.458 11.8323C1014.49 -0.526204 1086.16 -4.56131 1132.32 11.8475C1134.61 12.6594 1135.89 15.0453 1135.41 17.4214L1130.51 41.6506C1129.99 44.2039 1127.59 45.9303 1125 45.63C1070.1 39.2592 1037.98 39.0956 985.217 45.6225C982.728 45.9304 980.379 44.3587 979.738 41.934L973.332 17.7147Z" fill="#DA6F44" />
                </g>
                <g id="head">
                    <path id="Rectangle 40" d="M986.737 479.821H1120.42V519.108C1068.38 521.855 1039.09 521.689 986.737 519.108V479.821Z" fill="#E8BD8B" />
                    <path id="Ellipse 20" d="M1211.93 252.776C1163.46 290.574 1116.23 255.569 1049.55 254.939C977.575 254.786 936.612 276.364 897.118 246.224C895.643 276.801 893.676 298.15 887.859 336.819C894.111 420.865 937.66 489.171 1053.17 489.171C1168.31 489.171 1215.22 422.678 1221.63 336.979L1211.93 252.776Z" fill="#E8BD8B" />
                    <g id="Ellipse 21">
                        <path d="M1227.22 338.631H1221.5C1218.32 381.131 1205.12 418.124 1177.88 445.524L1183.91 452.011C1214.47 413.196 1224.24 388.736 1227.22 338.631Z" fill="black" />
                        <path d="M880.988 336.809H887.855C890.977 380.488 904.383 419.222 932.221 447.312L924.702 451.519C894.276 413.77 883.284 388.798 880.988 336.809Z" fill="black" />
                    </g>
                    <path id="Rectangle 41" d="M803.162 80.5903C807.604 67.2643 834.66 77.3602 859.293 96.3395C935.551 105.606 1077.85 18.5287 1194.14 88.665C1251.87 132.532 1259.08 182.773 1211.93 252.805C1164.83 287.821 1128.36 260.277 1053.64 254.668C982.202 254.668 935.96 276.491 897.106 246.203C897.106 246.203 792.259 145.605 803.162 80.5903Z" fill="black" />
                </g>
                <g id="eyesNnose">
                    <path id="eyes02" d="M937.951 311.535C937.887 312.5 937.855 313.473 937.855 314.453C937.855 338.86 957.948 358.645 982.734 358.645C1007.52 358.645 1027.61 338.86 1027.61 314.453C1027.61 313.473 1027.58 312.5 1027.52 311.535H1009.18C1009.27 312.488 1009.32 313.461 1009.32 314.453C1009.32 330.555 996.374 341.73 982.734 341.73C969.094 341.73 956.146 330.555 956.146 314.453C956.146 313.461 956.195 312.488 956.29 311.535H937.951Z" fill="black" />
                    <path id="eyes01" d="M1081.87 311.536C1081.8 312.5 1081.77 313.473 1081.77 314.454C1081.77 338.86 1101.86 358.645 1126.65 358.645C1151.44 358.645 1171.53 338.86 1171.53 314.454C1171.53 313.473 1171.5 312.5 1171.43 311.536H1153.09C1153.19 312.489 1153.24 313.462 1153.24 314.454C1153.24 330.555 1140.29 341.73 1126.65 341.73C1113.01 341.73 1100.06 330.555 1100.06 314.454C1100.06 313.462 1100.11 312.489 1100.21 311.536H1081.87Z" fill="black" />
                    <ellipse id="Ellipse 23" cx="1053.81" cy="378.658" rx="16.4378" ry="16.854" fill="#E8BD8B" />
                </g>
            </g>
            <g id="shadow_2">
                <g id="Group 18">
                    <path id="Rectangle 72" d="M1387.4 1543.16L1438.59 1482.52L1137.34 1479.55L927.523 1574.02C1064.72 1536.53 1219.52 1544.51 1387.4 1543.16Z" fill="url(#paint0_linear)" />
                    <path id="Rectangle 73" d="M669.514 1547.33C800.655 1547.33 890.451 1606.25 985.357 1547.33L809.269 1476.19L639.597 1474.42L669.514 1547.33Z" fill="url(#paint1_linear)" />
                    <path id="Vector 96" d="M986.018 1547.56L809.23 1476.18L1136.01 1479.58L986.018 1547.56Z" fill="black" fill-opacity="0.3" />
                </g>
                <g id="cutouts_2">
                    <path id="Subtract_5" d="M1437.31 1660.57C1493.88 1635.03 1554.43 1607.71 1562.52 1602.36C1545.7 1622.65 1530.61 1642.52 1516.33 1663.81C1496.15 1669.31 1476.62 1677.55 1455.61 1686.41C1424.33 1699.59 1389.78 1714.16 1344.97 1723.14C1344.67 1717.13 1343.97 1710.93 1342.83 1703.83C1358.66 1696.07 1396.97 1678.77 1437.31 1660.57Z" fill="url(#paint2_linear)" />
                    <path id="Subtract_6" fill-rule="evenodd" clip-rule="evenodd" d="M477.145 1648.4C484.731 1666.49 537.003 1707.85 576.031 1723.46C588.226 1728.34 601.844 1732.78 615.072 1735.98C610.692 1722.51 607.668 1711.36 606.466 1703.6C606.579 1703.34 607.167 1702.86 608.155 1702.2L477.145 1648.4Z" fill="url(#paint3_linear)" />
                </g>
                <g id="leg-left_2">
                    <path id="Subtract_7" d="M1268.28 1737.69C1261.69 1807.73 1219.34 1883.48 1142.69 1921.39L1104.27 1905.63C1107.84 1917.41 1114.22 1925.86 1123.96 1929.62L1201.08 1960.8C1289.1 1960.8 1358.04 1791.04 1342.82 1703.84L1268.28 1737.69Z" fill="url(#paint4_linear)" />
                    <g id="Subtract_8">
                        <path d="M986.021 1547.56L692.358 1680.69C687.939 1672.56 684.983 1667.85 684.035 1667.7C677.245 1666.62 618.908 1695.03 608.149 1702.2L478.623 1649.09C292.679 1575.54 406.194 1310.9 558.069 1374.77L640.511 1408.06L639.597 1474.22L808.726 1475.98L986.021 1547.56Z" fill="url(#paint5_linear)" />
                        <path d="M986.021 1547.56L692.358 1680.69C687.939 1672.56 684.983 1667.85 684.035 1667.7C677.245 1666.62 618.908 1695.03 608.149 1702.2L478.623 1649.09C292.679 1575.54 406.194 1310.9 558.069 1374.77L640.511 1408.06L639.597 1474.22L808.726 1475.98L986.021 1547.56Z" fill="url(#paint6_radial)" />
                        <path d="M1268.28 1737.69L996.123 1861.29L1104.27 1905.64L1104.27 1905.63L1142.69 1921.39C1219.34 1883.48 1261.69 1807.73 1268.28 1737.69Z" fill="url(#paint7_linear)" />
                        <path d="M1268.28 1737.69L996.123 1861.29L1104.27 1905.64L1104.27 1905.63L1142.69 1921.39C1219.34 1883.48 1261.69 1807.73 1268.28 1737.69Z" fill="url(#paint8_radial)" />
                    </g>
                    <path id="Subtract_9" d="M1268.28 1737.69C1261.69 1807.73 1219.34 1883.48 1142.69 1921.39L1104.27 1905.63C1107.84 1917.41 1114.22 1925.86 1123.96 1929.62L1133.49 1933.47C1226.53 1899.9 1273.18 1812.37 1277.08 1733.69L1268.28 1737.69Z" fill="black" fill-opacity="0.2" />
                    <g id="shoe-left_2">
                        <path id="Rectangle 31_2" d="M1631.09 1668.45C1631.09 1668.45 1648.35 1674.31 1658.83 1679.38C1731.22 1815.76 1461.72 1976.56 1420.67 1987.73C1410.73 1990.44 1380.82 1979.28 1379.91 1976.56C1408.82 1984.49 1708.7 1794.68 1631.09 1668.45Z" fill="url(#paint9_linear)" />
                    </g>
                    <ellipse id="Ellipse 53" cx="517.308" cy="1483.6" rx="24.3391" ry="37.7964" fill="white" fill-opacity="0.2" />
                    <ellipse id="Ellipse 54" cx="429.883" cy="1486.35" rx="15.3202" ry="37.7964" transform="rotate(15.8161 429.883 1486.35)" fill="white" fill-opacity="0.2" />
                </g>
                <g id="leg-right_2">
                    <g id="shoe-right_2">
                        <path id="Rectangle 25_2" d="M380.419 1713.15L416.938 1695.66C472.862 1806.41 504.302 1885.51 550.975 2022.47L513.621 2040.32C472.742 2022.47 362.47 1727.79 380.419 1713.15Z" fill="url(#paint10_linear)" />
                    </g>
                    <g id="Rectangle 27_2">
                        <path d="M606.466 1703.6C607.807 1700.47 676.623 1666.52 684.035 1667.7C691.446 1668.87 821.832 1949.35 813.217 1958.55C804.601 1967.75 737.22 1994.49 735.761 1992.92C735.761 1988.7 729.806 1971.55 720.432 1947.55C700.363 1896.15 664.623 1813.32 638.115 1758.63C623.085 1727.62 611.023 1705.66 606.466 1703.6Z" fill="url(#paint11_linear)" />
                        <path d="M606.466 1703.6C608.401 1716.09 615.053 1737.36 624.485 1762.92C629.96 1761.64 632.95 1760.71 638.115 1758.63C623.085 1727.62 611.023 1705.66 606.466 1703.6Z" fill="url(#paint12_linear)" />
                        <path d="M709.598 1952.35C719.972 1971.25 729.11 1985.74 735.761 1992.92C735.761 1988.7 729.806 1971.55 720.432 1947.55L709.598 1952.35Z" fill="url(#paint13_linear)" />
                    </g>
                    <g id="Rectangle 31_3">
                        <path d="M606.466 1703.6C608.401 1716.09 615.054 1737.36 624.485 1762.92C629.96 1761.64 632.95 1760.71 638.115 1758.63C623.085 1727.62 611.023 1705.66 606.466 1703.6Z" fill="url(#paint14_linear)" />
                        <path d="M709.599 1952.35C719.972 1971.25 729.11 1985.74 735.761 1992.92C735.761 1988.7 729.806 1971.55 720.432 1947.55L709.599 1952.35Z" fill="url(#paint15_linear)" />
                    </g>
                    <g id="Subtract_10">
                        <path d="M1136 1479.57L692.172 1680.77L811.593 1945.1L1542.76 1613.03C1723.87 1528.28 1593.16 1266.27 1445.46 1339.29L1439.3 1342.08L1438.54 1482.72L1136 1479.57Z" fill="url(#paint16_linear)" />
                        <path d="M1136 1479.57L692.172 1680.77L811.593 1945.1L1542.76 1613.03C1723.87 1528.28 1593.16 1266.27 1445.46 1339.29L1439.3 1342.08L1438.54 1482.72L1136 1479.57Z" fill="url(#paint17_radial)" />
                    </g>
                    <path id="Subtract_11" d="M1339.25 1481.49L733.161 1755.99L763.649 1825.62L1409.22 1532.64C1552.19 1469.43 1530.29 1408.48 1438.79 1436.92L1438.54 1482.52L1339.25 1481.49Z" fill="url(#paint18_linear)" />
                    <ellipse id="Ellipse 52" cx="1584.68" cy="1435.86" rx="14.5134" ry="32.2782" transform="rotate(-11.8256 1584.68 1435.86)" fill="white" fill-opacity="0.2" />
                </g>
                <g id="body_2">
                    <path id="Subtract_12" d="M1449.42 915.473L1478.28 662.69C1368.24 595.705 1243.9 538.086 1166.03 535.972L941.593 535.854C828.15 542.994 723.818 577.252 600.227 617.834L600.201 617.843C595.699 619.321 591.172 620.807 586.619 622.301C586.688 622.293 586.758 622.286 586.827 622.278L586.827 627.651C629.497 631.334 665.625 661.005 682.479 702.475C684.439 702.024 686.452 701.55 688.523 701.053L688.794 700.961C765.155 697.733 819.189 706.872 881.691 733.358C911.026 737.167 944.973 757.391 981.087 784.115C1017.2 810.839 976.753 857.788 945.695 839.731L945.158 839.367C909.971 815.483 890.076 801.979 857.903 791.573C881.908 823.033 892.857 844.741 905.336 894.94L863.214 894.476L805.275 893.838L699.005 892.669C699.005 892.669 674.782 873.149 671.983 871.558C671.448 871.254 667.841 870.9 662.181 870.345L662.178 870.344C655.149 869.655 644.955 868.655 633.547 867.054C622.987 873.596 611.404 878.335 599.133 880.9L601.226 885.28C601.226 885.28 601.217 885.282 601.2 885.286C620.716 926.486 635.434 963.865 646.104 998.726L1441.25 937.092C1443.67 929.745 1446.39 922.53 1449.42 915.473Z" fill="url(#paint19_radial)" />
                    <path id="Rectangle 37_2" d="M1131.9 518.402C1128.5 518.754 1124.65 519.071 1120.42 519.354V515.505C1125.72 515.183 1128.28 515.816 1131.9 518.402Z" fill="black" fill-opacity="0.15" />
                    <path id="Rectangle 38_2" d="M975.258 518.402C978.654 518.754 982.51 519.071 986.737 519.354V515.505C981.431 515.183 978.872 515.816 975.258 518.402Z" fill="black" fill-opacity="0.15" />
                </g>
                <g id="arm-right_2">
                    <path id="Subtract_13" d="M1725.72 1241.03L1900.12 1233.41C2044.91 1214.05 2017.33 1048.26 1933.78 1009.17H1725.47C1773.41 1027.69 1807.24 1072.64 1807.24 1125.15C1807.24 1177.56 1773.53 1222.44 1725.72 1241.03Z" fill="url(#paint20_linear)" />
                    <path id="Subtract_14" d="M1933.78 1009.17C2017.33 1048.26 2044.91 1214.05 1900.12 1233.41L1881.9 1234.21C1964.2 1152.45 1957.5 1102.68 1881.9 1009.17H1933.78Z" fill="url(#paint21_radial)" fill-opacity="0.2" />
                    <path id="Subtract_15" d="M1722.9 1242.09C1772.2 1224.2 1807.24 1178.59 1807.24 1125.15C1807.24 1056.09 1748.74 1000.12 1676.57 1000.12C1649.08 1000.12 1623.58 1008.23 1602.54 1022.1C1616.94 1016.88 1632.56 1014.01 1648.87 1014.01C1721.04 1014.01 1779.54 1069.99 1779.54 1139.05C1779.54 1181.8 1757.11 1219.54 1722.9 1242.09Z" fill="url(#paint22_linear)" />
                    <path id="Subtract_16" d="M1648.87 1264.08C1721.04 1264.08 1779.54 1208.1 1779.54 1139.04C1779.54 1069.99 1721.04 1014.01 1648.87 1014.01C1605.38 1014.01 1566.86 1034.34 1543.1 1065.61C1557.04 1062.72 1565.67 1061.43 1579.95 1060.13C1598.78 1044.16 1623.24 1034.52 1649.98 1034.52C1709.47 1034.52 1757.69 1082.28 1757.69 1141.2C1757.69 1200.12 1709.47 1247.88 1649.98 1247.88C1615.13 1247.88 1584.15 1231.49 1564.46 1206.07C1559.71 1212.78 1557.02 1216.51 1552.18 1223.15C1576.09 1248.29 1610.55 1264.08 1648.87 1264.08Z" fill="black" fill-opacity="0.15" />
                    <g id="Subtract_17">
                        <path d="M1478.29 662.691L1449.42 915.475C1458.18 916.792 1463.03 920.274 1471.49 932.479C1488.21 956.613 1528.81 990.098 1584.11 1030.43C1590.07 1027.16 1596.33 1024.34 1602.84 1021.99C1602.74 1022.03 1602.64 1022.06 1602.54 1022.1C1623.58 1008.23 1649.08 1000.12 1676.57 1000.12C1693.86 1000.12 1710.37 1003.33 1725.47 1009.17H1932.92C1931.85 1008.71 1930.75 1008.26 1929.63 1007.82C1915.25 992.942 1905.12 986.856 1882.94 980.166L1816.83 924.716L1631.15 781.005C1573.59 723.329 1543.74 702.836 1494.89 675.54L1478.29 662.691Z" fill="url(#paint23_linear)" />
                        <path d="M1943.65 1014.52C1948.14 1017.31 1952.43 1020.47 1956.51 1023.96C1952.6 1020.42 1948.43 1017.32 1943.65 1014.52Z" fill="url(#paint24_linear)" />
                    </g>
                    <path id="Subtract_18" d="M1929.63 1007.82C1930.75 1008.26 1931.85 1008.71 1932.92 1009.17H1829.2C1687.64 900.372 1580.76 781.005 1463.85 789.083L1478.29 662.691L1494.89 675.54C1543.74 702.836 1573.59 723.329 1631.15 781.005L1816.83 924.716L1882.94 980.166C1905.12 986.856 1915.25 992.942 1929.63 1007.82Z" fill="url(#paint25_radial)" />
                    <path id="Vector 95" d="M1874.43 1000.74C1862.89 1003.23 1861.57 1003.4 1852.65 1009.16H1834.39C1848.19 1004.54 1858.64 1000.59 1874.43 1000.74Z" fill="black" fill-opacity="0.2" />
                </g>
                <g id="arm-left_2">
                    <path id="Subtract_19" d="M577.833 883.098C514.424 883.098 463.021 825.828 463.021 755.181C463.021 684.535 514.424 627.265 577.833 627.265C624.377 627.265 664.452 658.121 682.478 702.475C675.568 704.043 671.69 704.874 664.75 706.193C648.499 670.198 615.321 645.54 577.034 645.54C522.711 645.54 478.674 695.177 478.674 756.406C478.674 817.635 522.711 867.271 577.034 867.271C587.255 867.271 597.113 865.514 606.382 862.252C616.761 864.474 622.75 865.476 633.552 867.051C617.051 877.274 598.053 883.098 577.833 883.098Z" fill="black" fill-opacity="0.2" />
                    <g id="Vector 51_2">
                        <path d="M568.064 627.709C342.319 615.04 357.851 931.881 568.129 882.904C418.917 856.623 439 640.488 568.064 627.709Z" fill="url(#paint26_linear)" />
                        <path d="M568.064 627.709C342.319 615.04 357.851 931.881 568.129 882.904C418.917 856.623 439 640.488 568.064 627.709Z" fill="url(#paint27_linear)" />
                    </g>
                    <g id="Rectangle 38_3">
                        <path d="M155.692 695.48L463.021 655.109C380.705 705.29 389.142 863.305 492.969 883.098L185.64 923.468C69.2774 908.562 37.0605 758.218 155.692 695.48Z" fill="url(#paint28_linear)" />
                        <path d="M155.692 695.48L463.021 655.109C380.705 705.29 389.142 863.305 492.969 883.098L185.64 923.468C69.2774 908.562 37.0605 758.218 155.692 695.48Z" fill="url(#paint29_radial)" />
                    </g>
                    <g id="Subtract_20">
                        <path d="M541.405 627.772C549.884 627.225 558.77 627.188 568.064 627.71L577.834 627.266C580.86 627.266 583.86 627.396 586.827 627.652V622.279C570.844 624.073 555.772 625.9 541.405 627.772Z" fill="url(#paint30_linear)" />
                        <path d="M314.6 668.674C295.504 672.703 275.319 676.962 253.438 681.484C-4.05779 648.133 15.5619 1010.8 254.431 918.047C287.011 911.15 339.691 903.509 394.596 896.02L185.64 923.468C69.2775 908.562 37.0605 758.218 155.692 695.479L459.024 655.634C474.255 644.561 492.743 636.108 514.562 631.434C441.996 641.792 385.88 653.633 314.6 668.674Z" fill="url(#paint31_linear)" />
                        <path d="M489.954 883.494L479.134 884.916C520.746 906.093 601.226 885.281 601.226 885.281L599.133 880.901C592.231 882.344 585.112 883.098 577.834 883.098L568.129 882.905C538.037 889.913 511.934 889.431 489.954 883.494Z" fill="url(#paint32_linear)" />
                    </g>
                </g>
                <g id="hand-left_2">
                    <g id="Vector 52_2">
                        <path d="M688.822 700.982C611.668 719.536 613.764 705.911 504.989 680.829C468.667 723.22 466.2 799.214 518.092 845.178L557.308 841.03C506.598 779.725 546.215 749.765 688.822 700.982Z" fill="url(#paint33_radial)" />
                        <path d="M688.822 700.982C611.668 719.536 613.764 705.911 504.989 680.829C468.667 723.22 466.2 799.214 518.092 845.178L557.308 841.03C506.598 779.725 546.215 749.765 688.822 700.982Z" fill="url(#paint34_radial)" />
                    </g>
                    <path id="Vector 57" d="M945.158 839.367L945.695 839.732C902.88 796.738 869.271 789.687 836.835 749.033C832.811 743.991 829.568 765.797 836.835 772.997L857.903 791.574C890.075 801.98 909.971 815.484 945.158 839.367Z" fill="black" fill-opacity="0.2" />
                    <path id="Vector 56" d="M863.214 894.477H874.249C845.91 835.811 823.755 811.392 778.604 775.471C772.304 770.459 770.067 784.199 778.604 791.573C813.017 821.769 833.494 835.123 863.214 894.477Z" fill="black" fill-opacity="0.2" />
                    <path id="Vector 55" d="M727.351 831.654C755.535 848.922 772.231 862.574 805.275 893.839H819.888L727.351 807.026C722.198 802.287 709.434 820.677 727.351 831.654Z" fill="black" fill-opacity="0.2" />
                    <path id="Vector 54" d="M671.983 871.558C674.783 873.149 699.005 892.669 699.005 892.669H729.936L680.959 857.772L671.983 871.558Z" fill="url(#paint35_linear)" />
                    <path id="Vector 59" d="M557.279 841.007C582.349 867.019 669.183 869.968 671.983 871.559L680.959 857.773C648.451 855.173 622.439 851.847 599.022 843.771L557.279 841.007Z" fill="url(#paint36_linear)" />
                    <path id="Vector 58" d="M945.695 841.15C976.754 859.207 1017.2 812.258 981.087 785.534C945.554 797.227 939.588 810.361 945.695 841.15Z" fill="url(#paint37_radial)" />
                </g>
                <g id="hand-right_2">
                    <path id="hand-right_3" d="M1566.97 1202.52C1578.95 1203.49 1587.04 1202.58 1597.87 1197.76C1577.35 1167.13 1571.38 1150.41 1607.9 1124.36L1561.65 1146.12C1554.55 1150.77 1549.91 1156.78 1547.44 1163.15C1544.82 1169.87 1544.61 1177 1546.44 1183.33C1549.16 1192.76 1556.4 1200.46 1566.97 1202.52Z" fill="url(#paint38_radial)" />
                    <path id="hand-right_4" d="M1521.76 1260.26C1540.82 1238.87 1550.48 1226.03 1566.97 1202.52C1552.53 1200.28 1528.01 1242.65 1503.06 1268.36L1506.59 1271.39C1511.37 1269.21 1516.34 1265.51 1521.76 1260.26Z" fill="url(#paint39_linear)" />
                    <path id="hand-right_5" d="M1482.04 1211.15C1475.89 1221.36 1471.8 1229.61 1469.66 1236.52C1468.36 1240.66 1467.95 1243.17 1467.9 1247.94C1468.3 1257.39 1474.33 1263.96 1485.41 1270.82C1492.59 1274.47 1499.37 1274.67 1506.59 1271.39C1510.86 1269.44 1516.45 1265.36 1520.23 1261.71C1485.4 1258.72 1482.02 1243.47 1482.04 1211.15Z" fill="url(#paint40_radial)" />
                    <path id="hand-right_6" d="M1440.05 1228.7C1453.7 1230.51 1463.29 1225.42 1482.04 1211.15C1487.83 1195.61 1491.93 1187.72 1499.69 1173.36C1472.54 1190.1 1457.42 1193.35 1440.05 1184.37V1228.7Z" fill="url(#paint41_radial)" />
                    <path id="hand-right_7" d="M1561.65 1146.12L1607.9 1124.36C1607.9 1124.36 1563.09 1140.14 1556.3 1145.42C1549.52 1150.69 1547.28 1153.4 1544.18 1161.43C1541.08 1169.46 1540.47 1176.22 1543.39 1184.92C1545.09 1190.01 1551.99 1202.31 1566.96 1202.52C1556.4 1200.46 1549.16 1192.76 1546.44 1183.33C1544.61 1177 1544.82 1169.87 1547.44 1163.15C1549.91 1156.78 1554.55 1150.77 1561.65 1146.12Z" fill="black" fill-opacity="0.2" />
                    <path id="hand-right_8" d="M1515.38 1163.15C1504.19 1176.33 1494.06 1191.32 1482.04 1211.15C1489.71 1188.72 1511.77 1151.25 1516.95 1145.05C1528.53 1131.17 1550.93 1113.64 1550.93 1113.64C1563.33 1101.86 1563.7 1117.12 1561.65 1120.93C1542.03 1135.64 1528.03 1148.24 1515.38 1163.15Z" fill="black" fill-opacity="0.2" />
                    <path id="hand-right_9" d="M1472.63 1132.62C1459.73 1141.64 1451.57 1149.91 1440.05 1162.96V1153.91C1456.6 1134.1 1468.11 1124.58 1488.9 1107.78C1499.04 1098.64 1501.55 1113.92 1499.04 1115.54L1485.41 1124.36C1480.61 1127.27 1476.42 1129.98 1472.63 1132.62Z" fill="black" fill-opacity="0.2" />
                </g>
                <g id="laptop_2">
                    <path id="laptop_3" d="M639.643 1474.42L1438.59 1482.72V1473.98L640.062 1464.75L639.643 1474.42Z" fill="url(#paint42_linear)" />
                    <path id="laptop_4" d="M1438.8 1434.61L640.274 1425.39L640.062 1464.75L1438.59 1473.98L1438.8 1434.61Z" fill="white" fill-opacity="0.1" />
                    <path id="laptop_5" d="M1441.67 901.129L647.649 891.809L647.264 919.6L1441.52 929.031L1441.67 901.129Z" fill="white" fill-opacity="0.2" />
                    <path id="laptop_6" d="M647.265 919.599L1441.29 928.92L1438.78 1435.01L639.833 1426.7L647.265 919.599Z" fill="url(#paint43_linear)" />
                </g>
                <g id="headphone_2">
                    <g id="right">
                        <path id="Rectangle 43_2" d="M1274.44 300.467H1286.8C1286.87 299.203 1286.93 297.978 1287 296.787H1274.6C1274.55 298.049 1274.49 299.277 1274.44 300.467Z" fill="url(#paint44_linear)" />
                        <path id="Rectangle 49" d="M1286.98 284.788H1275.77C1275.73 286.37 1275.68 287.92 1275.63 289.434H1286.8C1286.87 287.836 1286.93 286.292 1286.98 284.788Z" fill="white" fill-opacity="0.2" />
                        <path id="Rectangle 48" d="M1287.47 264.036H1275.94C1275.94 266.745 1275.92 269.408 1275.89 272.016H1287.57C1287.57 269.407 1287.54 266.779 1287.47 264.036Z" fill="white" fill-opacity="0.5" />
                        <g id="Rectangle 42_2">
                            <path d="M1235.68 207.908H1269.16C1278.61 207.908 1276.13 338.608 1269.17 338.608H1221.5L1211.92 252.971C1222.9 235.96 1227.59 227.671 1235.68 207.908Z" fill="url(#paint45_radial)" />
                            <path d="M1235.68 207.908H1269.16C1278.61 207.908 1276.13 338.608 1269.17 338.608H1221.5L1211.92 252.971C1222.9 235.96 1227.59 227.671 1235.68 207.908Z" fill="url(#paint46_linear)" />
                        </g>
                        <path id="Rectangle 42_3" d="M1269.16 207.908C1278.61 207.908 1276.13 338.608 1269.17 338.608L1269.16 207.908Z" fill="white" fill-opacity="0.2" />
                    </g>
                    <g id="left">
                        <g id="Rectangle 44_2">
                            <path d="M860.489 206.109H848.069C838.618 206.109 841.104 336.809 848.059 336.809H887.85C893.141 301.998 895.261 282.283 897.116 246.22C885.824 235.181 872.93 221.282 860.489 206.109Z" fill="url(#paint47_radial)" />
                            <path d="M860.489 206.109H848.069C838.618 206.109 841.104 336.809 848.059 336.809H887.85C893.141 301.998 895.261 282.283 897.116 246.22C885.824 235.181 872.93 221.282 860.489 206.109Z" fill="url(#paint48_linear)" />
                        </g>
                        <path id="Rectangle 47" d="M848.069 206.109C838.618 206.109 841.104 336.809 848.059 336.809L848.069 206.109Z" fill="white" fill-opacity="0.2" />
                        <path id="Rectangle 45_2" d="M842.795 298.668H824.52C824.427 297.476 824.336 296.319 824.249 295.191H842.561C842.638 296.382 842.717 297.542 842.795 298.668Z" fill="url(#paint49_linear)" />
                        <path id="Rectangle 50" d="M841.52 286.08H824.137C824.064 284.91 823.997 283.768 823.937 282.646H841.368C841.416 283.809 841.467 284.954 841.52 286.08Z" fill="white" fill-opacity="0.2" />
                        <path id="Rectangle 49_2" d="M841.248 279.509H823.782C823.735 278.445 823.695 277.396 823.661 276.356H841.146C841.177 277.419 841.211 278.47 841.248 279.509Z" fill="white" fill-opacity="0.2" />
                        <path id="Rectangle 48_2" d="M841.007 270.333H823.552C823.541 267.365 823.598 264.374 823.734 261.218H840.944C840.933 264.319 840.956 267.362 841.007 270.333Z" fill="white" fill-opacity="0.5" />
                    </g>
                    <g id="strap">
                        <path id="Vector 93 (Stroke)" fill-rule="evenodd" clip-rule="evenodd" d="M906.622 91.1277C929.058 62.8549 944.653 49.3425 976.732 30.5242L977.663 33.9046C945.824 52.5821 928.732 63.2661 906.622 91.1277Z" fill="white" fill-opacity="0.75" />
                        <path id="Vector 93 (Stroke)_2" fill-rule="evenodd" clip-rule="evenodd" d="M1202.97 91.4286C1180.53 63.1557 1164.69 49.5878 1132.62 30.7695L1131.93 34.2054C1163.77 52.883 1180.66 64.0151 1202.97 91.4286Z" fill="white" fill-opacity="0.75" />
                    </g>
                    <path id="Rectangle 46_2" d="M973.332 17.7147C972.672 15.2203 974.004 12.6295 976.458 11.8323C1014.49 -0.526204 1086.16 -4.56131 1132.32 11.8475C1134.61 12.6594 1135.89 15.0453 1135.41 17.4214L1130.51 41.6506C1129.99 44.2039 1127.59 45.9303 1125 45.63C1070.1 39.2592 1037.98 39.0956 985.217 45.6225C982.728 45.9304 980.38 44.3587 979.738 41.934L973.332 17.7147Z" fill="url(#paint50_radial)" />
                </g>
                <g id="head_2">
                    <path id="Rectangle 40_2" d="M986.737 479.821C994.521 488.026 1105.56 489.874 1120.42 479.821V519.108C1068.38 521.855 1039.09 521.689 986.737 519.108V479.821Z" fill="url(#paint51_radial)" />
                    <path id="Ellipse 20_2" d="M1211.93 252.776C1163.46 290.574 1116.23 255.569 1049.55 254.939C977.574 254.786 936.611 276.364 897.117 246.224C895.643 276.801 893.676 298.15 887.859 336.819C894.111 420.865 937.659 489.171 1053.17 489.171C1168.31 489.171 1215.22 422.678 1221.63 336.979L1211.93 252.776Z" fill="url(#paint52_radial)" />
                    <g id="hair">
                        <path id="Subtract_21" d="M804.984 77.4509C811.708 73.1123 830.072 86.6454 848.777 100.429C851.195 102.211 853.619 103.997 856.025 105.75C860.418 108.95 915.58 100.851 954.253 92.0566C1041.38 72.245 1115.59 55.3694 1188.18 96.7687C1243.34 136.397 1250.23 181.784 1205.18 245.051C1189.67 263.811 1148.19 261.85 1111.77 254.994C1095.13 251.861 1076.34 248.323 1053.95 246.734C1032.11 246.734 1011.29 248.682 992.323 250.457C952.029 254.228 915.617 253.628 902.651 239.853C895.01 231.736 802.48 140.72 802.949 81.9684C793.729 147.016 897.106 246.203 897.106 246.203C923.349 266.66 952.963 263.344 991.435 259.037C1009.92 256.967 1030.46 254.668 1053.64 254.668C1077.08 256.427 1096.75 260.344 1114.16 263.811C1152.28 271.4 1179.6 276.84 1211.93 252.805C1259.08 182.773 1251.87 132.532 1194.14 88.665C1118.22 42.8797 1031.23 64.0916 958.752 81.7622C920.206 91.1603 885.769 99.5568 859.292 96.3395C836.966 79.1374 812.649 69.2329 804.984 77.4509Z" fill="white" fill-opacity="0.2" />
                        <path id="Subtract_22" d="M811.753 94.0633C823.567 128.992 853.863 157.747 879.276 170.064C904.689 182.381 924.62 178.716 955.852 176.542C970.86 175.497 987.529 174.337 1006.35 174.337C1025.38 175.225 1041.34 177.202 1055.48 178.952C1086.43 182.782 1106.44 178.737 1134.85 173.396C1161.52 168.384 1166.41 134.207 1134.85 125.542C1071.38 108.116 1020.09 127.265 961.254 136.184C929.962 140.927 893.287 150.389 863.633 136.184C845.508 127.501 806.109 77.3768 811.753 94.0633Z" fill="white" fill-opacity="0.2" />
                        <path id="Subtract_23" fill-rule="evenodd" clip-rule="evenodd" d="M880.931 178.483C867.181 171.359 823.064 143.047 811.018 96.4982C807.651 83.4893 819.242 93.8423 833.735 106.788C844.018 115.973 855.761 126.463 864.662 130.842C886.109 141.393 932.488 135.259 964.394 128.937C971.402 127.548 981.565 124.47 988.896 122.955C1044.32 111.507 1103.68 102.087 1141.21 119.893C1176.79 136.776 1168.4 173.755 1141.21 180.435C1140.39 180.634 1139.59 180.833 1138.79 181.03C1111.08 187.847 1090.94 192.8 1060.28 187.838C1045.86 185.506 1029.58 182.871 1010.18 181.688C990.99 181.688 973.995 183.234 958.692 184.627C926.847 187.524 905.078 190.993 880.931 178.483ZM879.276 170.064C853.862 157.747 823.567 128.992 811.753 94.0632C808.839 85.449 817.93 94.64 829.9 106.743C841.118 118.085 854.865 131.983 863.633 136.184C892.99 150.247 929.962 140.927 961.254 136.184C974.854 134.122 988.051 131.514 1001.09 128.937C1044.45 120.366 1086.05 112.144 1134.85 125.542C1166.41 134.207 1161.52 168.384 1134.85 173.396C1134.05 173.546 1133.26 173.695 1132.48 173.843C1105.3 178.958 1085.56 182.675 1055.48 178.952C1041.34 177.202 1025.38 175.225 1006.35 174.337C987.529 174.337 970.86 175.497 955.852 176.542C951.887 176.818 948.104 177.118 944.469 177.406C919.471 179.389 901.463 180.817 879.276 170.064Z" fill="white" fill-opacity="0.1" />
                        <ellipse id="Ellipse 51" cx="1211.92" cy="154.458" rx="17.064" ry="24.0646" transform="rotate(-15.4993 1211.92 154.458)" fill="white" fill-opacity="0.2" />
                    </g>
                </g>
                <g id="nose">
                    <ellipse id="Ellipse 23_2" cx="1053.81" cy="378.657" rx="16.4378" ry="16.854" fill="url(#paint53_radial)" />
                </g>
            </g>
            <g id="outline">
                <g id="cutouts_3">
                    <g id="Subtract_24">
                        <path d="M1437.31 1660.57C1493.88 1635.03 1554.43 1607.71 1562.52 1602.36C1545.7 1622.65 1530.61 1642.52 1516.33 1663.81C1496.15 1669.31 1476.62 1677.55 1455.61 1686.41C1424.33 1699.59 1389.78 1714.16 1344.97 1723.14C1344.67 1717.13 1343.97 1710.93 1342.83 1703.83C1358.66 1696.07 1396.98 1678.77 1437.31 1660.57Z" class="outline_black" stroke="black" stroke-linecap="round" stroke-linejoin="round" />
                        <path d="M1343.84 1751.89C1343.47 1755.36 1343.03 1759.05 1342.52 1763.04C1343.04 1759.28 1343.49 1755.56 1343.84 1751.89Z" class="outline_black" stroke="black" stroke-linecap="round" stroke-linejoin="round" />
                    </g>
                    <path id="Subtract_25" d="M608.158 1702.2L477.146 1648.4C484.731 1666.49 537.003 1707.85 576.032 1723.46C588.227 1728.34 601.844 1732.78 615.072 1735.98C610.692 1722.51 607.669 1711.36 606.467 1703.6C606.58 1703.34 607.169 1702.86 608.158 1702.2Z" class="outline_black" stroke="black" stroke-linecap="round" stroke-linejoin="round" />
                </g>
                <g id="leg-left_3">
                    <g id="shoe-left_3">
                        <path id="Rectangle 31_4" d="M1631.09 1668.45C1631.09 1668.45 1648.35 1674.31 1658.83 1679.38C1731.22 1815.76 1461.72 1976.56 1420.67 1987.73C1410.73 1990.44 1380.82 1979.28 1379.92 1976.56C1408.82 1984.49 1708.7 1794.68 1631.09 1668.45Z" class="outline_black" stroke="black" stroke-linecap="round" stroke-linejoin="round" />
                        <path id="Subtract_26" d="M1455.61 1686.41C1424.3 1699.61 1389.71 1714.19 1344.83 1723.17L1344.8 1723.23C1347.34 1788.81 1313.87 1883.75 1264.19 1931.31L1377.79 1977.08C1428.29 1977.08 1704.84 1789.82 1631.06 1668.43C1556.63 1643.81 1511.31 1662.92 1455.61 1686.41Z" class="outline_black" stroke="black" stroke-linecap="round" stroke-linejoin="round" />
                    </g>
                    <g id="Subtract_27">
                        <path d="M692.358 1680.69L986.026 1547.56L809.225 1476.18L639.598 1474.42L640.515 1408.06L558.07 1374.77C406.195 1310.9 292.68 1575.54 478.624 1649.09L608.153 1702.2C618.921 1695.02 677.246 1666.62 684.036 1667.7C684.983 1667.85 687.94 1672.56 692.358 1680.69Z" class="outline_black" stroke="black" stroke-linecap="round" stroke-linejoin="round" />
                        <path d="M1142.69 1921.39C1219.34 1883.48 1261.69 1807.73 1268.28 1737.69L996.128 1861.29L1104.27 1905.64L1104.27 1905.63L1142.69 1921.39Z" class="outline_black" stroke="black" stroke-linecap="round" stroke-linejoin="round" />
                    </g>
                    <path id="Subtract_28" d="M1268.28 1737.69C1261.69 1807.73 1219.34 1883.48 1142.69 1921.39L1104.27 1905.63C1107.84 1917.41 1114.22 1925.86 1123.96 1929.62L1201.08 1960.8C1289.1 1960.8 1358.04 1791.04 1342.82 1703.84L1268.28 1737.69Z" class="outline_black" stroke="black" stroke-linecap="round" stroke-linejoin="round" />
                </g>
                <g id="leg-right_3">
                    <g id="shoe-right_3">
                        <path id="Rectangle 24_2" d="M424.576 1830.21L384.563 1747.59C378.978 1761.97 463.223 1985.91 491.604 2013L424.576 1830.21Z" class="outline_black" stroke="black" stroke-linecap="round" stroke-linejoin="round" />
                        <path id="Rectangle 25_3" d="M380.419 1713.15L416.938 1695.66C472.862 1806.41 504.302 1885.51 550.975 2022.47L513.621 2040.32C472.742 2022.47 362.47 1727.8 380.419 1713.15Z" class="outline_black" stroke="black" stroke-linecap="round" stroke-linejoin="round" />
                        <path id="Rectangle 26_2" d="M416.786 1695.7C513.954 1644.3 551.485 1794.85 638.116 1758.63C673.045 1832.77 691.412 1874.7 720.434 1947.55L550.939 2022.58C507.196 1893.16 478.565 1821.42 416.786 1695.7Z" class="outline_black" stroke="black" stroke-linecap="round" stroke-linejoin="round" />
                    </g>
                    <path id="Rectangle 27_3" d="M606.466 1703.6C607.807 1700.47 676.624 1666.52 684.035 1667.7C691.447 1668.88 821.832 1949.36 813.217 1958.56C804.602 1967.76 737.22 1994.49 735.761 1992.92M606.466 1703.6C608.401 1716.1 615.053 1737.36 624.485 1762.93C629.96 1761.64 632.95 1760.72 638.115 1758.63M606.466 1703.6C611.023 1705.66 623.085 1727.62 638.115 1758.63M735.761 1992.92C729.11 1985.74 719.972 1971.26 709.599 1952.36L720.432 1947.55M735.761 1992.92C735.761 1988.7 729.806 1971.56 720.432 1947.55M638.115 1758.63C664.624 1813.33 700.363 1896.16 720.432 1947.55" class="outline_black" stroke="black" stroke-linecap="round" stroke-linejoin="round" />
                    <path id="Subtract_29" d="M692.358 1680.69L1136 1479.58L1438.54 1482.72L1439.3 1342.08L1445.46 1339.29C1593.16 1266.27 1723.87 1528.28 1542.76 1613.03L811.593 1945.1L809.317 1940.06C790.783 1885.44 717.639 1727.19 692.358 1680.69Z" class="outline_black" stroke="black" stroke-linecap="round" stroke-linejoin="round" />
                </g>
                <g id="hand-left_3">
                    <path id="Vector 52_3" d="M688.822 700.982C611.668 719.536 613.764 705.911 504.989 680.829C468.667 723.22 466.2 799.214 518.092 845.178L557.309 841.03C506.599 779.725 546.215 749.765 688.822 700.982Z" class="outline_black" stroke="black" stroke-linecap="round" stroke-linejoin="round" />
                    <path id="Vector 53_2" d="M688.795 700.962C765.156 697.733 819.19 706.873 881.692 733.359C911.026 737.167 944.973 757.391 981.087 784.115C1017.2 810.839 976.754 857.789 945.695 839.732C910.173 815.621 890.239 802.032 857.903 791.573M857.903 791.573C881.908 823.033 892.858 844.742 905.336 894.94L863.214 894.477M857.903 791.573L836.835 772.997M557.28 841.006C582.349 867.018 669.184 869.967 671.983 871.558C674.783 873.149 699.005 892.669 699.005 892.669L805.275 893.839M805.275 893.839C772.231 862.574 755.536 848.922 727.352 831.654M805.275 893.839L863.214 894.477M778.604 791.573C813.017 821.77 833.493 835.123 863.214 894.477" class="outline_black" stroke="black" stroke-linecap="round" stroke-linejoin="round" />
                </g>
                <g id="arm-left_3">
                    <path id="Subtract_30" d="M633.539 867.06L633.802 867.485C633.981 867.374 634.071 867.163 634.028 866.957C633.984 866.751 633.817 866.594 633.608 866.565L633.539 867.06ZM606.357 862.261L606.464 861.773C606.374 861.753 606.279 861.758 606.191 861.789L606.357 862.261ZM518.101 845.176L518.424 844.794C518.32 844.706 518.184 844.664 518.048 844.678L518.101 845.176ZM518.093 845.177L517.761 845.551C517.866 845.644 518.006 845.689 518.145 845.674L518.093 845.177ZM517.887 844.994L518.22 844.621L518.211 844.613L517.887 844.994ZM490.151 808.423L490.604 808.209L490.602 808.205L490.151 808.423ZM504.989 680.828L505.102 680.34C504.92 680.299 504.731 680.361 504.61 680.502L504.989 680.828ZM505.058 680.844L504.946 681.331C505.131 681.373 505.323 681.308 505.444 681.162L505.058 680.844ZM664.752 706.194L664.296 706.399C664.391 706.609 664.616 706.727 664.843 706.685L664.752 706.194ZM682.479 702.474L682.591 702.962C682.734 702.929 682.855 702.835 682.923 702.705C682.99 702.575 682.997 702.422 682.942 702.286L682.479 702.474ZM577.834 882.597C514.751 882.597 463.521 825.603 463.521 755.181H462.521C462.521 826.051 514.099 883.597 577.834 883.597V882.597ZM633.275 866.635C616.853 876.806 597.95 882.597 577.834 882.597V883.597C598.146 883.597 617.23 877.749 633.802 867.485L633.275 866.635ZM606.249 862.749C615.456 864.782 624.814 866.342 633.469 867.555L633.608 866.565C624.97 865.354 615.639 863.799 606.464 861.773L606.249 862.749ZM606.191 861.789C596.982 865.027 587.189 866.771 577.035 866.771V867.771C587.305 867.771 597.209 866.007 606.523 862.733L606.191 861.789ZM577.035 866.771C555.057 866.771 534.766 858.6 518.424 844.794L517.779 845.558C534.286 859.503 554.801 867.771 577.035 867.771V866.771ZM518.145 845.674L518.154 845.673L518.048 844.678L518.04 844.679L518.145 845.674ZM517.555 845.368C517.624 845.429 517.692 845.49 517.761 845.551L518.424 844.802C518.356 844.742 518.288 844.681 518.22 844.621L517.555 845.368ZM518.211 844.613C506.818 834.934 497.357 822.51 490.604 808.209L489.699 808.636C496.511 823.06 506.057 835.6 517.564 845.375L518.211 844.613ZM504.61 680.502C476.735 713.034 468.718 765.231 489.701 808.64L490.602 808.205C469.79 765.15 477.756 713.379 505.369 681.153L504.61 680.502ZM505.171 680.356C505.148 680.351 505.125 680.346 505.102 680.34L504.877 681.315C504.9 681.32 504.923 681.325 504.946 681.331L505.171 680.356ZM505.444 681.162C523.317 659.542 548.784 646.04 577.035 646.04V645.04C548.451 645.04 522.712 658.704 504.673 680.525L505.444 681.162ZM577.035 646.04C615.094 646.04 648.112 670.552 664.296 706.399L665.207 705.988C648.889 669.844 615.551 645.04 577.035 645.04V646.04ZM682.367 701.987C675.929 703.468 670.071 704.702 664.661 705.702L664.843 706.685C670.27 705.682 676.142 704.445 682.591 702.962L682.367 701.987ZM577.834 627.765C624.144 627.765 664.054 658.467 682.016 702.662L682.942 702.286C664.852 657.775 624.613 626.765 577.834 626.765V627.765ZM463.521 755.181C463.521 684.759 514.751 627.765 577.834 627.765V626.765C514.099 626.765 462.521 684.311 462.521 755.181H463.521Z" fill="black" />
                    <path id="Vector 51_3" d="M568.065 627.709C342.319 615.039 357.852 931.881 568.13 882.903C418.917 856.622 439.001 640.488 568.065 627.709Z" class="outline_black" stroke="black" stroke-linecap="round" stroke-linejoin="round" />
                    <path id="Subtract_31" d="M185.64 923.467L489.955 883.493C389.922 856.474 375.326 716.483 459.024 655.633L155.692 695.478" class="outline_black" stroke="black" stroke-linecap="round" stroke-linejoin="round" />
                    <path id="Subtract_32" d="M185.641 923.467L394.661 896.011C339.733 903.503 287.024 911.147 254.431 918.046C15.5623 1010.79 -4.05742 648.133 253.438 681.484C275.319 676.962 295.504 672.703 314.6 668.673C385.876 653.633 441.99 641.793 514.551 631.435C492.736 636.11 474.253 644.562 459.023 655.634L155.692 695.479M568.064 627.709C558.775 627.187 549.893 627.224 541.417 627.77C555.781 625.899 570.849 624.072 586.828 622.278V627.651C583.86 627.395 580.861 627.264 577.834 627.264L568.064 627.709ZM568.13 882.903C567.019 882.708 565.917 882.501 564.825 882.285C569.095 882.821 573.436 883.097 577.834 883.097C585.112 883.097 592.232 882.342 599.133 880.9L601.226 885.28C601.226 885.28 520.745 906.093 479.134 884.915L489.956 883.493C511.935 889.43 538.038 889.912 568.13 882.903Z" class="outline_black" stroke="black" stroke-linecap="round" stroke-linejoin="round" />
                </g>
                <path id="hand-right_10" d="M1566.97 1202.52C1578.95 1203.49 1587.04 1202.58 1597.87 1197.76C1644.04 1163.68 1678.05 1156.31 1736.82 1158.25C1742.85 1161.11 1751.1 1158.25 1757.11 1152.69C1759.86 1121.29 1751.19 1091.51 1727.67 1067.37C1595.23 1051.7 1526.09 1052.45 1440.05 1112.82V1162.96M1566.97 1202.52C1526.38 1259.92 1507.89 1282.24 1485.41 1270.82C1463.93 1257.53 1461.46 1245.32 1482.04 1211.15M1566.97 1202.52C1542.57 1197.76 1535.91 1162.96 1561.65 1146.12L1607.9 1124.36M1482.04 1211.15C1463.29 1225.42 1453.7 1230.51 1440.05 1228.7V1162.96M1482.04 1211.15C1507.64 1168.9 1524.69 1148.65 1561.65 1120.93M1440.05 1162.96C1454.95 1146.09 1464.21 1137.2 1485.41 1124.36" class="outline_black" stroke="black" stroke-linecap="round" stroke-linejoin="round" />
                <g id="arm-right_3">
                    <path id="Subtract_33" d="M1449.42 915.475C1458.18 916.792 1463.03 920.274 1471.49 932.479C1488.21 956.613 1528.81 990.098 1584.11 1030.43C1590.07 1027.16 1596.33 1024.34 1602.84 1021.99C1602.74 1022.03 1602.64 1022.07 1602.54 1022.1C1623.58 1008.23 1649.08 1000.12 1676.57 1000.12C1693.86 1000.12 1710.36 1003.33 1725.47 1009.17H1932.92C1931.85 1008.71 1930.76 1008.26 1929.63 1007.82C1915.25 992.942 1905.13 986.856 1882.95 980.166L1816.83 924.716L1631.15 781.005C1573.6 723.329 1543.75 702.836 1494.89 675.54L1478.29 662.691M1943.65 1014.52C1948.14 1017.31 1952.43 1020.47 1956.51 1023.96C1952.6 1020.42 1948.43 1017.32 1943.65 1014.52Z" class="outline_black" stroke="black" stroke-linecap="round" stroke-linejoin="round" />
                    <path id="Subtract_34" d="M1725.72 1241.03L1900.12 1233.41C2044.91 1214.06 2017.33 1048.26 1933.78 1009.17H1725.47C1773.41 1027.69 1807.24 1072.64 1807.24 1125.15C1807.24 1177.56 1773.53 1222.45 1725.72 1241.03Z" class="outline_black" stroke="black" stroke-linecap="round" stroke-linejoin="round" />
                    <path id="Subtract_35" d="M1519.72 1158.19C1526.56 1150.6 1533.9 1143.5 1542.37 1136.27M1648.87 1264.08C1721.04 1264.08 1779.54 1208.1 1779.54 1139.04C1779.54 1069.99 1721.04 1014.01 1648.87 1014.01C1605.38 1014.01 1566.86 1034.34 1543.1 1065.61C1555.01 1063.01 1567.22 1061.23 1579.95 1060.13C1598.78 1044.16 1623.24 1034.52 1649.98 1034.52C1683.92 1034.52 1714.19 1050.06 1733.93 1074.36C1745.14 1087.94 1752.1 1103.06 1755.38 1119.08C1756.9 1126.22 1757.7 1133.62 1757.7 1141.2C1757.7 1144.41 1757.55 1147.58 1757.27 1150.72C1757.22 1151.38 1757.17 1152.03 1757.11 1152.69C1757.1 1152.7 1757.09 1152.71 1757.07 1152.73C1751.27 1206.22 1705.54 1247.88 1649.98 1247.88C1615.13 1247.88 1584.14 1231.49 1564.46 1206.07C1560.12 1212.18 1556.04 1217.88 1552.18 1223.15C1576.09 1248.29 1610.55 1264.08 1648.87 1264.08Z" class="outline_black" stroke="black" stroke-linecap="round" stroke-linejoin="round" />
                    <path id="Subtract_36" d="M1722.9 1242.09C1772.2 1224.2 1807.24 1178.59 1807.24 1125.15C1807.24 1056.09 1748.74 1000.12 1676.57 1000.12C1649.08 1000.12 1623.58 1008.23 1602.54 1022.1C1616.94 1016.88 1632.56 1014.01 1648.87 1014.01C1721.04 1014.01 1779.54 1069.99 1779.54 1139.05C1779.54 1181.8 1757.11 1219.54 1722.9 1242.09Z" class="outline_black" stroke="black" stroke-linecap="round" stroke-linejoin="round" />
                </g>
                <path id="laptop_7" d="M647.65 891.809L1441.67 901.129L1438.54 1482.72L639.598 1474.42L647.65 891.809Z" class="outline_black" stroke="black" stroke-linecap="round" stroke-linejoin="round" />
                <g id="body_3">
                    <path id="Subtract_37" d="M1449.62 913.675C1446.62 921.341 1443.91 928.996 1441.48 936.659L1441.67 901.129L905.31 894.833C892.842 844.711 881.891 823.011 857.904 791.573M857.904 791.573C890.076 801.979 909.971 815.483 945.158 839.367L945.696 839.732C976.754 857.789 1017.2 810.839 981.087 784.115C944.973 757.391 911.026 737.167 881.692 733.358C819.19 706.872 765.183 697.754 688.822 700.982C686.646 701.505 684.533 702.003 682.479 702.476C665.625 661.006 629.497 631.336 586.828 627.653L586.828 622.278L586.619 622.302C591.173 620.808 595.7 619.321 600.201 617.843L600.228 617.835C723.818 577.253 828.151 542.994 941.593 535.855L1166.03 535.973C1243.9 538.087 1368.24 595.706 1478.28 662.691V662.755M857.904 791.573L836.835 772.997M805.083 893.657C772.166 862.521 755.481 848.888 727.352 831.654M778.604 791.573C782.485 794.978 786.188 798.169 789.747 801.236C817.727 825.344 836.812 841.788 863.145 894.338M633.538 867.061C622.981 873.6 611.401 878.337 599.134 880.901L601.226 885.28L601.201 885.287C620.756 926.568 635.493 964.014 646.168 998.935L647.649 891.809L698.68 892.408C695.794 890.085 674.591 873.041 671.983 871.558C671.448 871.254 667.84 870.901 662.18 870.347C655.149 869.659 644.951 868.661 633.538 867.061ZM1456.09 1306.66L1456.1 1306.71L1456.22 1307.36C1457.8 1315.93 1459.4 1324.64 1461.02 1333.5C1453.71 1337.51 1446.46 1341.44 1439.28 1345.28L1439.97 1216.68C1444.71 1244.92 1450.21 1274.74 1456.07 1306.54L1456.08 1306.59L1456.09 1306.66ZM1061.8 1478.8L906.304 1477.19C959.495 1483.67 1010.55 1484.29 1061.8 1478.8ZM640.521 1407.57L641.622 1327.87C635.718 1351.01 629.122 1375.15 622.087 1400.73C628.283 1403.06 634.427 1405.34 640.521 1407.57Z" class="outline_black" stroke="black" stroke-linecap="round" stroke-linejoin="round" />
                    <path id="Subtract_38" d="M960.849 513.893C964.349 512.551 968.08 511.768 971.832 511.768H986.737V519.108C1039.09 521.689 1068.38 521.855 1120.42 519.108V511.768H1137.88C1146.34 511.768 1165.62 522.701 1165.62 535.885H941.305C941.305 527.674 949.95 518.074 960.849 513.893ZM960.849 513.893C960.849 516.12 971.073 517.822 986.737 519.011" class="outline_black" stroke="black" stroke-linecap="round" stroke-linejoin="round" />
                </g>
                <g id="headphone_3">
                    <path id="Rectangle 47_2" d="M1235.68 207.908H1269.16C1278.61 207.908 1276.13 338.608 1269.17 338.608H1221.5L1211.92 252.971C1222.9 235.96 1227.59 227.671 1235.68 207.908Z" class="outline_black" stroke="black" stroke-linecap="round" />
                    <path id="Rectangle 43_3" d="M1275.07 246.323H1286.8C1288.44 268.253 1287.96 278.64 1286.8 300.467H1274.44C1275.1 286.315 1275.77 266.875 1275.07 246.323Z" class="outline_black" stroke="black" stroke-linecap="round" stroke-linejoin="round" />
                    <path id="Rectangle 44_3" d="M860.489 206.11H848.069C838.618 206.11 841.104 336.81 848.059 336.81H887.85C893.141 301.998 895.261 282.283 897.116 246.22C885.824 235.181 872.93 221.283 860.489 206.11Z" class="outline_black" stroke="black" stroke-linecap="round" />
                    <path id="Rectangle 45_3" d="M841.864 244.525H824.521C822.108 266.455 822.807 276.842 824.521 298.669H842.795C841.808 284.517 840.822 265.077 841.864 244.525Z" class="outline_black" stroke="black" stroke-linecap="round" stroke-linejoin="round" />
                    <g id="Subtract_39">
                        <path d="M974.614 22.5596C939.736 38.2246 910.158 63.8777 889.379 95.9586C899.785 94.7919 910.913 92.7581 922.626 90.2392C938.6 70.41 958.611 54.226 981.344 43.0592C980.24 42.0246 979.408 40.6824 978.997 39.1293L974.614 22.5596Z" class="outline_black" stroke="black" stroke-linecap="round" stroke-linejoin="round" />
                        <path d="M1128.57 43.1421C1147.25 52.3458 1164.1 64.9402 1178.36 80.1624C1183.67 82.6963 1188.93 85.523 1194.14 88.6652C1238.71 122.534 1253.17 160.203 1235.75 207.848L1251.35 207.909C1251.35 207.382 1251.36 206.855 1251.36 206.328C1251.36 124.51 1203.28 54.1236 1134.31 22.8489L1131.11 38.6583C1130.75 40.4466 1129.83 41.9907 1128.57 43.1421Z" class="outline_black" stroke="black" stroke-linecap="round" stroke-linejoin="round" />
                        <path d="M856.93 206.328C856.93 204.827 856.946 203.331 856.978 201.838C858.224 203.381 859.464 204.897 860.693 206.384L856.93 206.369L856.93 206.328Z" class="outline_black" stroke="black" stroke-linecap="round" stroke-linejoin="round" />
                    </g>
                    <path id="Rectangle 48_3" d="M985.217 45.6225L985.279 46.1187L985.217 45.6225ZM979.739 41.934L979.255 42.0619L979.739 41.934ZM1130.51 41.6506L1131 41.7497L1130.51 41.6506ZM1125 45.63L1125.06 45.1333L1125 45.63ZM1132.32 11.8475L1132.49 11.3764L1132.32 11.8475ZM1135.41 17.4214L1135.9 17.5205L1135.41 17.4214ZM973.332 17.7147L972.849 17.8425L973.332 17.7147ZM976.613 12.3078C995.571 6.14801 1022.94 2.05396 1051.35 1.55208C1079.76 1.05017 1109.15 4.14184 1132.16 12.3186L1132.49 11.3764C1109.33 3.14437 1079.81 0.0491763 1051.33 0.552234C1022.86 1.05532 995.382 5.15805 976.304 11.3567L976.613 12.3078ZM1134.92 17.3222L1130.02 41.5514L1131 41.7497L1135.9 17.5205L1134.92 17.3222ZM1125.06 45.1333C1070.12 38.7583 1037.97 38.5941 985.156 45.1263L985.279 46.1187C1038 39.5971 1070.08 39.7601 1124.95 46.1267L1125.06 45.1333ZM980.222 41.8061L973.816 17.5868L972.849 17.8425L979.255 42.0619L980.222 41.8061ZM985.156 45.1263C982.912 45.4038 980.799 43.9867 980.222 41.8061L979.255 42.0619C979.961 44.7307 982.544 46.457 985.279 46.1187L985.156 45.1263ZM1130.02 41.5514C1129.55 43.8476 1127.39 45.4039 1125.06 45.1333L1124.95 46.1267C1127.79 46.4566 1130.43 44.5601 1131 41.7497L1130.02 41.5514ZM1132.16 12.3186C1134.2 13.0435 1135.35 15.179 1134.92 17.3222L1135.9 17.5205C1136.43 14.9116 1135.02 12.2753 1132.49 11.3764L1132.16 12.3186ZM976.304 11.3567C973.585 12.2402 972.125 15.1049 972.849 17.8425L973.816 17.5868C973.22 15.3358 974.424 13.0189 976.613 12.3078L976.304 11.3567Z" fill="black" />
                </g>
                <g id="head_3">
                    <path id="Subtract_40" d="M986.737 479.723L986.891 479.247C986.739 479.198 986.573 479.224 986.443 479.318C986.314 479.412 986.237 479.563 986.237 479.723H986.737ZM1120.42 479.745H1120.92C1120.92 479.586 1120.85 479.436 1120.72 479.342C1120.59 479.248 1120.42 479.221 1120.27 479.269L1120.42 479.745ZM1120.42 519.107L1120.45 519.606C1120.71 519.592 1120.92 519.373 1120.92 519.107H1120.42ZM986.737 519.107H986.237C986.237 519.373 986.446 519.593 986.713 519.606L986.737 519.107ZM986.583 480.198C1005.52 486.326 1027.59 489.67 1053.17 489.67V488.67C1027.68 488.67 1005.71 485.337 986.891 479.247L986.583 480.198ZM1053.17 489.67C1078.93 489.67 1101.3 486.348 1120.57 480.222L1120.27 479.269C1101.11 485.358 1078.85 488.67 1053.17 488.67V489.67ZM1119.92 479.745V519.107H1120.92V479.745H1119.92ZM1120.39 518.608C1068.37 521.353 1039.1 521.188 986.762 518.607L986.713 519.606C1039.08 522.188 1068.39 522.354 1120.45 519.606L1120.39 518.608ZM987.237 519.107V479.723H986.237V519.107H987.237Z" fill="black" />
                    <path id="Ellipse 22" d="M1211.93 252.776C1163.46 290.574 1116.23 255.569 1049.55 254.939C977.575 254.786 936.612 276.364 897.118 246.224C895.643 276.801 893.677 298.15 887.86 336.819C894.111 420.865 937.66 489.171 1053.17 489.171C1168.31 489.171 1215.22 422.678 1221.63 336.979L1211.93 252.776Z" class="outline_black" stroke="black" stroke-linecap="round" stroke-linejoin="round" />
                    <g id="Ellipse 21_2">
                        <path d="M1227.22 338.631H1221.5C1218.32 381.131 1205.12 418.124 1177.88 445.524L1183.91 452.011C1214.48 413.196 1224.24 388.736 1227.22 338.631Z" class="outline_black" stroke="black" stroke-linecap="round" stroke-linejoin="round" />
                        <path d="M880.989 336.809H887.856C890.978 380.488 904.383 419.222 932.221 447.312L924.702 451.519C894.276 413.77 883.285 388.798 880.989 336.809Z" class="outline_black" stroke="black" stroke-linecap="round" stroke-linejoin="round" />
                    </g>
                    <path id="Rectangle 42_4" d="M803.162 80.5903C807.604 67.2643 834.66 77.3602 859.293 96.3395C935.551 105.606 1077.85 18.5287 1194.14 88.665C1251.87 132.532 1259.08 182.773 1211.93 252.805C1164.83 287.821 1128.36 260.277 1053.64 254.668C982.202 254.668 935.96 276.491 897.106 246.203C897.106 246.203 792.259 145.605 803.162 80.5903Z" class="outline_black" stroke="black" stroke-linecap="round" stroke-linejoin="round" />
                </g>
                <g id="eyesNnose_2">
                    <path id="Subtract_41" d="M937.951 311.535C937.887 312.5 937.855 313.473 937.855 314.453C937.855 338.86 957.948 358.645 982.734 358.645C1007.52 358.645 1027.61 338.86 1027.61 314.453C1027.61 313.473 1027.58 312.5 1027.52 311.535H1009.18C1009.27 312.488 1009.32 313.461 1009.32 314.453C1009.32 330.555 996.374 341.73 982.734 341.73C969.095 341.73 956.146 330.555 956.146 314.453C956.146 313.461 956.195 312.488 956.29 311.535H937.951Z" class="outline_black" stroke="black" stroke-linecap="round" />
                    <path id="Subtract_42" d="M1081.87 311.536C1081.8 312.5 1081.77 313.473 1081.77 314.454C1081.77 338.86 1101.86 358.645 1126.65 358.645C1151.44 358.645 1171.53 338.86 1171.53 314.454C1171.53 313.473 1171.5 312.5 1171.43 311.536H1153.1C1153.19 312.489 1153.24 313.462 1153.24 314.454C1153.24 330.555 1140.29 341.73 1126.65 341.73C1113.01 341.73 1100.06 330.555 1100.06 314.454C1100.06 313.462 1100.11 312.489 1100.21 311.536H1081.87Z" class="outline_black" stroke="black" stroke-linecap="round" />
                </g>
            </g>
        </g>
    </g>
    <defs>
        <linearGradient id="paint0_linear" x1="1137.14" y1="1479.55" x2="1138.05" y2="1550.18" gradientUnits="userSpaceOnUse">
            <stop stop-opacity="0.75" />
            <stop offset="1" stop-opacity="0" />
        </linearGradient>
        <linearGradient id="paint1_linear" x1="899.113" y1="1464.34" x2="884.902" y2="1573.52" gradientUnits="userSpaceOnUse">
            <stop stop-opacity="0.75" />
            <stop offset="1" stop-opacity="0" />
        </linearGradient>
        <linearGradient id="paint2_linear" x1="1480.21" y1="1726.21" x2="1364.59" y2="1669.76" gradientUnits="userSpaceOnUse">
            <stop stop-opacity="0.5" />
            <stop offset="1" stop-opacity="0" />
        </linearGradient>
        <linearGradient id="paint3_linear" x1="495.652" y1="1663.07" x2="615.072" y2="1709.26" gradientUnits="userSpaceOnUse">
            <stop stop-opacity="0.5" />
            <stop offset="1" stop-opacity="0" />
        </linearGradient>
        <linearGradient id="paint4_linear" x1="1323.92" y1="1663.42" x2="1200.6" y2="1960.8" gradientUnits="userSpaceOnUse">
            <stop stop-opacity="0.15" />
            <stop offset="0.0001" stop-opacity="0.15" />
            <stop offset="0.467545" stop-color="#C4C4C4" stop-opacity="0" />
            <stop offset="1" stop-opacity="0.2" />
        </linearGradient>
        <linearGradient id="paint5_linear" x1="593.744" y1="1389.35" x2="487.249" y2="1652.6" gradientUnits="userSpaceOnUse">
            <stop stop-opacity="0.15" />
            <stop offset="0.353533" stop-opacity="0" />
            <stop offset="0.729622" stop-opacity="0" />
            <stop offset="1" stop-opacity="0.2" />
        </linearGradient>
        <radialGradient id="paint6_radial" cx="0" cy="0" r="1" gradientUnits="userSpaceOnUse" gradientTransform="translate(734.568 1610.47) rotate(21.8571) scale(550.56 301.038)">
            <stop stop-color="white" stop-opacity="0" />
            <stop offset="0.96938" stop-opacity="0" />
            <stop offset="1" stop-opacity="0.2" />
        </radialGradient>
        <linearGradient id="paint7_linear" x1="593.744" y1="1389.35" x2="487.249" y2="1652.6" gradientUnits="userSpaceOnUse">
            <stop stop-opacity="0.15" />
            <stop offset="0.353533" stop-opacity="0" />
            <stop offset="0.729622" stop-opacity="0" />
            <stop offset="1" stop-opacity="0.2" />
        </linearGradient>
        <radialGradient id="paint8_radial" cx="0" cy="0" r="1" gradientUnits="userSpaceOnUse" gradientTransform="translate(734.568 1610.47) rotate(21.8571) scale(550.56 301.038)">
            <stop stop-color="white" stop-opacity="0" />
            <stop offset="0.96938" stop-opacity="0" />
            <stop offset="1" stop-opacity="0.2" />
        </radialGradient>
        <linearGradient id="paint9_linear" x1="1687.96" y1="1721.01" x2="1361.09" y2="1949.71" gradientUnits="userSpaceOnUse">
            <stop offset="0.563143" stop-opacity="0" />
            <stop offset="0.842781" stop-opacity="0.2" />
        </linearGradient>
        <linearGradient id="paint10_linear" x1="396.122" y1="1703.57" x2="522.761" y2="2036.85" gradientUnits="userSpaceOnUse">
            <stop stop-opacity="0" />
            <stop offset="1" stop-opacity="0.2" />
        </linearGradient>
        <linearGradient id="paint11_linear" x1="644.983" y1="1682.68" x2="773.226" y2="1979.19" gradientUnits="userSpaceOnUse">
            <stop stop-opacity="0.15" />
            <stop offset="0.287279" stop-color="#C4C4C4" stop-opacity="0" />
            <stop offset="0.489583" stop-color="white" stop-opacity="0.2" />
            <stop offset="0.697917" stop-color="#C4C4C4" stop-opacity="0" />
            <stop offset="1" stop-opacity="0.2" />
        </linearGradient>
        <linearGradient id="paint12_linear" x1="644.983" y1="1682.68" x2="773.226" y2="1979.19" gradientUnits="userSpaceOnUse">
            <stop stop-opacity="0.15" />
            <stop offset="0.287279" stop-color="#C4C4C4" stop-opacity="0" />
            <stop offset="0.489583" stop-color="white" stop-opacity="0.2" />
            <stop offset="0.697917" stop-color="#C4C4C4" stop-opacity="0" />
            <stop offset="1" stop-opacity="0.2" />
        </linearGradient>
        <linearGradient id="paint13_linear" x1="644.983" y1="1682.68" x2="773.226" y2="1979.19" gradientUnits="userSpaceOnUse">
            <stop stop-opacity="0.15" />
            <stop offset="0.287279" stop-color="#C4C4C4" stop-opacity="0" />
            <stop offset="0.489583" stop-color="white" stop-opacity="0.2" />
            <stop offset="0.697917" stop-color="#C4C4C4" stop-opacity="0" />
            <stop offset="1" stop-opacity="0.2" />
        </linearGradient>
        <linearGradient id="paint14_linear" x1="633.35" y1="1752.92" x2="715.157" y2="1950.42" gradientUnits="userSpaceOnUse">
            <stop stop-opacity="0.15" />
            <stop offset="0.234375" stop-color="#C4C4C4" stop-opacity="0" />
            <stop offset="0.453125" stop-color="#C4C4C4" stop-opacity="0" />
            <stop offset="1" stop-opacity="0.2" />
        </linearGradient>
        <linearGradient id="paint15_linear" x1="633.35" y1="1752.92" x2="715.157" y2="1950.42" gradientUnits="userSpaceOnUse">
            <stop stop-opacity="0.15" />
            <stop offset="0.234375" stop-color="#C4C4C4" stop-opacity="0" />
            <stop offset="0.453125" stop-color="#C4C4C4" stop-opacity="0" />
            <stop offset="1" stop-opacity="0.2" />
        </linearGradient>
        <linearGradient id="paint16_linear" x1="1118.74" y1="1478.71" x2="1248.41" y2="1752.46" gradientUnits="userSpaceOnUse">
            <stop stop-opacity="0.15" />
            <stop offset="0.385417" stop-color="white" stop-opacity="0" />
            <stop offset="0.5625" stop-color="white" stop-opacity="0" />
            <stop offset="1" stop-opacity="0.2" />
        </linearGradient>
        <radialGradient id="paint17_radial" cx="0" cy="0" r="1" gradientUnits="userSpaceOnUse" gradientTransform="translate(746.081 1820.39) rotate(-23.9625) scale(22.4278 227.909)">
            <stop stop-opacity="0.2" />
            <stop offset="1" stop-opacity="0" />
        </radialGradient>
        <linearGradient id="paint18_linear" x1="1052.17" y1="1615.21" x2="1084.59" y2="1687.25" gradientUnits="userSpaceOnUse">
            <stop stop-color="white" stop-opacity="0" />
            <stop offset="0.515625" stop-color="white" stop-opacity="0.2" />
            <stop offset="1" stop-color="white" stop-opacity="0" />
        </linearGradient>
        <radialGradient id="paint19_radial" cx="0" cy="0" r="1" gradientUnits="userSpaceOnUse" gradientTransform="translate(1032.34 998.726) rotate(-90) scale(462.872 753.801)">
            <stop offset="0.870776" stop-color="white" stop-opacity="0" />
            <stop offset="1" stop-color="white" stop-opacity="0.2" />
        </radialGradient>
        <linearGradient id="paint20_linear" x1="1864.03" y1="1009.17" x2="1864.03" y2="1241.03" gradientUnits="userSpaceOnUse">
            <stop stop-color="white" stop-opacity="0.15" />
            <stop offset="0.403499" stop-color="white" stop-opacity="0" />
            <stop offset="0.556202" stop-opacity="0" />
            <stop offset="1" stop-opacity="0.2" />
        </linearGradient>
        <radialGradient id="paint21_radial" cx="0" cy="0" r="1" gradientUnits="userSpaceOnUse" gradientTransform="translate(1881.9 1121.69) scale(100.723 187.407)">
            <stop offset="0.565374" stop-opacity="0" />
            <stop offset="1" />
        </radialGradient>
        <linearGradient id="paint22_linear" x1="1704.89" y1="1000.12" x2="1704.89" y2="1242.09" gradientUnits="userSpaceOnUse">
            <stop stop-color="white" stop-opacity="0.15" />
            <stop offset="0.265923" stop-color="white" stop-opacity="0" />
            <stop offset="0.665071" stop-opacity="0" />
            <stop offset="1" stop-opacity="0.2" />
        </linearGradient>
        <linearGradient id="paint23_linear" x1="1601.26" y1="953.107" x2="1556.84" y2="1012.73" gradientUnits="userSpaceOnUse">
            <stop stop-opacity="0" />
            <stop offset="1" stop-opacity="0.2" />
        </linearGradient>
        <linearGradient id="paint24_linear" x1="1601.26" y1="953.107" x2="1556.84" y2="1012.73" gradientUnits="userSpaceOnUse">
            <stop stop-opacity="0" />
            <stop offset="1" stop-opacity="0.2" />
        </linearGradient>
        <radialGradient id="paint25_radial" cx="0" cy="0" r="1" gradientUnits="userSpaceOnUse" gradientTransform="translate(1918.36 1009.17) rotate(128.967) scale(50.0844 769.308)">
            <stop stop-color="white" stop-opacity="0.2" />
            <stop offset="1" stop-color="white" stop-opacity="0" />
        </radialGradient>
        <linearGradient id="paint26_linear" x1="486.333" y1="798.916" x2="486.333" y2="888.053" gradientUnits="userSpaceOnUse">
            <stop stop-opacity="0" />
            <stop offset="1" stop-opacity="0.2" />
        </linearGradient>
        <linearGradient id="paint27_linear" x1="486.333" y1="627.339" x2="491.58" y2="746.42" gradientUnits="userSpaceOnUse">
            <stop stop-color="white" stop-opacity="0.2" />
            <stop offset="1" stop-color="white" stop-opacity="0" />
        </linearGradient>
        <linearGradient id="paint28_linear" x1="264.855" y1="681.14" x2="293.445" y2="909.295" gradientUnits="userSpaceOnUse">
            <stop stop-color="white" stop-opacity="0.2" />
            <stop offset="0.340364" stop-color="white" stop-opacity="0" />
            <stop offset="0.6332" stop-opacity="0" />
            <stop offset="1" stop-opacity="0.2" />
        </linearGradient>
        <radialGradient id="paint29_radial" cx="0" cy="0" r="1" gradientUnits="userSpaceOnUse" gradientTransform="translate(98.8275 837.383) rotate(-34.992) scale(73.6725 128.071)">
            <stop stop-opacity="0.2" />
            <stop offset="1" stop-opacity="0" />
        </radialGradient>
        <linearGradient id="paint30_linear" x1="323.845" y1="622.279" x2="370.674" y2="922.491" gradientUnits="userSpaceOnUse">
            <stop stop-opacity="0.1" />
            <stop offset="1" stop-opacity="0.2" />
        </linearGradient>
        <linearGradient id="paint31_linear" x1="323.845" y1="622.279" x2="370.674" y2="922.491" gradientUnits="userSpaceOnUse">
            <stop stop-opacity="0.1" />
            <stop offset="1" stop-opacity="0.2" />
        </linearGradient>
        <linearGradient id="paint32_linear" x1="323.845" y1="622.279" x2="370.674" y2="922.491" gradientUnits="userSpaceOnUse">
            <stop stop-opacity="0.1" />
            <stop offset="1" stop-opacity="0.2" />
        </linearGradient>
        <radialGradient id="paint33_radial" cx="0" cy="0" r="1" gradientUnits="userSpaceOnUse" gradientTransform="translate(583.581 763.004) rotate(150.208) scale(114.814 83.4197)">
            <stop stop-opacity="0.2" />
            <stop offset="1" stop-opacity="0" />
        </radialGradient>
        <radialGradient id="paint34_radial" cx="0" cy="0" r="1" gradientUnits="userSpaceOnUse" gradientTransform="translate(497.396 680.829) rotate(61.3066) scale(46.8488 93.8953)">
            <stop stop-opacity="0.2" />
            <stop offset="1" stop-opacity="0" />
        </radialGradient>
        <linearGradient id="paint35_linear" x1="688.877" y1="885.159" x2="696.683" y2="874.116" gradientUnits="userSpaceOnUse">
            <stop stop-opacity="0.2" />
            <stop offset="1" stop-color="#C4C4C4" stop-opacity="0" />
        </linearGradient>
        <linearGradient id="paint36_linear" x1="620.275" y1="864.851" x2="621.93" y2="853.995" gradientUnits="userSpaceOnUse">
            <stop stop-opacity="0.2" />
            <stop offset="1" stop-opacity="0" />
        </linearGradient>
        <radialGradient id="paint37_radial" cx="0" cy="0" r="1" gradientUnits="userSpaceOnUse" gradientTransform="translate(982.651 798.809) rotate(64.0577) scale(44.4432 189.359)">
            <stop stop-color="#C4C4C4" stop-opacity="0" />
            <stop offset="1" stop-opacity="0.2" />
        </radialGradient>
        <radialGradient id="paint38_radial" cx="0" cy="0" r="1" gradientUnits="userSpaceOnUse" gradientTransform="translate(1585.13 1145.33) rotate(108.546) scale(60.6845 47.9831)">
            <stop offset="0.786182" stop-opacity="0" />
            <stop offset="1" stop-opacity="0.1" />
        </radialGradient>
        <linearGradient id="paint39_linear" x1="1531.97" y1="1236.04" x2="1540.77" y2="1243.24" gradientUnits="userSpaceOnUse">
            <stop stop-opacity="0" />
            <stop offset="1" stop-opacity="0.2" />
        </linearGradient>
        <radialGradient id="paint40_radial" cx="0" cy="0" r="1" gradientUnits="userSpaceOnUse" gradientTransform="translate(1499.89 1227.13) rotate(108.774) scale(49.2059 83.228)">
            <stop offset="0.604359" stop-opacity="0" />
            <stop offset="1" stop-opacity="0.2" />
        </radialGradient>
        <radialGradient id="paint41_radial" cx="0" cy="0" r="1" gradientUnits="userSpaceOnUse" gradientTransform="translate(1460.75 1186.97) rotate(74.4063) scale(65.3713 474.462)">
            <stop stop-opacity="0" />
            <stop offset="1" stop-opacity="0.2" />
        </radialGradient>
        <linearGradient id="paint42_linear" x1="640.155" y1="1464.75" x2="640.062" y2="1473.74" gradientUnits="userSpaceOnUse">
            <stop stop-opacity="0.2" />
            <stop offset="1" stop-color="#C4C4C4" stop-opacity="0" />
        </linearGradient>
        <linearGradient id="paint43_linear" x1="1040.56" y1="919.599" x2="1040.56" y2="1435.01" gradientUnits="userSpaceOnUse">
            <stop stop-color="white" stop-opacity="0" />
            <stop offset="1" stop-color="white" stop-opacity="0.2" />
        </linearGradient>
        <linearGradient id="paint44_linear" x1="1280.72" y1="296.787" x2="1280.72" y2="300.467" gradientUnits="userSpaceOnUse">
            <stop stop-color="white" stop-opacity="0" />
            <stop offset="1" stop-color="white" stop-opacity="0.2" />
        </linearGradient>
        <radialGradient id="paint45_radial" cx="0" cy="0" r="1" gradientUnits="userSpaceOnUse" gradientTransform="translate(1218.41 222.723) rotate(27.3047) scale(50.267 114.8)">
            <stop stop-opacity="0.5" />
            <stop offset="1" stop-color="#676767" stop-opacity="0" />
        </radialGradient>
        <linearGradient id="paint46_linear" x1="1265.85" y1="338.608" x2="1249.05" y2="312.036" gradientUnits="userSpaceOnUse">
            <stop stop-opacity="0.2" />
            <stop offset="1" stop-color="white" stop-opacity="0" />
        </linearGradient>
        <radialGradient id="paint47_radial" cx="0" cy="0" r="1" gradientUnits="userSpaceOnUse" gradientTransform="translate(879.066 224.78) rotate(128.936) scale(43.5465 84.6786)">
            <stop stop-opacity="0.5" />
            <stop offset="0.811448" stop-opacity="0" />
        </radialGradient>
        <linearGradient id="paint48_linear" x1="850.278" y1="336.809" x2="861.956" y2="294.823" gradientUnits="userSpaceOnUse">
            <stop stop-opacity="0.2" />
            <stop offset="1" stop-opacity="0" />
        </linearGradient>
        <linearGradient id="paint49_linear" x1="833.522" y1="295.191" x2="833.522" y2="298.668" gradientUnits="userSpaceOnUse">
            <stop stop-color="white" stop-opacity="0" />
            <stop offset="1" stop-color="white" stop-opacity="0.2" />
        </linearGradient>
        <radialGradient id="paint50_radial" cx="0" cy="0" r="1" gradientUnits="userSpaceOnUse" gradientTransform="translate(1054.21 55.839) rotate(-90) scale(59.7713 203.683)">
            <stop stop-color="#C4C4C4" stop-opacity="0" />
            <stop offset="0.309885" stop-opacity="0.2" />
            <stop offset="0.646485" stop-color="white" stop-opacity="0" />
            <stop offset="1" stop-color="#171717" stop-opacity="0.2" />
        </radialGradient>
        <radialGradient id="paint51_radial" cx="0" cy="0" r="1" gradientUnits="userSpaceOnUse" gradientTransform="translate(1051.7 497.497) rotate(90.6945) scale(57.9092 132.449)">
            <stop stop-color="white" stop-opacity="0" />
            <stop offset="1" stop-opacity="0.2" />
        </radialGradient>
        <radialGradient id="paint52_radial" cx="0" cy="0" r="1" gradientUnits="userSpaceOnUse" gradientTransform="translate(1054.74 254.956) rotate(90) scale(212.24 330.214)">
            <stop offset="0.565421" stop-color="white" stop-opacity="0" />
            <stop offset="1" stop-opacity="0.2" />
        </radialGradient>
        <radialGradient id="paint53_radial" cx="0" cy="0" r="1" gradientUnits="userSpaceOnUse" gradientTransform="translate(1053.81 368.786) rotate(90) scale(26.7253 62.2869)">
            <stop stop-color="#C4C4C4" stop-opacity="0" />
            <stop offset="1" stop-opacity="0.2" />
        </radialGradient>
    </defs>
</svg>