<svg viewBox="0 0 2048 2048" fill="none" xmlns="http://www.w3.org/2000/svg">
    <g id="workingInLaptop">
        <g id="Group 22">
            <path id="shadow" opacity="0.24" d="M838.164 1528.33C745.524 1551.85 650.042 1577.72 568.523 1692.78C557.612 1708.22 546.533 1726.42 540.513 1754.2C528.432 1810.08 542.144 1883.74 563.422 1917.38C584.701 1951.02 610.954 1954.85 635.996 1957.62C1077 2006.15 1707.62 1957.62 1843.92 1754.2C1980.21 1550.79 1638.16 1428.93 1638.16 1428.93C1638.16 1428.93 1419.83 1342.02 1239.41 1369.3C1159.9 1381.32 1108.27 1427.1 1039.04 1451.58C939.082 1487.13 938.664 1502.78 838.164 1528.33Z" fill="#505F98" />
            <g id="fill">
                <g id="cutouts">
                    <path id="Vector 49" d="M1562.52 1601.36C1548.66 1610.52 1380.86 1684.18 1342.83 1702.83C1346.3 1724.39 1345.65 1737.68 1342.48 1762.31L1461.07 1760.52C1493.25 1694.04 1523.15 1648.86 1562.52 1601.36Z" fill="#ACABAB" />
                    <path id="Vector 50" d="M576.031 1722.46C537.003 1706.85 484.731 1665.49 477.145 1647.4L677.438 1729.65C668.657 1749.16 615.06 1738.07 576.031 1722.46Z" fill="#ACABAB" />
                    <path id="Polygon 4" d="M985.913 1595.1L785.398 1468.17H1186.43L985.913 1595.1Z" fill="#ACABAB" />
                </g>
                <g id="leg-left">
                    <path id="Rectangle 29" d="M1324.77 1683.33L558.069 1373.77C406.195 1309.9 292.679 1574.54 478.623 1648.09L1209.9 1947.95L1324.77 1683.33Z" fill="#ACABAB" />
                    <g id="Rectangle 30">
                        <path d="M1201.08 1959.8C1307.98 1959.8 1386.74 1709.4 1320.76 1660.61L1254.41 1633.78C1306.88 1716.67 1270.46 1883.05 1133.49 1932.47L1201.08 1959.8Z" fill="#ACABAB" />
                        <path d="M1123.96 1928.62L1133.49 1932.47C1270.46 1883.05 1306.88 1716.67 1254.41 1633.78L1243.64 1629.42C1232.51 1624.37 1220.18 1627.31 1207.58 1636.02L1258.29 1656.5C1290.62 1738.34 1250.73 1866.95 1142.69 1920.39L1104.27 1904.63C1107.84 1916.41 1114.22 1924.86 1123.96 1928.62Z" fill="#ACABAB" />
                    </g>
                    <g id="shoe-left">
                        <path id="Rectangle 31" d="M1631.09 1667.45C1631.09 1667.45 1648.35 1673.31 1658.83 1678.38C1731.22 1814.76 1461.72 1975.56 1420.67 1986.73C1410.73 1989.44 1380.82 1978.28 1379.91 1975.56C1408.82 1983.49 1708.7 1793.68 1631.09 1667.45Z" fill="#BFB8B8" />
                        <path id="Subtract" d="M1264.19 1930.31C1313.87 1882.75 1347.34 1787.81 1344.8 1722.23L1344.82 1722.17C1389.71 1713.19 1424.3 1698.61 1455.61 1685.41C1511.31 1661.92 1556.63 1642.81 1631.06 1667.43C1704.84 1788.82 1428.29 1976.08 1377.79 1976.08L1264.19 1930.31Z" fill="#302626" />
                    </g>
                </g>
                <g id="leg-right">
                    <g id="shoe-right">
                        <path id="Rectangle 25" d="M380.419 1712.15L416.938 1694.66C472.862 1805.41 504.302 1884.51 550.975 2021.47L513.621 2039.32C472.742 2021.47 362.47 1726.8 380.419 1712.15Z" fill="#BFB8B8" />
                        <path id="Rectangle 24" d="M424.575 1829.21L384.563 1746.59C378.978 1760.97 463.223 1984.9 491.604 2012L424.575 1829.21Z" fill="#302626" />
                        <path id="Rectangle 26" d="M416.786 1694.7C513.954 1643.3 551.485 1793.85 638.116 1757.62C673.045 1831.76 691.412 1873.7 720.434 1946.55L550.938 2021.58C507.196 1892.15 478.565 1820.42 416.786 1694.7Z" fill="#302626" />
                    </g>
                    <g id="Rectangle 27">
                        <path d="M606.466 1702.6C607.807 1699.47 676.623 1665.52 684.035 1666.7C691.446 1667.88 821.832 1948.36 813.217 1957.56C804.601 1966.76 737.22 1993.49 735.761 1991.92C735.761 1987.7 729.806 1970.55 720.432 1946.55C700.363 1895.16 664.623 1812.32 638.115 1757.63C623.085 1726.62 611.023 1704.66 606.466 1702.6Z" fill="#ACABAB" />
                        <path d="M606.466 1702.6C608.401 1715.1 615.053 1736.36 624.485 1761.93C629.96 1760.64 632.95 1759.71 638.115 1757.63C623.085 1726.62 611.023 1704.66 606.466 1702.6Z" fill="#ACABAB" />
                        <path d="M709.598 1951.35C719.972 1970.26 729.11 1984.74 735.761 1991.92C735.761 1987.7 729.806 1970.55 720.432 1946.55L709.598 1951.35Z" fill="#ACABAB" />
                    </g>
                    <path id="Rectangle 28" d="M692.172 1679.77L1445.46 1338.29C1593.16 1265.27 1723.87 1527.28 1542.76 1612.03L811.593 1944.1L692.172 1679.77Z" fill="#ACABAB" />
                </g>
                <g id="body">
                    <path id="Subtract_2" d="M1478.28 661.755C1490.1 740.261 1467.34 809.157 1449.62 912.676C1404.77 1027.17 1425.46 1139.45 1456.1 1305.71L1456.22 1306.36C1457.8 1314.93 1459.4 1323.64 1461.02 1332.5C1135.82 1510.79 952.033 1523.85 622.087 1399.73C674.48 1209.25 702.588 1098.32 601.201 884.287L601.226 884.28L599.133 879.9C611.405 877.336 622.987 872.596 633.547 866.055C644.956 867.655 655.15 868.655 662.179 869.345L662.181 869.345C667.841 869.9 671.448 870.254 671.983 870.558C674.783 872.149 699.005 891.669 699.005 891.669L805.275 892.839L863.215 893.477L905.336 893.94C892.858 843.742 881.908 822.033 857.904 790.573C890.076 800.979 909.971 814.483 945.159 838.367L945.696 838.732C976.754 856.789 1017.2 809.839 981.088 783.115C944.973 756.391 911.026 736.167 881.692 732.358C819.19 705.872 765.156 696.733 688.795 699.962L688.524 700.054C686.453 700.551 684.439 701.025 682.479 701.476C665.626 660.006 629.497 630.335 586.828 626.652L586.828 621.278L586.619 621.302C591.149 619.816 595.652 618.337 600.13 616.867L600.227 616.835C723.818 576.253 828.151 541.994 941.593 534.855L1166.03 534.973C1243.9 537.087 1368.24 594.706 1478.28 661.691V661.755Z" fill="currentColor" />
                    <path id="Rectangle 37" d="M971.832 510.768H1137.88C1146.34 510.768 1165.62 521.701 1165.62 534.885H941.305C941.305 526.674 949.95 517.074 960.849 512.893C964.349 511.551 968.08 510.768 971.832 510.768Z" fill="currentColor" />
                </g>
                <g id="arm-right">
                    <path id="Rectangle 35" d="M1449.42 914.475L1478.29 661.691L1494.89 674.54C1543.74 701.836 1573.59 722.329 1631.15 780.005L1816.83 923.716L1882.95 979.166C1905.12 985.856 1915.25 991.942 1929.63 1006.82C1954.17 1016.46 1963.87 1028.82 1981.58 1053.3L1855.39 1216.78C1675.5 1092.46 1510.05 987.12 1471.49 931.479C1463.03 919.274 1458.18 915.792 1449.42 914.475Z" fill="currentColor" />
                    <path id="Rectangle 36" d="M1723.48 1008.17H1933.78C2017.33 1047.26 2044.91 1213.05 1900.12 1232.41L1723.48 1240.13L1723.48 1008.17Z" fill="currentColor" />
                    <ellipse id="Ellipse 16" cx="1648.87" cy="1138.04" rx="130.673" ry="125.03" fill="currentColor" />
                    <ellipse id="Ellipse 17" cx="1649.98" cy="1140.2" rx="107.718" ry="106.681" fill="#302626" />
                    <path id="Subtract_3" d="M1722.9 1241.09C1772.2 1223.2 1807.24 1177.59 1807.24 1124.15C1807.24 1055.09 1748.74 999.116 1676.57 999.116C1649.08 999.116 1623.58 1007.23 1602.54 1021.1C1616.94 1015.88 1632.56 1013.01 1648.87 1013.01C1721.04 1013.01 1779.54 1068.99 1779.54 1138.05C1779.54 1180.8 1757.11 1218.54 1722.9 1241.09Z" fill="currentColor" />
                </g>
                <g id="arm-left">
                    <path id="Rectangle 39" d="M253.438 680.484C382.024 653.911 452.03 636.409 586.827 621.278L586.827 854.15L601.226 884.28C601.226 884.28 520.198 905.234 478.711 883.698C399.251 894.446 303.781 906.6 254.431 917.046C15.562 1009.79 -4.05773 647.133 253.438 680.484Z" fill="currentColor" />
                    <path id="Rectangle 38" d="M155.692 694.479L463.021 654.109C380.705 704.289 389.143 862.304 492.969 882.098L185.64 922.468C69.2777 907.562 37.0607 757.217 155.692 694.479Z" fill="currentColor" />
                    <path id="Vector 51" d="M568.064 626.709C342.319 614.04 357.852 930.881 568.13 881.904C418.917 855.623 439 639.488 568.064 626.709Z" fill="currentColor" />
                    <ellipse id="Ellipse 18" rx="114.813" ry="127.916" transform="matrix(-1 0 0 1 577.834 754.181)" fill="currentColor" />
                    <ellipse id="Ellipse 19" rx="98.3597" ry="110.866" transform="matrix(-1 0 0 1 577.034 755.406)" fill="#302626" />
                </g>
                <g id="hand-left">
                    <path id="Vector 52" d="M688.822 699.982C611.668 718.536 613.764 704.911 504.989 679.829C468.667 722.22 466.2 798.214 518.092 844.178L557.309 840.03C506.599 778.725 546.215 748.765 688.822 699.982Z" fill="#E8BD8B" />
                    <path id="Vector 53" d="M881.692 732.359C819.19 705.873 765.155 696.733 688.794 699.962C540.428 750.362 508.924 781.279 557.279 840.006C582.349 866.018 669.183 868.967 671.983 870.558C674.782 872.149 699.005 891.669 699.005 891.669L805.275 892.839L863.214 893.477L905.336 893.94C892.857 843.742 881.908 822.033 857.903 790.573C890.076 800.979 909.971 814.483 945.158 838.367L945.695 838.732C976.753 856.789 1017.2 809.839 981.087 783.115C944.973 756.391 911.026 736.167 881.692 732.359Z" fill="#E8BD8B" />
                </g>
                <path id="hand-right" d="M1757.11 1151.69C1759.86 1120.29 1751.19 1090.51 1727.67 1066.37C1595.23 1050.7 1526.09 1051.45 1440.05 1111.82V1161.96V1227.7C1453.7 1229.51 1463.29 1224.42 1482.04 1210.15C1461.46 1244.32 1463.93 1256.53 1485.41 1269.82C1507.89 1281.24 1526.38 1258.92 1566.97 1201.52C1578.95 1202.49 1587.04 1201.58 1597.87 1196.76C1644.04 1162.68 1678.05 1155.31 1736.82 1157.25C1742.85 1160.11 1751.1 1157.25 1757.11 1151.69Z" fill="#E8BD8B" />
                <path id="laptop" d="M647.649 890.809L1441.67 900.129L1438.54 1481.72L639.597 1473.42L647.649 890.809Z" fill="#888686" />
                <g id="headphone">
                    <path id="Rectangle 42" d="M1235.68 206.908H1269.16C1278.61 206.908 1276.13 337.608 1269.17 337.608H1221.5L1211.92 251.971C1222.9 234.96 1227.59 226.671 1235.68 206.908Z" fill="#DA6F44" />
                    <path id="Rectangle 43" d="M1275.07 245.323H1286.8C1288.44 267.253 1287.96 277.64 1286.8 299.467H1274.44C1275.1 285.315 1275.77 265.875 1275.07 245.323Z" fill="black" />
                    <path id="Rectangle 44" d="M860.488 205.11H848.069C838.618 205.11 841.104 335.81 848.058 335.81H887.849C893.141 300.998 895.261 281.283 897.116 245.22C885.824 234.181 872.929 220.283 860.488 205.11Z" fill="#DA6F44" />
                    <path id="Rectangle 45" d="M841.863 243.525H824.52C822.107 265.455 822.806 275.842 824.52 297.669H842.795C841.808 283.517 840.821 264.077 841.863 243.525Z" fill="black" />
                    <path id="Subtract_4" d="M1251.35 206.908C1251.35 206.382 1251.36 205.855 1251.36 205.327C1251.36 94.4503 1163.06 4.56665 1054.14 4.56665C945.225 4.56665 856.929 94.4503 856.929 205.327C856.929 205.341 856.929 205.355 856.929 205.369L882.356 205.469C882.355 205.174 882.354 204.879 882.354 204.584C882.354 105.389 959.593 24.9754 1054.87 24.9754C1150.15 24.9754 1227.39 105.389 1227.39 204.584C1227.39 205.329 1227.39 206.072 1227.38 206.815L1251.35 206.908Z" fill="black" />
                    <path id="Rectangle 46" d="M973.332 16.7147C972.672 14.2203 974.004 11.6295 976.458 10.8323C1014.49 -1.5262 1086.16 -5.56131 1132.32 10.8475C1134.61 11.6594 1135.89 14.0453 1135.41 16.4214L1130.51 40.6506C1129.99 43.2039 1127.59 44.9303 1125 44.63C1070.1 38.2592 1037.98 38.0956 985.217 44.6225C982.728 44.9304 980.379 43.3587 979.738 40.934L973.332 16.7147Z" fill="#DA6F44" />
                </g>
                <g id="head">
                    <path id="Rectangle 40" d="M986.737 478.821H1120.42V518.108C1068.38 520.855 1039.09 520.689 986.737 518.108V478.821Z" fill="#E8BD8B" />
                    <path id="Ellipse 20" d="M1211.93 251.776C1163.46 289.574 1116.23 254.569 1049.55 253.939C977.575 253.786 936.612 275.364 897.118 245.224C895.643 275.801 893.676 297.15 887.859 335.819C894.111 419.865 937.66 488.171 1053.17 488.171C1168.31 488.171 1215.22 421.678 1221.63 335.979L1211.93 251.776Z" fill="#E8BD8B" />
                    <g id="Ellipse 21">
                        <path d="M1227.22 337.631H1221.5C1218.32 380.131 1205.12 417.124 1177.88 444.524L1183.91 451.011C1214.47 412.196 1224.24 387.736 1227.22 337.631Z" fill="black" />
                        <path d="M880.988 335.809H887.855C890.977 379.488 904.383 418.222 932.221 446.312L924.702 450.519C894.276 412.77 883.284 387.798 880.988 335.809Z" fill="black" />
                    </g>
                    <path id="Rectangle 41" d="M803.162 79.5903C807.604 66.2643 834.66 76.3602 859.293 95.3395C935.551 104.606 1077.85 17.5287 1194.14 87.665C1251.87 131.532 1259.08 181.773 1211.93 251.805C1164.83 286.821 1128.36 259.277 1053.64 253.668C982.202 253.668 935.96 275.491 897.106 245.203C897.106 245.203 792.259 144.605 803.162 79.5903Z" fill="black" />
                </g>
                <g id="eyesNnose">
                    <path id="eyes02" d="M937.951 310.535C937.887 311.5 937.855 312.473 937.855 313.453C937.855 337.86 957.948 357.645 982.734 357.645C1007.52 357.645 1027.61 337.86 1027.61 313.453C1027.61 312.473 1027.58 311.5 1027.52 310.535H1009.18C1009.27 311.488 1009.32 312.461 1009.32 313.453C1009.32 329.555 996.374 340.73 982.734 340.73C969.094 340.73 956.146 329.555 956.146 313.453C956.146 312.461 956.195 311.488 956.29 310.535H937.951Z" fill="black" />
                    <path id="eyes01" d="M1081.87 310.536C1081.8 311.5 1081.77 312.473 1081.77 313.454C1081.77 337.86 1101.86 357.645 1126.65 357.645C1151.44 357.645 1171.53 337.86 1171.53 313.454C1171.53 312.473 1171.5 311.5 1171.43 310.536H1153.09C1153.19 311.489 1153.24 312.462 1153.24 313.454C1153.24 329.555 1140.29 340.73 1126.65 340.73C1113.01 340.73 1100.06 329.555 1100.06 313.454C1100.06 312.462 1100.11 311.489 1100.21 310.536H1081.87Z" fill="black" />
                    <ellipse id="Ellipse 23" cx="1053.81" cy="377.658" rx="16.4378" ry="16.854" fill="#E8BD8B" />
                </g>
            </g>
            <g id="shadow_2">
                <g id="Group 18">
                    <path id="Rectangle 72" d="M1387.4 1542.16L1438.59 1481.52L1137.34 1478.55L927.523 1573.02C1064.72 1535.53 1219.52 1543.51 1387.4 1542.16Z" fill="url(#paint0_linear)" />
                    <path id="Rectangle 73" d="M669.514 1546.33C800.655 1546.33 890.451 1605.25 985.357 1546.33L809.269 1475.19L639.597 1473.42L669.514 1546.33Z" fill="url(#paint1_linear)" />
                    <path id="Vector 96" d="M986.018 1546.56L809.23 1475.18L1136.01 1478.58L986.018 1546.56Z" fill="black" fill-opacity="0.3" />
                </g>
                <g id="cutouts_2">
                    <path id="Subtract_5" d="M1437.31 1659.57C1493.88 1634.03 1554.43 1606.71 1562.52 1601.36C1545.7 1621.65 1530.61 1641.52 1516.33 1662.81C1496.15 1668.31 1476.62 1676.55 1455.61 1685.41C1424.33 1698.59 1389.78 1713.16 1344.97 1722.14C1344.67 1716.13 1343.97 1709.93 1342.83 1702.83C1358.66 1695.07 1396.97 1677.77 1437.31 1659.57Z" fill="url(#paint2_linear)" />
                    <path id="Subtract_6" fill-rule="evenodd" clip-rule="evenodd" d="M477.145 1647.4C484.731 1665.49 537.003 1706.85 576.031 1722.46C588.226 1727.34 601.844 1731.78 615.072 1734.98C610.692 1721.51 607.668 1710.36 606.466 1702.6C606.579 1702.34 607.167 1701.86 608.155 1701.2L477.145 1647.4Z" fill="url(#paint3_linear)" />
                </g>
                <g id="leg-left_2">
                    <path id="Subtract_7" d="M1268.28 1736.69C1261.69 1806.73 1219.34 1882.48 1142.69 1920.39L1104.27 1904.63C1107.84 1916.41 1114.22 1924.86 1123.96 1928.62L1201.08 1959.8C1289.1 1959.8 1358.04 1790.04 1342.82 1702.84L1268.28 1736.69Z" fill="url(#paint4_linear)" />
                    <g id="Subtract_8">
                        <path d="M986.021 1546.56L692.358 1679.69C687.939 1671.56 684.983 1666.85 684.035 1666.7C677.245 1665.62 618.908 1694.03 608.149 1701.2L478.623 1648.09C292.679 1574.54 406.194 1309.9 558.069 1373.77L640.511 1407.06L639.597 1473.22L808.726 1474.98L986.021 1546.56Z" fill="url(#paint5_linear)" />
                        <path d="M986.021 1546.56L692.358 1679.69C687.939 1671.56 684.983 1666.85 684.035 1666.7C677.245 1665.62 618.908 1694.03 608.149 1701.2L478.623 1648.09C292.679 1574.54 406.194 1309.9 558.069 1373.77L640.511 1407.06L639.597 1473.22L808.726 1474.98L986.021 1546.56Z" fill="url(#paint6_radial)" />
                        <path d="M1268.28 1736.69L996.123 1860.29L1104.27 1904.64L1104.27 1904.63L1142.69 1920.39C1219.34 1882.48 1261.69 1806.73 1268.28 1736.69Z" fill="url(#paint7_linear)" />
                        <path d="M1268.28 1736.69L996.123 1860.29L1104.27 1904.64L1104.27 1904.63L1142.69 1920.39C1219.34 1882.48 1261.69 1806.73 1268.28 1736.69Z" fill="url(#paint8_radial)" />
                    </g>
                    <path id="Subtract_9" d="M1268.28 1736.69C1261.69 1806.73 1219.34 1882.48 1142.69 1920.39L1104.27 1904.63C1107.84 1916.41 1114.22 1924.86 1123.96 1928.62L1133.49 1932.47C1226.53 1898.9 1273.18 1811.37 1277.08 1732.69L1268.28 1736.69Z" fill="black" fill-opacity="0.2" />
                    <g id="shoe-left_2">
                        <path id="Rectangle 31_2" d="M1631.09 1667.45C1631.09 1667.45 1648.35 1673.31 1658.83 1678.38C1731.22 1814.76 1461.72 1975.56 1420.67 1986.73C1410.73 1989.44 1380.82 1978.28 1379.91 1975.56C1408.82 1983.49 1708.7 1793.68 1631.09 1667.45Z" fill="url(#paint9_linear)" />
                    </g>
                    <ellipse id="Ellipse 53" cx="517.308" cy="1482.6" rx="24.3391" ry="37.7964" fill="white" fill-opacity="0.2" />
                    <ellipse id="Ellipse 54" cx="429.883" cy="1485.35" rx="15.3202" ry="37.7964" transform="rotate(15.8161 429.883 1485.35)" fill="white" fill-opacity="0.2" />
                </g>
                <g id="leg-right_2">
                    <g id="shoe-right_2">
                        <path id="Rectangle 25_2" d="M380.419 1712.15L416.938 1694.66C472.862 1805.41 504.302 1884.51 550.975 2021.47L513.621 2039.32C472.742 2021.47 362.47 1726.79 380.419 1712.15Z" fill="url(#paint10_linear)" />
                    </g>
                    <g id="Rectangle 27_2">
                        <path d="M606.466 1702.6C607.807 1699.47 676.623 1665.52 684.035 1666.7C691.446 1667.87 821.832 1948.35 813.217 1957.55C804.601 1966.75 737.22 1993.49 735.761 1991.92C735.761 1987.7 729.806 1970.55 720.432 1946.55C700.363 1895.15 664.623 1812.32 638.115 1757.63C623.085 1726.62 611.023 1704.66 606.466 1702.6Z" fill="url(#paint11_linear)" />
                        <path d="M606.466 1702.6C608.401 1715.09 615.053 1736.36 624.485 1761.92C629.96 1760.64 632.95 1759.71 638.115 1757.63C623.085 1726.62 611.023 1704.66 606.466 1702.6Z" fill="url(#paint12_linear)" />
                        <path d="M709.598 1951.35C719.972 1970.25 729.11 1984.74 735.761 1991.92C735.761 1987.7 729.806 1970.55 720.432 1946.55L709.598 1951.35Z" fill="url(#paint13_linear)" />
                    </g>
                    <g id="Rectangle 31_3">
                        <path d="M606.466 1702.6C608.401 1715.09 615.054 1736.36 624.485 1761.92C629.96 1760.64 632.95 1759.71 638.115 1757.63C623.085 1726.62 611.023 1704.66 606.466 1702.6Z" fill="url(#paint14_linear)" />
                        <path d="M709.599 1951.35C719.972 1970.25 729.11 1984.74 735.761 1991.92C735.761 1987.7 729.806 1970.55 720.432 1946.55L709.599 1951.35Z" fill="url(#paint15_linear)" />
                    </g>
                    <g id="Subtract_10">
                        <path d="M1136 1478.57L692.172 1679.77L811.593 1944.1L1542.76 1612.03C1723.87 1527.28 1593.16 1265.27 1445.46 1338.29L1439.3 1341.08L1438.54 1481.72L1136 1478.57Z" fill="url(#paint16_linear)" />
                        <path d="M1136 1478.57L692.172 1679.77L811.593 1944.1L1542.76 1612.03C1723.87 1527.28 1593.16 1265.27 1445.46 1338.29L1439.3 1341.08L1438.54 1481.72L1136 1478.57Z" fill="url(#paint17_radial)" />
                    </g>
                    <path id="Subtract_11" d="M1339.25 1480.49L733.161 1754.99L763.649 1824.62L1409.22 1531.64C1552.19 1468.43 1530.29 1407.48 1438.79 1435.92L1438.54 1481.52L1339.25 1480.49Z" fill="url(#paint18_linear)" />
                    <ellipse id="Ellipse 52" cx="1584.68" cy="1434.86" rx="14.5134" ry="32.2782" transform="rotate(-11.8256 1584.68 1434.86)" fill="white" fill-opacity="0.2" />
                </g>
                <g id="body_2">
                    <path id="Subtract_12" d="M1449.42 914.473L1478.28 661.69C1368.24 594.705 1243.9 537.086 1166.03 534.972L941.593 534.854C828.15 541.994 723.818 576.252 600.227 616.834L600.201 616.843C595.699 618.321 591.172 619.807 586.619 621.301C586.688 621.293 586.758 621.286 586.827 621.278L586.827 626.651C629.497 630.334 665.625 660.005 682.479 701.475C684.439 701.024 686.452 700.55 688.523 700.053L688.794 699.961C765.155 696.733 819.189 705.872 881.691 732.358C911.026 736.167 944.973 756.391 981.087 783.115C1017.2 809.839 976.753 856.788 945.695 838.731L945.158 838.367C909.971 814.483 890.076 800.979 857.903 790.573C881.908 822.033 892.857 843.741 905.336 893.94L863.214 893.476L805.275 892.838L699.005 891.669C699.005 891.669 674.782 872.149 671.983 870.558C671.448 870.254 667.841 869.9 662.181 869.345L662.178 869.344C655.149 868.655 644.955 867.655 633.547 866.054C622.987 872.596 611.404 877.335 599.133 879.9L601.226 884.28C601.226 884.28 601.217 884.282 601.2 884.286C620.716 925.486 635.434 962.865 646.104 997.726L1441.25 936.092C1443.67 928.745 1446.39 921.53 1449.42 914.473Z" fill="url(#paint19_radial)" />
                    <path id="Rectangle 37_2" d="M1131.9 517.402C1128.5 517.754 1124.65 518.071 1120.42 518.354V514.505C1125.72 514.183 1128.28 514.816 1131.9 517.402Z" fill="black" fill-opacity="0.15" />
                    <path id="Rectangle 38_2" d="M975.258 517.402C978.654 517.754 982.51 518.071 986.737 518.354V514.505C981.431 514.183 978.872 514.816 975.258 517.402Z" fill="black" fill-opacity="0.15" />
                </g>
                <g id="arm-right_2">
                    <path id="Subtract_13" d="M1725.72 1240.03L1900.12 1232.41C2044.91 1213.05 2017.33 1047.26 1933.78 1008.17H1725.47C1773.41 1026.69 1807.24 1071.64 1807.24 1124.15C1807.24 1176.56 1773.53 1221.44 1725.72 1240.03Z" fill="url(#paint20_linear)" />
                    <path id="Subtract_14" d="M1933.78 1008.17C2017.33 1047.26 2044.91 1213.05 1900.12 1232.41L1881.9 1233.21C1964.2 1151.45 1957.5 1101.68 1881.9 1008.17H1933.78Z" fill="url(#paint21_radial)" fill-opacity="0.2" />
                    <path id="Subtract_15" d="M1722.9 1241.09C1772.2 1223.2 1807.24 1177.59 1807.24 1124.15C1807.24 1055.09 1748.74 999.116 1676.57 999.116C1649.08 999.116 1623.58 1007.23 1602.54 1021.1C1616.94 1015.88 1632.56 1013.01 1648.87 1013.01C1721.04 1013.01 1779.54 1068.99 1779.54 1138.05C1779.54 1180.8 1757.11 1218.54 1722.9 1241.09Z" fill="url(#paint22_linear)" />
                    <path id="Subtract_16" d="M1648.87 1263.08C1721.04 1263.08 1779.54 1207.1 1779.54 1138.04C1779.54 1068.99 1721.04 1013.01 1648.87 1013.01C1605.38 1013.01 1566.86 1033.34 1543.1 1064.61C1557.04 1061.72 1565.67 1060.43 1579.95 1059.13C1598.78 1043.16 1623.24 1033.52 1649.98 1033.52C1709.47 1033.52 1757.69 1081.28 1757.69 1140.2C1757.69 1199.12 1709.47 1246.88 1649.98 1246.88C1615.13 1246.88 1584.15 1230.49 1564.46 1205.07C1559.71 1211.78 1557.02 1215.51 1552.18 1222.15C1576.09 1247.29 1610.55 1263.08 1648.87 1263.08Z" fill="black" fill-opacity="0.15" />
                    <g id="Subtract_17">
                        <path d="M1478.29 661.691L1449.42 914.475C1458.18 915.792 1463.03 919.274 1471.49 931.479C1488.21 955.613 1528.81 989.098 1584.11 1029.43C1590.07 1026.16 1596.33 1023.34 1602.84 1020.99C1602.74 1021.03 1602.64 1021.06 1602.54 1021.1C1623.58 1007.23 1649.08 999.116 1676.57 999.116C1693.86 999.116 1710.37 1002.33 1725.47 1008.17H1932.92C1931.85 1007.71 1930.75 1007.26 1929.63 1006.82C1915.25 991.942 1905.12 985.856 1882.94 979.166L1816.83 923.716L1631.15 780.005C1573.59 722.329 1543.74 701.836 1494.89 674.54L1478.29 661.691Z" fill="url(#paint23_linear)" />
                        <path d="M1943.65 1013.52C1948.14 1016.31 1952.43 1019.47 1956.51 1022.96C1952.6 1019.42 1948.43 1016.32 1943.65 1013.52Z" fill="url(#paint24_linear)" />
                    </g>
                    <path id="Subtract_18" d="M1929.63 1006.82C1930.75 1007.26 1931.85 1007.71 1932.92 1008.17H1829.2C1687.64 899.372 1580.76 780.005 1463.85 788.083L1478.29 661.691L1494.89 674.54C1543.74 701.836 1573.59 722.329 1631.15 780.005L1816.83 923.716L1882.94 979.166C1905.12 985.856 1915.25 991.942 1929.63 1006.82Z" fill="url(#paint25_radial)" />
                    <path id="Vector 95" d="M1874.43 999.742C1862.89 1002.23 1861.57 1002.4 1852.65 1008.16H1834.39C1848.19 1003.54 1858.64 999.595 1874.43 999.742Z" fill="black" fill-opacity="0.2" />
                </g>
                <g id="arm-left_2">
                    <path id="Subtract_19" d="M577.833 882.098C514.424 882.098 463.021 824.828 463.021 754.181C463.021 683.535 514.424 626.265 577.833 626.265C624.377 626.265 664.452 657.121 682.478 701.475C675.568 703.043 671.69 703.874 664.75 705.193C648.499 669.198 615.321 644.54 577.034 644.54C522.711 644.54 478.674 694.177 478.674 755.406C478.674 816.635 522.711 866.271 577.034 866.271C587.255 866.271 597.113 864.514 606.382 861.252C616.761 863.474 622.75 864.476 633.552 866.051C617.051 876.274 598.053 882.098 577.833 882.098Z" fill="black" fill-opacity="0.2" />
                    <g id="Vector 51_2">
                        <path d="M568.064 626.709C342.319 614.04 357.851 930.881 568.129 881.904C418.917 855.623 439 639.488 568.064 626.709Z" fill="url(#paint26_linear)" />
                        <path d="M568.064 626.709C342.319 614.04 357.851 930.881 568.129 881.904C418.917 855.623 439 639.488 568.064 626.709Z" fill="url(#paint27_linear)" />
                    </g>
                    <g id="Rectangle 38_3">
                        <path d="M155.692 694.48L463.021 654.109C380.705 704.29 389.142 862.305 492.969 882.098L185.64 922.468C69.2774 907.562 37.0605 757.218 155.692 694.48Z" fill="url(#paint28_linear)" />
                        <path d="M155.692 694.48L463.021 654.109C380.705 704.29 389.142 862.305 492.969 882.098L185.64 922.468C69.2774 907.562 37.0605 757.218 155.692 694.48Z" fill="url(#paint29_radial)" />
                    </g>
                    <g id="Subtract_20">
                        <path d="M541.405 626.772C549.884 626.225 558.77 626.188 568.064 626.71L577.834 626.266C580.86 626.266 583.86 626.396 586.827 626.652V621.279C570.844 623.073 555.772 624.9 541.405 626.772Z" fill="url(#paint30_linear)" />
                        <path d="M314.6 667.674C295.504 671.703 275.319 675.962 253.438 680.484C-4.05779 647.133 15.5619 1009.8 254.431 917.047C287.011 910.15 339.691 902.509 394.596 895.02L185.64 922.468C69.2775 907.562 37.0605 757.218 155.692 694.479L459.024 654.634C474.255 643.561 492.743 635.108 514.562 630.434C441.996 640.792 385.88 652.633 314.6 667.674Z" fill="url(#paint31_linear)" />
                        <path d="M489.954 882.494L479.134 883.916C520.746 905.093 601.226 884.281 601.226 884.281L599.133 879.901C592.231 881.344 585.112 882.098 577.834 882.098L568.129 881.905C538.037 888.913 511.934 888.431 489.954 882.494Z" fill="url(#paint32_linear)" />
                    </g>
                </g>
                <g id="hand-left_2">
                    <g id="Vector 52_2">
                        <path d="M688.822 699.982C611.668 718.536 613.764 704.911 504.989 679.829C468.667 722.22 466.2 798.214 518.092 844.178L557.308 840.03C506.598 778.725 546.215 748.765 688.822 699.982Z" fill="url(#paint33_radial)" />
                        <path d="M688.822 699.982C611.668 718.536 613.764 704.911 504.989 679.829C468.667 722.22 466.2 798.214 518.092 844.178L557.308 840.03C506.598 778.725 546.215 748.765 688.822 699.982Z" fill="url(#paint34_radial)" />
                    </g>
                    <path id="Vector 57" d="M945.158 838.367L945.695 838.732C902.88 795.738 869.271 788.687 836.835 748.033C832.811 742.991 829.568 764.797 836.835 771.997L857.903 790.574C890.075 800.98 909.971 814.484 945.158 838.367Z" fill="black" fill-opacity="0.2" />
                    <path id="Vector 56" d="M863.214 893.477H874.249C845.91 834.811 823.755 810.392 778.604 774.471C772.304 769.459 770.067 783.199 778.604 790.573C813.017 820.769 833.494 834.123 863.214 893.477Z" fill="black" fill-opacity="0.2" />
                    <path id="Vector 55" d="M727.351 830.654C755.535 847.922 772.231 861.574 805.275 892.839H819.888L727.351 806.026C722.198 801.287 709.434 819.677 727.351 830.654Z" fill="black" fill-opacity="0.2" />
                    <path id="Vector 54" d="M671.983 870.558C674.783 872.149 699.005 891.669 699.005 891.669H729.936L680.959 856.772L671.983 870.558Z" fill="url(#paint35_linear)" />
                    <path id="Vector 59" d="M557.279 840.007C582.349 866.019 669.183 868.968 671.983 870.559L680.959 856.773C648.451 854.173 622.439 850.847 599.022 842.771L557.279 840.007Z" fill="url(#paint36_linear)" />
                    <path id="Vector 58" d="M945.695 840.15C976.754 858.207 1017.2 811.258 981.087 784.534C945.554 796.227 939.588 809.361 945.695 840.15Z" fill="url(#paint37_radial)" />
                </g>
                <g id="hand-right_2">
                    <path id="hand-right_3" d="M1566.97 1201.52C1578.95 1202.49 1587.04 1201.58 1597.87 1196.76C1577.35 1166.13 1571.38 1149.41 1607.9 1123.36L1561.65 1145.12C1554.55 1149.77 1549.91 1155.78 1547.44 1162.15C1544.82 1168.87 1544.61 1176 1546.44 1182.33C1549.16 1191.76 1556.4 1199.46 1566.97 1201.52Z" fill="url(#paint38_radial)" />
                    <path id="hand-right_4" d="M1521.76 1259.26C1540.82 1237.87 1550.48 1225.03 1566.97 1201.52C1552.53 1199.28 1528.01 1241.65 1503.06 1267.36L1506.59 1270.39C1511.37 1268.21 1516.34 1264.51 1521.76 1259.26Z" fill="url(#paint39_linear)" />
                    <path id="hand-right_5" d="M1482.04 1210.15C1475.89 1220.36 1471.8 1228.61 1469.66 1235.52C1468.36 1239.66 1467.95 1242.17 1467.9 1246.94C1468.3 1256.39 1474.33 1262.96 1485.41 1269.82C1492.59 1273.47 1499.37 1273.67 1506.59 1270.39C1510.86 1268.44 1516.45 1264.36 1520.23 1260.71C1485.4 1257.72 1482.02 1242.47 1482.04 1210.15Z" fill="url(#paint40_radial)" />
                    <path id="hand-right_6" d="M1440.05 1227.7C1453.7 1229.51 1463.29 1224.42 1482.04 1210.15C1487.83 1194.61 1491.93 1186.72 1499.69 1172.36C1472.54 1189.1 1457.42 1192.35 1440.05 1183.37V1227.7Z" fill="url(#paint41_radial)" />
                    <path id="hand-right_7" d="M1561.65 1145.12L1607.9 1123.36C1607.9 1123.36 1563.09 1139.14 1556.3 1144.42C1549.52 1149.69 1547.28 1152.4 1544.18 1160.43C1541.08 1168.46 1540.47 1175.22 1543.39 1183.92C1545.09 1189.01 1551.99 1201.31 1566.96 1201.52C1556.4 1199.46 1549.16 1191.76 1546.44 1182.33C1544.61 1176 1544.82 1168.87 1547.44 1162.15C1549.91 1155.78 1554.55 1149.77 1561.65 1145.12Z" fill="black" fill-opacity="0.2" />
                    <path id="hand-right_8" d="M1515.38 1162.15C1504.19 1175.33 1494.06 1190.32 1482.04 1210.15C1489.71 1187.72 1511.77 1150.25 1516.95 1144.05C1528.53 1130.17 1550.93 1112.64 1550.93 1112.64C1563.33 1100.86 1563.7 1116.12 1561.65 1119.93C1542.03 1134.64 1528.03 1147.24 1515.38 1162.15Z" fill="black" fill-opacity="0.2" />
                    <path id="hand-right_9" d="M1472.63 1131.62C1459.73 1140.64 1451.57 1148.91 1440.05 1161.96V1152.91C1456.6 1133.1 1468.11 1123.58 1488.9 1106.78C1499.04 1097.64 1501.55 1112.92 1499.04 1114.54L1485.41 1123.36C1480.61 1126.27 1476.42 1128.98 1472.63 1131.62Z" fill="black" fill-opacity="0.2" />
                </g>
                <g id="laptop_2">
                    <path id="laptop_3" d="M639.643 1473.42L1438.59 1481.72V1472.98L640.062 1463.75L639.643 1473.42Z" fill="url(#paint42_linear)" />
                    <path id="laptop_4" d="M1438.8 1433.61L640.274 1424.39L640.062 1463.75L1438.59 1472.98L1438.8 1433.61Z" fill="white" fill-opacity="0.1" />
                    <path id="laptop_5" d="M1441.67 900.129L647.649 890.809L647.264 918.6L1441.52 928.031L1441.67 900.129Z" fill="white" fill-opacity="0.2" />
                    <path id="laptop_6" d="M647.265 918.599L1441.29 927.92L1438.78 1434.01L639.833 1425.7L647.265 918.599Z" fill="url(#paint43_linear)" />
                </g>
                <g id="headphone_2">
                    <g id="right">
                        <path id="Rectangle 43_2" d="M1274.44 299.467H1286.8C1286.87 298.203 1286.93 296.978 1287 295.787H1274.6C1274.55 297.049 1274.49 298.277 1274.44 299.467Z" fill="url(#paint44_linear)" />
                        <path id="Rectangle 49" d="M1286.98 283.788H1275.77C1275.73 285.37 1275.68 286.92 1275.63 288.434H1286.8C1286.87 286.836 1286.93 285.292 1286.98 283.788Z" fill="white" fill-opacity="0.2" />
                        <path id="Rectangle 48" d="M1287.47 263.036H1275.94C1275.94 265.745 1275.92 268.408 1275.89 271.016H1287.57C1287.57 268.407 1287.54 265.779 1287.47 263.036Z" fill="white" fill-opacity="0.5" />
                        <g id="Rectangle 42_2">
                            <path d="M1235.68 206.908H1269.16C1278.61 206.908 1276.13 337.608 1269.17 337.608H1221.5L1211.92 251.971C1222.9 234.96 1227.59 226.671 1235.68 206.908Z" fill="url(#paint45_radial)" />
                            <path d="M1235.68 206.908H1269.16C1278.61 206.908 1276.13 337.608 1269.17 337.608H1221.5L1211.92 251.971C1222.9 234.96 1227.59 226.671 1235.68 206.908Z" fill="url(#paint46_linear)" />
                        </g>
                        <path id="Rectangle 42_3" d="M1269.16 206.908C1278.61 206.908 1276.13 337.608 1269.17 337.608L1269.16 206.908Z" fill="white" fill-opacity="0.2" />
                    </g>
                    <g id="left">
                        <g id="Rectangle 44_2">
                            <path d="M860.489 205.109H848.069C838.618 205.109 841.104 335.809 848.059 335.809H887.85C893.141 300.998 895.261 281.283 897.116 245.22C885.824 234.181 872.93 220.282 860.489 205.109Z" fill="url(#paint47_radial)" />
                            <path d="M860.489 205.109H848.069C838.618 205.109 841.104 335.809 848.059 335.809H887.85C893.141 300.998 895.261 281.283 897.116 245.22C885.824 234.181 872.93 220.282 860.489 205.109Z" fill="url(#paint48_linear)" />
                        </g>
                        <path id="Rectangle 47" d="M848.069 205.109C838.618 205.109 841.104 335.809 848.059 335.809L848.069 205.109Z" fill="white" fill-opacity="0.2" />
                        <path id="Rectangle 45_2" d="M842.795 297.668H824.52C824.427 296.476 824.336 295.319 824.249 294.191H842.561C842.638 295.382 842.717 296.542 842.795 297.668Z" fill="url(#paint49_linear)" />
                        <path id="Rectangle 50" d="M841.52 285.08H824.137C824.064 283.91 823.997 282.768 823.937 281.646H841.368C841.416 282.809 841.467 283.954 841.52 285.08Z" fill="white" fill-opacity="0.2" />
                        <path id="Rectangle 49_2" d="M841.248 278.509H823.782C823.735 277.445 823.695 276.396 823.661 275.356H841.146C841.177 276.419 841.211 277.47 841.248 278.509Z" fill="white" fill-opacity="0.2" />
                        <path id="Rectangle 48_2" d="M841.007 269.333H823.552C823.541 266.365 823.598 263.374 823.734 260.218H840.944C840.933 263.319 840.956 266.362 841.007 269.333Z" fill="white" fill-opacity="0.5" />
                    </g>
                    <g id="strap">
                        <path id="Vector 93 (Stroke)" fill-rule="evenodd" clip-rule="evenodd" d="M906.622 90.1277C929.058 61.8549 944.653 48.3425 976.732 29.5242L977.663 32.9046C945.824 51.5821 928.732 62.2661 906.622 90.1277Z" fill="white" fill-opacity="0.75" />
                        <path id="Vector 93 (Stroke)_2" fill-rule="evenodd" clip-rule="evenodd" d="M1202.97 90.4286C1180.53 62.1557 1164.69 48.5878 1132.62 29.7695L1131.93 33.2054C1163.77 51.883 1180.66 63.0151 1202.97 90.4286Z" fill="white" fill-opacity="0.75" />
                    </g>
                    <path id="Rectangle 46_2" d="M973.332 16.7147C972.672 14.2203 974.004 11.6295 976.458 10.8323C1014.49 -1.5262 1086.16 -5.56131 1132.32 10.8475C1134.61 11.6594 1135.89 14.0453 1135.41 16.4214L1130.51 40.6506C1129.99 43.2039 1127.59 44.9303 1125 44.63C1070.1 38.2592 1037.98 38.0956 985.217 44.6225C982.728 44.9304 980.38 43.3587 979.738 40.934L973.332 16.7147Z" fill="url(#paint50_radial)" />
                </g>
                <g id="head_2">
                    <path id="Rectangle 40_2" d="M986.737 478.821C994.521 487.026 1105.56 488.874 1120.42 478.821V518.108C1068.38 520.855 1039.09 520.689 986.737 518.108V478.821Z" fill="url(#paint51_radial)" />
                    <path id="Ellipse 20_2" d="M1211.93 251.776C1163.46 289.574 1116.23 254.569 1049.55 253.939C977.574 253.786 936.611 275.364 897.117 245.224C895.643 275.801 893.676 297.15 887.859 335.819C894.111 419.865 937.659 488.171 1053.17 488.171C1168.31 488.171 1215.22 421.678 1221.63 335.979L1211.93 251.776Z" fill="url(#paint52_radial)" />
                    <g id="hair">
                        <path id="Subtract_21" d="M804.984 76.4509C811.708 72.1123 830.072 85.6454 848.777 99.4285C851.195 101.211 853.619 102.997 856.025 104.75C860.418 107.95 915.58 99.8508 954.253 91.0566C1041.38 71.245 1115.59 54.3694 1188.18 95.7687C1243.34 135.397 1250.23 180.784 1205.18 244.051C1189.67 262.811 1148.19 260.85 1111.77 253.994C1095.13 250.861 1076.34 247.323 1053.95 245.734C1032.11 245.734 1011.29 247.682 992.323 249.457C952.029 253.228 915.617 252.628 902.651 238.853C895.01 230.736 802.48 139.72 802.949 80.9684C793.729 146.016 897.106 245.203 897.106 245.203C923.349 265.66 952.963 262.344 991.435 258.037C1009.92 255.967 1030.46 253.668 1053.64 253.668C1077.08 255.427 1096.75 259.344 1114.16 262.811C1152.28 270.4 1179.6 275.84 1211.93 251.805C1259.08 181.773 1251.87 131.532 1194.14 87.665C1118.22 41.8797 1031.23 63.0916 958.752 80.7622C920.206 90.1603 885.769 98.5568 859.292 95.3395C836.966 78.1374 812.649 68.2329 804.984 76.4509Z" fill="white" fill-opacity="0.2" />
                        <path id="Subtract_22" d="M811.753 93.0633C823.567 127.992 853.863 156.747 879.276 169.064C904.689 181.381 924.62 177.716 955.852 175.542C970.86 174.497 987.529 173.337 1006.35 173.337C1025.38 174.225 1041.34 176.202 1055.48 177.952C1086.43 181.782 1106.44 177.737 1134.85 172.396C1161.52 167.384 1166.41 133.207 1134.85 124.542C1071.38 107.116 1020.09 126.265 961.254 135.184C929.962 139.927 893.287 149.389 863.633 135.184C845.508 126.501 806.109 76.3768 811.753 93.0633Z" fill="white" fill-opacity="0.2" />
                        <path id="Subtract_23" fill-rule="evenodd" clip-rule="evenodd" d="M880.931 177.483C867.181 170.359 823.064 142.047 811.018 95.4982C807.651 82.4893 819.242 92.8423 833.735 105.788C844.018 114.973 855.761 125.463 864.662 129.842C886.109 140.393 932.488 134.259 964.394 127.937C971.402 126.548 981.565 123.47 988.896 121.955C1044.32 110.507 1103.68 101.087 1141.21 118.893C1176.79 135.776 1168.4 172.755 1141.21 179.435C1140.39 179.634 1139.59 179.833 1138.79 180.03C1111.08 186.847 1090.94 191.8 1060.28 186.838C1045.86 184.506 1029.58 181.871 1010.18 180.688C990.99 180.688 973.995 182.234 958.692 183.627C926.847 186.524 905.078 189.993 880.931 177.483ZM879.276 169.064C853.862 156.747 823.567 127.992 811.753 93.0632C808.839 84.449 817.93 93.64 829.9 105.743C841.118 117.085 854.865 130.983 863.633 135.184C892.99 149.247 929.962 139.927 961.254 135.184C974.854 133.122 988.051 130.514 1001.09 127.937C1044.45 119.366 1086.05 111.144 1134.85 124.542C1166.41 133.207 1161.52 167.384 1134.85 172.396C1134.05 172.546 1133.26 172.695 1132.48 172.843C1105.3 177.958 1085.56 181.675 1055.48 177.952C1041.34 176.202 1025.38 174.225 1006.35 173.337C987.529 173.337 970.86 174.497 955.852 175.542C951.887 175.818 948.104 176.118 944.469 176.406C919.471 178.389 901.463 179.817 879.276 169.064Z" fill="white" fill-opacity="0.1" />
                        <ellipse id="Ellipse 51" cx="1211.92" cy="153.458" rx="17.064" ry="24.0646" transform="rotate(-15.4993 1211.92 153.458)" fill="white" fill-opacity="0.2" />
                    </g>
                </g>
                <g id="nose">
                    <ellipse id="Ellipse 23_2" cx="1053.81" cy="377.657" rx="16.4378" ry="16.854" fill="url(#paint53_radial)" />
                </g>
            </g>
        </g>
    </g>
    <defs>
        <linearGradient id="paint0_linear" x1="1137.14" y1="1478.55" x2="1138.05" y2="1549.18" gradientUnits="userSpaceOnUse">
            <stop stop-opacity="0.75" />
            <stop offset="1" stop-opacity="0" />
        </linearGradient>
        <linearGradient id="paint1_linear" x1="899.113" y1="1463.34" x2="884.902" y2="1572.52" gradientUnits="userSpaceOnUse">
            <stop stop-opacity="0.75" />
            <stop offset="1" stop-opacity="0" />
        </linearGradient>
        <linearGradient id="paint2_linear" x1="1480.21" y1="1725.21" x2="1364.59" y2="1668.76" gradientUnits="userSpaceOnUse">
            <stop stop-opacity="0.5" />
            <stop offset="1" stop-opacity="0" />
        </linearGradient>
        <linearGradient id="paint3_linear" x1="495.652" y1="1662.07" x2="615.072" y2="1708.26" gradientUnits="userSpaceOnUse">
            <stop stop-opacity="0.5" />
            <stop offset="1" stop-opacity="0" />
        </linearGradient>
        <linearGradient id="paint4_linear" x1="1323.92" y1="1662.42" x2="1200.6" y2="1959.8" gradientUnits="userSpaceOnUse">
            <stop stop-opacity="0.15" />
            <stop offset="0.0001" stop-opacity="0.15" />
            <stop offset="0.467545" stop-color="#C4C4C4" stop-opacity="0" />
            <stop offset="1" stop-opacity="0.2" />
        </linearGradient>
        <linearGradient id="paint5_linear" x1="593.744" y1="1388.35" x2="487.249" y2="1651.6" gradientUnits="userSpaceOnUse">
            <stop stop-opacity="0.15" />
            <stop offset="0.353533" stop-opacity="0" />
            <stop offset="0.729622" stop-opacity="0" />
            <stop offset="1" stop-opacity="0.2" />
        </linearGradient>
        <radialGradient id="paint6_radial" cx="0" cy="0" r="1" gradientUnits="userSpaceOnUse" gradientTransform="translate(734.568 1609.47) rotate(21.8571) scale(550.56 301.038)">
            <stop stop-color="white" stop-opacity="0" />
            <stop offset="0.96938" stop-opacity="0" />
            <stop offset="1" stop-opacity="0.2" />
        </radialGradient>
        <linearGradient id="paint7_linear" x1="593.744" y1="1388.35" x2="487.249" y2="1651.6" gradientUnits="userSpaceOnUse">
            <stop stop-opacity="0.15" />
            <stop offset="0.353533" stop-opacity="0" />
            <stop offset="0.729622" stop-opacity="0" />
            <stop offset="1" stop-opacity="0.2" />
        </linearGradient>
        <radialGradient id="paint8_radial" cx="0" cy="0" r="1" gradientUnits="userSpaceOnUse" gradientTransform="translate(734.568 1609.47) rotate(21.8571) scale(550.56 301.038)">
            <stop stop-color="white" stop-opacity="0" />
            <stop offset="0.96938" stop-opacity="0" />
            <stop offset="1" stop-opacity="0.2" />
        </radialGradient>
        <linearGradient id="paint9_linear" x1="1687.96" y1="1720.01" x2="1361.09" y2="1948.71" gradientUnits="userSpaceOnUse">
            <stop offset="0.563143" stop-opacity="0" />
            <stop offset="0.842781" stop-opacity="0.2" />
        </linearGradient>
        <linearGradient id="paint10_linear" x1="396.122" y1="1702.57" x2="522.761" y2="2035.85" gradientUnits="userSpaceOnUse">
            <stop stop-opacity="0" />
            <stop offset="1" stop-opacity="0.2" />
        </linearGradient>
        <linearGradient id="paint11_linear" x1="644.983" y1="1681.68" x2="773.226" y2="1978.19" gradientUnits="userSpaceOnUse">
            <stop stop-opacity="0.15" />
            <stop offset="0.287279" stop-color="#C4C4C4" stop-opacity="0" />
            <stop offset="0.489583" stop-color="white" stop-opacity="0.2" />
            <stop offset="0.697917" stop-color="#C4C4C4" stop-opacity="0" />
            <stop offset="1" stop-opacity="0.2" />
        </linearGradient>
        <linearGradient id="paint12_linear" x1="644.983" y1="1681.68" x2="773.226" y2="1978.19" gradientUnits="userSpaceOnUse">
            <stop stop-opacity="0.15" />
            <stop offset="0.287279" stop-color="#C4C4C4" stop-opacity="0" />
            <stop offset="0.489583" stop-color="white" stop-opacity="0.2" />
            <stop offset="0.697917" stop-color="#C4C4C4" stop-opacity="0" />
            <stop offset="1" stop-opacity="0.2" />
        </linearGradient>
        <linearGradient id="paint13_linear" x1="644.983" y1="1681.68" x2="773.226" y2="1978.19" gradientUnits="userSpaceOnUse">
            <stop stop-opacity="0.15" />
            <stop offset="0.287279" stop-color="#C4C4C4" stop-opacity="0" />
            <stop offset="0.489583" stop-color="white" stop-opacity="0.2" />
            <stop offset="0.697917" stop-color="#C4C4C4" stop-opacity="0" />
            <stop offset="1" stop-opacity="0.2" />
        </linearGradient>
        <linearGradient id="paint14_linear" x1="633.35" y1="1751.92" x2="715.157" y2="1949.42" gradientUnits="userSpaceOnUse">
            <stop stop-opacity="0.15" />
            <stop offset="0.234375" stop-color="#C4C4C4" stop-opacity="0" />
            <stop offset="0.453125" stop-color="#C4C4C4" stop-opacity="0" />
            <stop offset="1" stop-opacity="0.2" />
        </linearGradient>
        <linearGradient id="paint15_linear" x1="633.35" y1="1751.92" x2="715.157" y2="1949.42" gradientUnits="userSpaceOnUse">
            <stop stop-opacity="0.15" />
            <stop offset="0.234375" stop-color="#C4C4C4" stop-opacity="0" />
            <stop offset="0.453125" stop-color="#C4C4C4" stop-opacity="0" />
            <stop offset="1" stop-opacity="0.2" />
        </linearGradient>
        <linearGradient id="paint16_linear" x1="1118.74" y1="1477.71" x2="1248.41" y2="1751.46" gradientUnits="userSpaceOnUse">
            <stop stop-opacity="0.15" />
            <stop offset="0.385417" stop-color="white" stop-opacity="0" />
            <stop offset="0.5625" stop-color="white" stop-opacity="0" />
            <stop offset="1" stop-opacity="0.2" />
        </linearGradient>
        <radialGradient id="paint17_radial" cx="0" cy="0" r="1" gradientUnits="userSpaceOnUse" gradientTransform="translate(746.081 1819.39) rotate(-23.9625) scale(22.4278 227.909)">
            <stop stop-opacity="0.2" />
            <stop offset="1" stop-opacity="0" />
        </radialGradient>
        <linearGradient id="paint18_linear" x1="1052.17" y1="1614.21" x2="1084.59" y2="1686.25" gradientUnits="userSpaceOnUse">
            <stop stop-color="white" stop-opacity="0" />
            <stop offset="0.515625" stop-color="white" stop-opacity="0.2" />
            <stop offset="1" stop-color="white" stop-opacity="0" />
        </linearGradient>
        <radialGradient id="paint19_radial" cx="0" cy="0" r="1" gradientUnits="userSpaceOnUse" gradientTransform="translate(1032.34 997.726) rotate(-90) scale(462.872 753.801)">
            <stop offset="0.870776" stop-color="white" stop-opacity="0" />
            <stop offset="1" stop-color="white" stop-opacity="0.2" />
        </radialGradient>
        <linearGradient id="paint20_linear" x1="1864.03" y1="1008.17" x2="1864.03" y2="1240.03" gradientUnits="userSpaceOnUse">
            <stop stop-color="white" stop-opacity="0.15" />
            <stop offset="0.403499" stop-color="white" stop-opacity="0" />
            <stop offset="0.556202" stop-opacity="0" />
            <stop offset="1" stop-opacity="0.2" />
        </linearGradient>
        <radialGradient id="paint21_radial" cx="0" cy="0" r="1" gradientUnits="userSpaceOnUse" gradientTransform="translate(1881.9 1120.69) scale(100.723 187.407)">
            <stop offset="0.565374" stop-opacity="0" />
            <stop offset="1" />
        </radialGradient>
        <linearGradient id="paint22_linear" x1="1704.89" y1="999.116" x2="1704.89" y2="1241.09" gradientUnits="userSpaceOnUse">
            <stop stop-color="white" stop-opacity="0.15" />
            <stop offset="0.265923" stop-color="white" stop-opacity="0" />
            <stop offset="0.665071" stop-opacity="0" />
            <stop offset="1" stop-opacity="0.2" />
        </linearGradient>
        <linearGradient id="paint23_linear" x1="1601.26" y1="952.107" x2="1556.84" y2="1011.73" gradientUnits="userSpaceOnUse">
            <stop stop-opacity="0" />
            <stop offset="1" stop-opacity="0.2" />
        </linearGradient>
        <linearGradient id="paint24_linear" x1="1601.26" y1="952.107" x2="1556.84" y2="1011.73" gradientUnits="userSpaceOnUse">
            <stop stop-opacity="0" />
            <stop offset="1" stop-opacity="0.2" />
        </linearGradient>
        <radialGradient id="paint25_radial" cx="0" cy="0" r="1" gradientUnits="userSpaceOnUse" gradientTransform="translate(1918.36 1008.17) rotate(128.967) scale(50.0844 769.308)">
            <stop stop-color="white" stop-opacity="0.2" />
            <stop offset="1" stop-color="white" stop-opacity="0" />
        </radialGradient>
        <linearGradient id="paint26_linear" x1="486.333" y1="797.916" x2="486.333" y2="887.053" gradientUnits="userSpaceOnUse">
            <stop stop-opacity="0" />
            <stop offset="1" stop-opacity="0.2" />
        </linearGradient>
        <linearGradient id="paint27_linear" x1="486.333" y1="626.339" x2="491.58" y2="745.42" gradientUnits="userSpaceOnUse">
            <stop stop-color="white" stop-opacity="0.2" />
            <stop offset="1" stop-color="white" stop-opacity="0" />
        </linearGradient>
        <linearGradient id="paint28_linear" x1="264.855" y1="680.14" x2="293.445" y2="908.295" gradientUnits="userSpaceOnUse">
            <stop stop-color="white" stop-opacity="0.2" />
            <stop offset="0.340364" stop-color="white" stop-opacity="0" />
            <stop offset="0.6332" stop-opacity="0" />
            <stop offset="1" stop-opacity="0.2" />
        </linearGradient>
        <radialGradient id="paint29_radial" cx="0" cy="0" r="1" gradientUnits="userSpaceOnUse" gradientTransform="translate(98.8275 836.383) rotate(-34.992) scale(73.6725 128.071)">
            <stop stop-opacity="0.2" />
            <stop offset="1" stop-opacity="0" />
        </radialGradient>
        <linearGradient id="paint30_linear" x1="323.845" y1="621.279" x2="370.674" y2="921.491" gradientUnits="userSpaceOnUse">
            <stop stop-opacity="0.1" />
            <stop offset="1" stop-opacity="0.2" />
        </linearGradient>
        <linearGradient id="paint31_linear" x1="323.845" y1="621.279" x2="370.674" y2="921.491" gradientUnits="userSpaceOnUse">
            <stop stop-opacity="0.1" />
            <stop offset="1" stop-opacity="0.2" />
        </linearGradient>
        <linearGradient id="paint32_linear" x1="323.845" y1="621.279" x2="370.674" y2="921.491" gradientUnits="userSpaceOnUse">
            <stop stop-opacity="0.1" />
            <stop offset="1" stop-opacity="0.2" />
        </linearGradient>
        <radialGradient id="paint33_radial" cx="0" cy="0" r="1" gradientUnits="userSpaceOnUse" gradientTransform="translate(583.581 762.004) rotate(150.208) scale(114.814 83.4197)">
            <stop stop-opacity="0.2" />
            <stop offset="1" stop-opacity="0" />
        </radialGradient>
        <radialGradient id="paint34_radial" cx="0" cy="0" r="1" gradientUnits="userSpaceOnUse" gradientTransform="translate(497.396 679.829) rotate(61.3066) scale(46.8488 93.8953)">
            <stop stop-opacity="0.2" />
            <stop offset="1" stop-opacity="0" />
        </radialGradient>
        <linearGradient id="paint35_linear" x1="688.877" y1="884.159" x2="696.683" y2="873.116" gradientUnits="userSpaceOnUse">
            <stop stop-opacity="0.2" />
            <stop offset="1" stop-color="#C4C4C4" stop-opacity="0" />
        </linearGradient>
        <linearGradient id="paint36_linear" x1="620.275" y1="863.851" x2="621.93" y2="852.995" gradientUnits="userSpaceOnUse">
            <stop stop-opacity="0.2" />
            <stop offset="1" stop-opacity="0" />
        </linearGradient>
        <radialGradient id="paint37_radial" cx="0" cy="0" r="1" gradientUnits="userSpaceOnUse" gradientTransform="translate(982.651 797.809) rotate(64.0577) scale(44.4432 189.359)">
            <stop stop-color="#C4C4C4" stop-opacity="0" />
            <stop offset="1" stop-opacity="0.2" />
        </radialGradient>
        <radialGradient id="paint38_radial" cx="0" cy="0" r="1" gradientUnits="userSpaceOnUse" gradientTransform="translate(1585.13 1144.33) rotate(108.546) scale(60.6845 47.9831)">
            <stop offset="0.786182" stop-opacity="0" />
            <stop offset="1" stop-opacity="0.1" />
        </radialGradient>
        <linearGradient id="paint39_linear" x1="1531.97" y1="1235.04" x2="1540.77" y2="1242.24" gradientUnits="userSpaceOnUse">
            <stop stop-opacity="0" />
            <stop offset="1" stop-opacity="0.2" />
        </linearGradient>
        <radialGradient id="paint40_radial" cx="0" cy="0" r="1" gradientUnits="userSpaceOnUse" gradientTransform="translate(1499.89 1226.13) rotate(108.774) scale(49.2059 83.228)">
            <stop offset="0.604359" stop-opacity="0" />
            <stop offset="1" stop-opacity="0.2" />
        </radialGradient>
        <radialGradient id="paint41_radial" cx="0" cy="0" r="1" gradientUnits="userSpaceOnUse" gradientTransform="translate(1460.75 1185.97) rotate(74.4063) scale(65.3713 474.462)">
            <stop stop-opacity="0" />
            <stop offset="1" stop-opacity="0.2" />
        </radialGradient>
        <linearGradient id="paint42_linear" x1="640.155" y1="1463.75" x2="640.062" y2="1472.74" gradientUnits="userSpaceOnUse">
            <stop stop-opacity="0.2" />
            <stop offset="1" stop-color="#C4C4C4" stop-opacity="0" />
        </linearGradient>
        <linearGradient id="paint43_linear" x1="1040.56" y1="918.599" x2="1040.56" y2="1434.01" gradientUnits="userSpaceOnUse">
            <stop stop-color="white" stop-opacity="0" />
            <stop offset="1" stop-color="white" stop-opacity="0.2" />
        </linearGradient>
        <linearGradient id="paint44_linear" x1="1280.72" y1="295.787" x2="1280.72" y2="299.467" gradientUnits="userSpaceOnUse">
            <stop stop-color="white" stop-opacity="0" />
            <stop offset="1" stop-color="white" stop-opacity="0.2" />
        </linearGradient>
        <radialGradient id="paint45_radial" cx="0" cy="0" r="1" gradientUnits="userSpaceOnUse" gradientTransform="translate(1218.41 221.723) rotate(27.3047) scale(50.267 114.8)">
            <stop stop-opacity="0.5" />
            <stop offset="1" stop-color="#676767" stop-opacity="0" />
        </radialGradient>
        <linearGradient id="paint46_linear" x1="1265.85" y1="337.608" x2="1249.05" y2="311.036" gradientUnits="userSpaceOnUse">
            <stop stop-opacity="0.2" />
            <stop offset="1" stop-color="white" stop-opacity="0" />
        </linearGradient>
        <radialGradient id="paint47_radial" cx="0" cy="0" r="1" gradientUnits="userSpaceOnUse" gradientTransform="translate(879.066 223.78) rotate(128.936) scale(43.5465 84.6786)">
            <stop stop-opacity="0.5" />
            <stop offset="0.811448" stop-opacity="0" />
        </radialGradient>
        <linearGradient id="paint48_linear" x1="850.278" y1="335.809" x2="861.956" y2="293.823" gradientUnits="userSpaceOnUse">
            <stop stop-opacity="0.2" />
            <stop offset="1" stop-opacity="0" />
        </linearGradient>
        <linearGradient id="paint49_linear" x1="833.522" y1="294.191" x2="833.522" y2="297.668" gradientUnits="userSpaceOnUse">
            <stop stop-color="white" stop-opacity="0" />
            <stop offset="1" stop-color="white" stop-opacity="0.2" />
        </linearGradient>
        <radialGradient id="paint50_radial" cx="0" cy="0" r="1" gradientUnits="userSpaceOnUse" gradientTransform="translate(1054.21 54.839) rotate(-90) scale(59.7713 203.683)">
            <stop stop-color="#C4C4C4" stop-opacity="0" />
            <stop offset="0.309885" stop-opacity="0.2" />
            <stop offset="0.646485" stop-color="white" stop-opacity="0" />
            <stop offset="1" stop-color="#171717" stop-opacity="0.2" />
        </radialGradient>
        <radialGradient id="paint51_radial" cx="0" cy="0" r="1" gradientUnits="userSpaceOnUse" gradientTransform="translate(1051.7 496.497) rotate(90.6945) scale(57.9092 132.449)">
            <stop stop-color="white" stop-opacity="0" />
            <stop offset="1" stop-opacity="0.2" />
        </radialGradient>
        <radialGradient id="paint52_radial" cx="0" cy="0" r="1" gradientUnits="userSpaceOnUse" gradientTransform="translate(1054.74 253.956) rotate(90) scale(212.24 330.214)">
            <stop offset="0.565421" stop-color="white" stop-opacity="0" />
            <stop offset="1" stop-opacity="0.2" />
        </radialGradient>
        <radialGradient id="paint53_radial" cx="0" cy="0" r="1" gradientUnits="userSpaceOnUse" gradientTransform="translate(1053.81 367.786) rotate(90) scale(26.7253 62.2869)">
            <stop stop-color="#C4C4C4" stop-opacity="0" />
            <stop offset="1" stop-opacity="0.2" />
        </radialGradient>
    </defs>
</svg>